<?xml version="1.0" standalone="no"?>
<!DOCTYPE svg PUBLIC "-//W3C//DTD SVG 20010904//EN"
 "http://www.w3.org/TR/2001/REC-SVG-20010904/DTD/svg10.dtd">
<svg version="1.0" xmlns="http://www.w3.org/2000/svg"
 width="750.000000pt" height="750.000000pt" viewBox="0 0 750.000000 750.000000"
 preserveAspectRatio="xMidYMid meet">

<g transform="translate(0.000000,750.000000) scale(0.100000,-0.100000)"
fill="#000000" stroke="none">
<path d="M1813 7473 c15 -2 37 -2 50 0 12 2 0 4 -28 4 -27 0 -38 -2 -22 -4z"/>
<path d="M1635 7306 c-11 -7 -32 -16 -47 -20 -16 -3 -28 -13 -28 -20 0 -8 -18
-29 -40 -48 -23 -18 -43 -43 -47 -55 -3 -13 -11 -23 -19 -23 -8 0 -14 -8 -14
-19 0 -11 -9 -21 -21 -24 -12 -3 -18 -10 -14 -16 3 -6 -2 -23 -13 -39 -10 -15
-22 -35 -25 -45 -4 -11 -16 -21 -26 -24 -10 -3 -23 -19 -28 -36 -6 -23 -16
-33 -33 -36 -30 -4 -42 -19 -34 -45 4 -11 2 -16 -4 -12 -10 6 -52 -38 -52 -56
0 -14 -62 -78 -77 -78 -7 0 -13 -11 -13 -24 0 -27 -68 -166 -81 -166 -5 0 -18
-19 -30 -42 -12 -24 -25 -45 -29 -48 -3 -3 -10 -12 -13 -20 -4 -8 -23 -44 -42
-80 -19 -36 -35 -70 -35 -75 0 -10 -56 -132 -95 -208 -8 -16 -15 -33 -15 -38
0 -4 -11 -32 -24 -61 -13 -29 -29 -73 -36 -98 -8 -25 -17 -49 -22 -54 -4 -6
-8 -20 -8 -32 0 -13 -4 -25 -9 -28 -10 -7 -37 -86 -47 -141 -4 -22 -17 -63
-30 -92 -12 -28 -20 -54 -16 -57 6 -7 -25 -116 -49 -171 -5 -11 -13 -51 -19
-90 -12 -83 -15 -99 -29 -145 -6 -19 -11 -51 -11 -72 0 -20 -6 -67 -14 -105
-51 -244 -83 -671 -73 -962 13 -363 67 -812 122 -1006 7 -27 21 -79 29 -115 9
-36 19 -74 22 -85 3 -11 8 -35 11 -53 3 -18 9 -35 14 -38 5 -3 9 -15 9 -27 0
-19 31 -109 65 -192 20 -48 36 -97 45 -135 11 -52 28 -90 40 -90 6 0 10 -6 9
-12 -2 -15 7 -42 27 -80 8 -14 14 -34 14 -43 0 -10 13 -43 29 -74 16 -31 62
-122 101 -204 40 -81 78 -151 84 -155 7 -4 36 -52 65 -107 30 -55 64 -111 76
-125 13 -14 31 -44 40 -67 9 -23 24 -45 33 -48 10 -3 28 -28 42 -56 14 -28 34
-55 45 -59 22 -8 115 -106 115 -120 0 -5 18 -28 40 -50 22 -22 40 -47 40 -54
0 -20 39 -66 56 -66 8 0 14 -4 14 -9 0 -13 70 -36 98 -32 12 1 22 -2 22 -8 0
-6 9 -11 20 -11 18 0 20 7 20 60 0 53 -2 60 -20 60 -13 0 -20 7 -20 20 0 11
-4 20 -10 20 -5 0 -10 9 -10 20 0 11 5 20 10 20 6 0 10 9 10 20 0 13 -7 20
-20 20 -17 0 -20 7 -20 40 0 22 -4 40 -10 40 -5 0 -10 18 -10 40 0 22 -4 40
-10 40 -5 0 -10 9 -10 20 0 11 -4 20 -10 20 -5 0 -10 9 -10 20 0 11 -4 20 -10
20 -6 0 -10 33 -10 80 0 47 -4 80 -10 80 -5 0 -10 18 -10 40 0 22 -4 40 -10
40 -5 0 -10 18 -10 40 0 22 -4 40 -10 40 -5 0 -10 11 -10 25 0 14 -4 25 -10
25 -5 0 -10 16 -10 35 0 19 -4 35 -10 35 -5 0 -10 9 -10 20 0 11 -4 20 -10 20
-5 0 -10 18 -10 40 0 22 -4 40 -9 40 -4 0 -11 25 -14 57 -3 31 -10 59 -16 62
-6 4 -12 38 -14 77 -4 69 -16 105 -44 132 -7 7 -13 26 -13 42 0 16 -7 35 -15
44 -10 10 -15 35 -15 80 0 37 -4 66 -10 66 -5 0 -10 9 -10 20 0 11 5 20 10 20
6 0 10 9 10 20 0 14 -7 20 -21 20 -16 0 -20 6 -18 28 1 15 1 48 1 73 -2 38 -6
48 -22 52 -17 4 -20 14 -20 60 0 46 -3 55 -20 60 -17 4 -20 14 -20 66 0 53 -3
61 -19 61 -17 0 -19 14 -24 203 -10 298 -19 437 -28 437 -5 0 -9 45 -9 100 0
60 -4 100 -10 100 -5 0 -10 9 -10 20 0 11 5 20 10 20 6 0 10 9 10 20 0 11 -4
20 -10 20 -15 0 -12 29 5 46 15 16 11 65 -7 72 -13 5 -10 40 4 44 9 3 7 10 -6
23 -16 16 -17 28 -11 89 3 39 10 152 15 251 8 172 20 301 33 355 9 37 21 299
19 418 -1 59 3 102 8 102 6 0 10 18 10 40 0 22 5 40 10 40 6 0 10 37 10 90 0
72 3 88 14 84 15 -6 27 58 27 144 0 23 4 42 9 42 6 0 10 18 10 40 0 22 5 40
10 40 6 0 10 7 10 16 0 9 9 24 20 34 15 13 21 35 26 91 4 41 16 91 26 113 16
32 18 50 13 112 -7 71 -6 74 14 74 19 0 21 6 21 50 0 28 5 50 10 50 6 0 10 26
10 58 0 46 4 60 20 72 11 8 20 22 20 32 0 10 5 18 10 18 14 0 12 38 -2 43 -9
3 -6 11 10 24 18 17 22 31 22 77 0 31 5 56 10 56 6 0 10 18 10 40 0 33 3 40
20 40 17 0 20 7 20 40 0 22 5 40 10 40 6 0 10 13 10 28 0 16 8 34 20 42 16 12
20 26 20 72 0 32 -4 58 -10 58 -5 0 -10 9 -10 20 0 11 5 20 10 20 6 0 10 -4
10 -10 0 -5 5 -10 10 -10 6 0 10 14 10 30 0 23 4 30 20 30 13 0 20 7 20 20 0
11 5 20 10 20 6 0 10 9 10 20 0 11 5 20 10 20 6 0 10 9 10 20 0 11 5 20 10 20
6 0 10 26 10 58 0 53 -2 60 -25 70 -33 15 -36 15 -60 -2z"/>
<path d="M5898 6800 c-3 -19 -1 -29 6 -27 15 5 20 37 8 49 -6 6 -11 -1 -14
-22z"/>
<path d="M5520 6738 c-31 -50 -31 -48 43 -116 15 -13 32 -20 41 -16 10 4 18 0
22 -10 3 -9 13 -16 21 -16 9 0 30 -9 48 -20 27 -17 31 -25 27 -47 -2 -16 -9
-33 -13 -39 -6 -7 -1 -18 11 -29 15 -14 17 -21 9 -32 -15 -17 -29 -17 -29 2 0
8 -4 15 -10 15 -5 0 -10 -7 -10 -15 0 -8 -4 -15 -10 -15 -5 0 -10 -5 -10 -11
0 -8 5 -7 15 1 13 10 18 11 28 1 9 -10 8 -16 -8 -27 -11 -8 -26 -12 -33 -9 -9
3 -12 0 -9 -9 9 -22 -3 -26 -21 -8 -10 10 -37 24 -60 31 -42 14 -102 9 -180
-15 -12 -4 -11 -2 3 7 11 7 42 18 70 25 27 6 55 13 60 14 10 3 38 -5 66 -20
12 -6 23 -3 38 11 27 25 28 43 2 29 -27 -14 -30 -13 -24 13 4 21 4 21 -11 3
-13 -16 -17 -17 -36 -3 -16 11 -18 16 -8 21 7 3 -7 3 -32 1 -25 -2 -51 -4 -58
-4 -7 -1 -10 -5 -7 -11 3 -5 1 -10 -4 -10 -16 0 -51 33 -51 47 0 7 -4 13 -9
13 -5 0 -14 14 -21 30 -10 23 -16 28 -26 19 -7 -6 -14 -20 -16 -32 -4 -29 -52
-35 -79 -11 -15 14 -24 15 -44 6 -17 -8 -42 -8 -82 -2 -32 6 -60 10 -62 10 -2
0 2 6 8 14 9 11 6 17 -14 30 -22 14 -26 15 -31 2 -6 -16 -86 -32 -219 -42 -49
-3 -130 -15 -180 -26 -127 -28 -193 -36 -266 -31 -92 6 -107 0 -101 -37 5 -35
-13 -86 -35 -94 -26 -10 -55 13 -53 42 4 55 0 73 -12 66 -7 -4 -28 -10 -48
-14 -26 -4 -38 -13 -49 -35 -19 -39 -38 -58 -52 -49 -7 4 -10 -1 -7 -12 2 -11
13 -20 26 -22 22 -3 30 -26 12 -37 -5 -3 -10 -14 -10 -25 0 -21 -29 -35 -44
-20 -5 5 -27 10 -47 10 -21 0 -41 5 -44 10 -3 6 -21 10 -38 10 -20 0 -39 8
-50 20 -9 11 -23 20 -31 20 -8 0 -20 8 -25 18 -6 9 -11 12 -11 5 0 -7 -6 -10
-14 -7 -8 3 -17 0 -21 -6 -4 -7 -11 -8 -18 -1 -14 11 -165 40 -222 42 -53 2
-128 -14 -161 -35 -29 -20 -54 -72 -54 -115 0 -24 -5 -31 -28 -35 -15 -4 -39
-17 -53 -29 -33 -28 -133 -149 -179 -217 -19 -29 -42 -59 -51 -69 -9 -9 -35
-50 -59 -91 -24 -41 -50 -83 -58 -93 -20 -22 -32 -44 -82 -147 -23 -47 -53
-107 -66 -133 -13 -27 -24 -53 -24 -58 0 -5 -13 -37 -29 -71 -53 -118 -102
-279 -160 -528 -54 -232 -87 -706 -62 -905 14 -117 41 -266 51 -285 4 -9 11
-30 14 -48 9 -38 24 -50 33 -25 14 37 57 66 96 66 41 -1 47 -4 47 -21 0 -10 6
-26 13 -36 13 -17 15 -15 36 24 38 74 41 75 133 57 44 -9 83 -19 87 -22 3 -4
6 -21 6 -38 0 -23 -7 -38 -27 -53 -40 -30 -70 -72 -62 -85 4 -7 3 -9 -3 -6 -6
4 -20 -2 -33 -13 -12 -10 -38 -24 -59 -31 -157 -50 -250 -138 -221 -209 7 -16
17 -30 22 -30 5 0 19 -9 31 -21 12 -11 30 -18 39 -15 10 2 16 1 13 -4 -6 -10
14 -18 90 -35 33 -7 105 -25 160 -39 55 -14 113 -26 129 -26 23 0 46 -18 119
-95 49 -52 97 -95 107 -95 10 0 39 -12 64 -28 26 -15 56 -32 67 -38 10 -6 16
-14 12 -18 -20 -20 77 31 104 54 17 15 47 33 67 40 20 6 38 20 41 31 5 14 12
18 23 13 46 -19 57 -15 85 31 23 36 27 49 17 60 -18 21 -4 49 32 64 37 16 44
18 57 20 5 0 11 9 15 19 9 29 119 199 152 236 23 26 28 36 18 40 -20 8 -17 42
5 85 11 20 22 49 26 64 9 42 70 65 167 63 42 0 74 1 72 3 -9 9 52 41 79 41 46
0 107 -36 107 -64 0 -19 4 -23 18 -19 14 3 23 -5 36 -32 10 -20 15 -43 13 -53
-4 -16 -5 -16 -6 1 -1 20 -17 23 -25 5 -3 -7 -5 -2 -4 12 4 41 -8 50 -42 34
-16 -9 -34 -12 -40 -9 -6 4 -20 -5 -32 -20 -19 -24 -26 -27 -64 -21 -24 3 -46
1 -49 -4 -3 -6 -2 -10 3 -10 5 0 12 -13 14 -29 3 -20 -1 -32 -14 -40 -10 -6
-18 -20 -18 -30 0 -23 -16 -37 -52 -46 -15 -4 -30 -15 -33 -25 -3 -10 -19 -20
-36 -24 -22 -4 -29 -10 -26 -21 4 -8 2 -17 -4 -20 -18 -11 -3 -74 25 -106 l27
-30 -20 -64 c-23 -72 -28 -130 -9 -119 8 5 9 0 6 -14 -5 -18 -2 -22 15 -22 12
0 29 -5 37 -10 13 -8 11 -11 -7 -16 -13 -4 -23 -10 -23 -15 0 -5 -8 -9 -17 -9
-14 -1 -12 -4 7 -15 37 -21 51 -18 63 15 7 18 23 34 42 41 16 6 61 25 98 42
52 23 73 28 85 20 12 -7 27 -3 61 19 25 15 51 28 59 28 11 0 13 9 9 36 -4 21
-1 42 6 51 35 43 58 63 68 58 15 -10 39 15 39 41 0 13 5 24 11 24 5 0 8 4 4 9
-3 5 -1 12 5 16 5 3 10 1 10 -5 0 -6 5 -8 10 -5 6 3 10 -5 10 -19 0 -14 -4
-28 -10 -31 -18 -11 -11 -24 17 -31 30 -8 53 -26 53 -43 0 -16 -14 -13 -43 9
-14 11 -34 20 -44 20 -16 0 -19 -8 -19 -54 1 -30 3 -53 6 -51 3 2 16 -12 30
-31 32 -47 73 -68 121 -60 35 6 40 4 63 -30 20 -30 23 -40 14 -60 -9 -20 -8
-28 10 -47 12 -13 20 -26 17 -29 -3 -3 19 -26 50 -52 30 -26 55 -56 55 -66 0
-9 6 -23 14 -29 8 -7 18 -27 22 -44 3 -18 15 -43 26 -57 l20 -25 -7 25 c-8 34
17 69 37 52 8 -6 17 -9 20 -7 3 3 8 -14 12 -37 6 -36 4 -46 -13 -60 -12 -9
-21 -24 -21 -35 1 -17 1 -17 12 2 27 45 71 63 106 41 23 -14 12 -33 -28 -51
-27 -12 -39 -23 -35 -33 3 -8 -8 -26 -25 -42 -16 -15 -30 -35 -30 -43 0 -8 -8
-17 -19 -20 -16 -4 -18 -12 -13 -55 4 -49 3 -53 -33 -88 l-38 -37 -86 6 c-83
5 -141 21 -141 38 0 5 -13 15 -30 24 -28 14 -33 14 -82 -10 -28 -14 -57 -25
-64 -25 -16 0 -24 26 -19 63 2 15 -1 27 -6 27 -5 0 -9 -9 -9 -19 0 -29 -86
-85 -130 -84 -19 0 -44 3 -55 6 -11 3 -23 6 -26 6 -3 1 -17 21 -30 46 -19 35
-29 45 -49 45 -15 0 -52 20 -90 49 -36 27 -69 47 -73 44 -4 -3 -20 7 -34 21
-14 14 -29 26 -33 26 -4 0 -11 11 -14 25 -4 14 -11 25 -16 25 -6 0 -10 11 -10
25 0 22 2 24 24 14 31 -14 69 12 82 56 10 33 27 37 32 6 2 -13 9 -17 22 -14
14 4 21 -2 26 -21 3 -14 11 -26 16 -26 6 0 7 35 2 93 -4 50 -7 98 -7 106 0 10
-11 12 -44 8 -34 -4 -46 -1 -51 11 -3 9 0 18 6 20 8 2 2 16 -14 38 -15 18 -30
32 -34 29 -12 -7 -40 24 -40 44 0 10 -15 24 -35 34 -39 19 -80 23 -70 7 3 -6
-5 -10 -19 -10 -16 0 -39 14 -62 38 l-36 37 6 -30 c5 -23 2 -36 -14 -53 l-21
-23 21 -17 c11 -9 33 -41 48 -71 15 -30 36 -59 46 -65 52 -30 56 -40 39 -103
-9 -32 -27 -70 -41 -86 l-26 -27 25 -28 c36 -39 37 -84 4 -102 -38 -20 -79 -3
-83 35 -6 53 -52 64 -53 13 0 -24 -2 -28 -7 -15 -9 21 -62 58 -73 51 -13 -8
48 -95 99 -142 35 -32 48 -40 50 -28 6 30 37 16 60 -26 26 -50 27 -59 7 -52
-12 5 -14 0 -9 -24 4 -19 1 -34 -9 -43 -13 -13 -12 -49 2 -49 4 0 16 7 27 15
28 21 60 18 76 -7 20 -32 48 -150 42 -175 -7 -25 29 -66 54 -61 18 3 35 65 21
74 -5 3 -6 11 -2 17 4 7 7 21 5 32 -1 13 4 8 15 -13 11 -20 22 -31 31 -27 8 3
11 0 8 -7 -3 -7 -9 -21 -12 -31 -4 -10 -13 -16 -20 -13 -15 6 -17 1 -8 -31 4
-13 10 -23 14 -23 5 0 6 8 3 19 -3 12 3 24 16 33 24 17 33 46 32 96 -2 45 16
40 20 -6 7 -66 0 -104 -18 -98 -11 4 -13 2 -9 -9 3 -8 9 -22 13 -32 4 -11 3
-14 -5 -9 -7 4 -12 2 -12 -3 0 -6 4 -11 9 -11 6 0 9 -12 8 -26 -2 -29 32 -61
70 -67 12 -2 32 -12 44 -23 l23 -19 -20 27 c-17 25 -34 33 -58 29 -19 -4 -33
22 -34 64 0 25 4 43 9 39 5 -3 9 -1 9 5 0 5 -5 11 -11 13 -9 3 -9 10 0 26 9
17 9 22 0 22 -7 0 -9 3 -6 6 4 4 13 1 22 -6 12 -10 13 -15 3 -28 -11 -13 -10
-14 8 -4 19 10 21 9 18 -13 -2 -20 2 -25 21 -25 29 0 81 -42 71 -58 -10 -16
-46 7 -39 25 3 7 -2 13 -10 13 -18 0 -16 -41 3 -82 13 -28 21 -32 49 -28 12 1
13 -1 2 -13 -15 -19 -8 -23 59 -32 63 -8 133 -26 140 -36 9 -12 109 -57 143
-64 18 -4 36 -10 42 -13 5 -3 23 -7 40 -9 16 -1 55 -5 85 -9 88 -11 104 -11
116 -2 14 10 55 -4 73 -25 6 -9 14 -34 16 -57 3 -22 11 -48 20 -56 15 -15 18
-12 16 16 -1 8 18 37 41 63 31 35 54 51 82 57 47 10 56 7 56 -25 0 -25 35 -65
57 -65 7 0 15 -11 19 -25 3 -13 9 -24 13 -23 42 5 62 -4 67 -32 6 -29 7 -29
23 -9 9 11 27 25 41 32 15 8 27 24 31 46 8 39 35 63 91 82 38 12 47 26 28 45
-7 7 -4 16 10 29 19 17 20 17 27 -1 4 -10 2 -19 -5 -22 -7 -2 -10 -8 -6 -13 3
-5 2 -14 -2 -20 -3 -6 -7 -31 -9 -56 -2 -28 -10 -52 -24 -67 -28 -30 -27 -36
8 -36 53 0 91 -20 109 -59 9 -20 24 -36 32 -36 12 0 14 -13 12 -66 -5 -81 8
-90 67 -51 55 37 121 101 121 117 0 18 79 92 127 119 21 12 57 27 80 34 23 7
49 22 58 35 12 17 15 18 15 5 0 -9 -7 -21 -16 -26 -13 -7 -14 -11 -4 -17 22
-14 74 53 75 97 1 22 9 48 20 61 15 17 19 38 20 95 0 49 4 75 13 81 10 6 2 18
-32 46 -25 20 -46 40 -46 44 0 3 19 7 43 8 133 6 158 14 131 44 -9 10 -23 19
-29 19 -16 0 -31 19 -39 50 -6 19 -5 21 3 10 6 -8 11 -10 11 -5 0 6 5 3 10 -5
8 -12 10 -12 10 -1 0 11 3 11 15 1 13 -11 15 -8 15 16 0 27 3 29 45 32 38 2
47 -1 61 -24 10 -14 20 -21 23 -16 3 5 15 13 25 19 18 10 16 11 -12 18 -18 3
-34 10 -37 15 -7 11 22 27 59 34 15 3 34 10 41 16 19 16 165 41 197 34 21 -4
28 -11 28 -30 0 -13 -6 -24 -13 -24 -7 0 -21 -10 -31 -21 -18 -21 -18 -22 16
-16 18 2 40 1 48 -3 8 -4 38 -1 65 6 28 8 84 13 125 13 107 -2 120 -1 120 15
0 7 10 17 23 21 19 6 19 8 5 12 -10 2 -18 8 -18 12 0 5 -13 11 -30 15 -21 4
-30 11 -30 25 0 11 14 36 30 54 48 55 40 69 -23 42 -49 -20 -64 -19 -73 7 -5
18 2 30 42 65 27 23 57 45 67 49 11 3 17 16 17 34 0 43 20 80 44 80 15 0 6 14
-43 60 -35 33 -67 60 -72 60 -4 0 -19 10 -31 23 -13 13 -33 29 -43 35 -16 9
-17 14 -7 20 17 12 -62 72 -93 72 -12 0 -36 11 -55 25 -19 14 -42 25 -51 25
-10 0 -21 5 -24 10 -3 6 -16 10 -29 10 -12 0 -41 9 -64 20 -22 11 -48 20 -57
20 -8 0 -15 5 -15 11 0 5 -4 8 -9 4 -5 -3 -12 -1 -16 5 -3 5 -17 10 -30 10
-13 0 -27 5 -31 12 -5 7 -3 8 6 3 8 -5 11 -4 6 3 -4 6 -13 9 -20 6 -7 -3 -19
3 -27 12 -12 16 -12 17 1 9 12 -7 13 -6 3 7 -7 8 -11 17 -9 19 2 2 -12 5 -32
7 -20 1 -38 6 -42 10 -3 4 -18 13 -34 20 -23 10 -26 15 -16 27 7 8 9 15 4 15
-17 0 151 79 169 80 19 0 23 26 5 33 -7 2 -10 8 -5 12 4 5 21 -2 38 -14 17
-12 37 -20 46 -17 9 4 23 1 31 -6 12 -10 14 -10 8 0 -5 9 3 12 28 12 20 0 36
-4 36 -9 0 -5 33 -17 73 -26 39 -10 80 -22 90 -27 17 -9 18 -7 11 14 -4 12 -8
37 -9 53 0 27 3 30 28 28 l28 -2 -6 55 c-9 64 5 100 62 162 29 32 48 43 80 48
72 11 69 -25 -13 -140 -19 -27 -39 -69 -45 -92 -12 -45 -25 -54 -47 -32 -19
19 -14 -2 7 -29 16 -20 18 -29 9 -49 -6 -13 -20 -24 -30 -24 -34 0 -14 -21 42
-45 91 -37 105 -38 118 -10 7 14 20 25 31 25 19 0 104 -65 150 -115 30 -33 57
-29 54 8 -1 21 3 27 18 27 18 0 19 9 19 195 0 163 -2 195 -14 195 -17 0 -46
38 -46 60 0 9 14 21 30 27 l30 11 0 249 c-1 264 -4 283 -49 283 -22 0 -28 19
-12 36 5 5 11 20 13 34 2 17 10 26 26 28 l22 3 0 294 0 294 -27 20 c-23 19
-25 24 -15 46 13 29 -1 34 -28 10 -41 -37 -83 21 -54 77 16 31 18 74 5 82 -5
4 -8 14 -7 23 3 21 66 84 78 77 4 -3 17 -3 28 1 18 6 19 18 20 285 0 240 -2
280 -14 280 -8 0 -18 -4 -21 -10 -8 -13 -25 -13 -25 1 0 5 4 8 9 5 5 -3 11 1
15 9 3 8 1 17 -4 20 -6 4 -10 13 -10 22 0 12 7 9 25 -11 l25 -27 0 375 0 374
-36 64 c-32 57 -66 95 -149 169 -17 14 -39 38 -50 53 l-20 27 -25 -23 c-39
-36 -80 -59 -91 -53 -5 4 -8 1 -7 -7 3 -13 -2 -13 -77 -8 -16 1 -49 -3 -73
-10 -55 -16 -73 -3 -48 34 19 30 21 45 4 28 -7 -7 -20 -12 -30 -12 -11 0 -18
-7 -18 -19 0 -21 54 -93 64 -84 3 3 15 -2 26 -12 20 -18 22 -18 67 4 25 12 49
18 52 13 12 -18 39 -20 55 -4 8 9 24 27 36 40 23 26 94 31 125 8 17 -12 17
-13 -9 -18 -18 -4 -29 -1 -33 8 -3 8 -9 11 -15 8 -5 -3 -4 -12 4 -22 10 -12
10 -14 1 -8 -7 4 -13 2 -13 -3 0 -6 7 -11 15 -11 11 0 12 -6 6 -22 -13 -35
-31 -34 -31 1 0 17 -1 31 -3 31 -2 0 -26 -11 -53 -25 -27 -14 -55 -25 -61 -25
-16 0 -17 -37 -2 -96 10 -40 9 -49 -17 -102 -16 -31 -29 -58 -30 -60 0 -1 -14
4 -30 13 -16 8 -35 28 -42 44 -7 17 -27 37 -44 45 l-30 15 7 -27 c4 -15 9 -56
11 -91 1 -35 7 -68 12 -73 12 -12 35 -1 27 13 -3 5 1 6 9 3 18 -7 40 -69 30
-85 -4 -8 -3 -9 4 -5 17 10 15 -20 -3 -37 -8 -8 -12 -17 -10 -19 3 -2 -9 -17
-25 -33 -16 -16 -32 -26 -35 -23 -3 3 -6 33 -8 67 -1 33 -5 61 -9 61 -5 0 -8
-3 -9 -7 -2 -27 -11 -62 -20 -85 -6 -15 -12 -62 -13 -105 -2 -79 -20 -131 -56
-163 -9 -8 -30 -35 -47 -60 -17 -25 -40 -56 -52 -70 -32 -38 -36 -45 -39 -60
-1 -8 -19 -30 -40 -49 -36 -32 -39 -33 -104 -28 -37 3 -70 2 -73 -3 -3 -4 -1
-10 4 -12 6 -2 4 -13 -3 -25 -11 -21 -13 -22 -34 -7 -15 11 -22 25 -22 50 0
29 -3 34 -24 34 -12 0 -35 11 -51 25 -28 27 -41 24 -72 -15 -37 -47 -37 -53
10 -151 51 -109 90 -191 95 -201 2 -5 -19 -8 -47 -8 -28 0 -51 -2 -51 -5 0 -3
7 -21 14 -40 15 -35 15 -35 -12 -35 -15 0 -37 7 -49 15 -22 16 -83 150 -83
184 0 18 -3 19 -25 9 -15 -7 -25 -19 -25 -33 0 -24 -34 -65 -54 -65 -7 0 -28
5 -46 11 -31 11 -32 13 -28 60 4 33 1 50 -8 53 -9 3 -10 15 -4 40 8 38 2 48
-37 60 -13 4 -23 3 -23 -3 0 -5 8 -11 18 -14 12 -3 10 -6 -11 -12 -21 -5 -33
-3 -48 11 -17 15 -22 16 -29 4 -5 -8 -6 -18 -3 -24 3 -5 -1 -14 -10 -20 -8 -7
-25 -31 -37 -54 -35 -68 -90 -83 -136 -37 -21 21 -23 28 -14 46 19 35 43 58
54 52 6 -3 8 -3 4 2 -4 4 -3 14 3 22 6 7 7 13 2 13 -5 0 -19 -14 -32 -31 -19
-25 -25 -28 -38 -18 -28 24 -36 60 -16 74 16 12 16 14 -7 34 -14 11 -29 20
-33 21 -5 0 -6 4 -2 10 3 5 -11 26 -32 47 -57 57 -75 90 -64 111 6 11 6 33 1
56 -8 38 -20 60 -20 38 0 -21 -16 -13 -28 13 -17 37 -15 59 8 80 11 10 20 22
20 27 0 4 9 17 21 29 20 20 21 56 3 104 -3 8 3 22 15 31 15 13 17 22 10 35 -5
10 -14 30 -19 44 -9 23 -8 26 5 21 8 -3 22 -9 30 -12 10 -4 15 0 15 11 0 14 6
15 33 10 17 -4 44 -14 59 -21 15 -8 38 -14 51 -14 13 0 38 -11 57 -25 19 -14
41 -25 50 -25 23 0 82 -46 98 -76 13 -24 12 -26 -17 -37 -25 -9 -30 -16 -25
-32 4 -11 11 -21 15 -23 5 -2 9 -13 9 -25 0 -18 2 -19 10 -7 5 8 10 10 10 5 0
-6 10 -15 23 -20 20 -9 23 -7 33 35 6 25 7 53 2 62 -11 23 1 49 21 46 11 -2
16 5 16 25 1 16 7 33 15 38 13 8 11 13 -9 29 -32 27 -41 25 -41 -11 l0 -31
-36 43 c-62 75 -70 126 -27 171 l26 28 -22 43 c-12 23 -32 47 -44 52 -15 7
-22 19 -22 38 1 31 -3 32 -41 12 -31 -16 -57 -4 -37 16 9 9 8 18 -4 35 -14 22
-14 24 0 24 9 0 18 13 22 30 4 19 21 40 46 57 21 16 39 33 39 38 0 28 -51 176
-74 215 -15 25 -33 59 -40 75 -8 17 -25 39 -38 51 -32 28 -122 84 -137 84 -6
0 -20 -15 -31 -32z m-724 -403 c-9 -24 -28 -18 -21 6 5 14 3 19 -3 15 -6 -4
-8 2 -5 14 l6 21 14 -21 c8 -12 12 -27 9 -35z m-60 19 c-4 -9 -9 -15 -11 -12
-3 3 -3 13 1 22 4 9 9 15 11 12 3 -3 3 -13 -1 -22z m267 -21 c4 -2 7 -11 7
-19 0 -18 2 -17 47 1 46 19 137 20 152 1 9 -10 9 -16 1 -21 -6 -4 -9 -13 -6
-21 4 -11 -5 -14 -37 -14 -23 0 -60 -6 -82 -12 -22 -6 -75 -12 -117 -12 -69
-1 -77 1 -82 19 -4 12 1 25 11 32 9 7 14 16 10 19 -3 4 -2 15 4 26 8 15 17 17
47 12 20 -4 40 -9 45 -11z m-263 -65 c28 -35 65 -79 81 -98 35 -41 40 -94 10
-110 -33 -17 -52 -11 -63 21 -7 20 -15 28 -25 25 -8 -3 -11 -2 -8 4 3 5 -17
31 -44 58 -74 73 -88 162 -26 162 16 0 38 -18 75 -62z m770 58 c0 -2 -8 -10
-17 -17 -16 -13 -17 -12 -4 4 13 16 21 21 21 13z m-213 -13 c-4 -3 -2 -12 4
-20 9 -10 7 -13 -8 -13 -11 0 -23 3 -26 7 -8 8 12 33 26 33 6 0 7 -3 4 -7z
m-527 -13 c0 -5 -5 -10 -11 -10 -5 0 -7 5 -4 10 3 6 8 10 11 10 2 0 4 -4 4
-10z m46 -47 c-11 -11 -17 4 -9 23 7 18 8 18 11 1 2 -10 1 -21 -2 -24z m832
24 c36 -24 -10 -97 -61 -97 -25 0 -29 -3 -24 -22 l6 -23 -20 24 c-25 31 -24
39 9 54 50 22 71 68 27 59 -14 -2 -25 -7 -25 -11 0 -13 -67 -40 -111 -44 -40
-4 -46 -2 -42 13 9 35 200 73 241 47z m-248 -47 c-1 -15 -17 -29 -32 -26 -23
3 -31 12 -24 25 7 11 56 12 56 1z m-130 -55 c0 -17 -2 -17 -10 -5 -5 8 -10 24
-10 35 0 17 2 17 10 5 5 -8 10 -24 10 -35z m-1523 9 c16 -3 20 -9 16 -25 -4
-16 -8 -17 -14 -7 -7 11 -14 10 -40 -5 -37 -20 -34 -21 -42 19 -6 29 -5 30 26
27 18 -2 42 -6 54 -9z m1433 -26 c0 -13 -9 -34 -20 -48 -11 -14 -20 -31 -20
-37 0 -7 -6 -13 -14 -13 -8 0 -23 -10 -33 -22 -28 -35 -81 -58 -143 -62 -63
-3 -18 85 71 139 31 19 62 42 69 50 7 9 29 15 51 15 34 0 39 -3 39 -22z
m-1219 -5 c13 -17 13 -17 -6 -3 -11 8 -22 16 -24 17 -2 2 0 3 6 3 6 0 17 -8
24 -17z m120 -14 c6 -12 7 -19 2 -17 -4 3 -16 8 -26 11 -10 4 -15 11 -12 17
10 16 23 12 36 -11z m3105 -14 c-11 -8 -29 -15 -40 -15 -17 1 -15 4 9 15 40
18 55 18 31 0z m-3161 -31 c33 -30 70 -83 79 -112 4 -11 20 -37 37 -58 38 -48
29 -54 -79 -51 -66 2 -82 5 -92 21 -8 13 -9 21 -1 25 13 8 16 66 6 104 -5 18
-3 27 5 27 6 0 10 8 9 18 -2 23 0 52 5 52 1 0 16 -12 31 -26z m1582 11 c0 -8
-4 -12 -9 -9 -5 3 -6 10 -3 15 9 13 12 11 12 -6z m-180 -247 c-3 -8 -6 -5 -6
6 -1 11 2 17 5 13 3 -3 4 -12 1 -19z m-180 -41 c26 -21 83 -77 83 -82 0 -3
-11 -3 -25 1 -27 7 -54 -13 -47 -35 3 -8 -14 -32 -38 -53 -36 -33 -41 -43 -35
-66 12 -46 17 -128 7 -114 -18 26 -22 -16 -12 -136 10 -129 17 -162 33 -162 6
0 8 3 4 6 -10 10 25 42 42 37 15 -4 17 6 18 69 1 40 -3 79 -9 85 -12 15 -1 66
12 58 6 -4 13 1 16 9 3 9 10 16 16 16 5 0 7 -4 3 -9 -3 -5 -1 -12 5 -16 5 -3
10 -17 10 -29 0 -15 7 -26 19 -29 15 -4 18 1 17 27 -1 19 -8 32 -17 34 -8 1
-20 21 -26 43 -10 37 -8 43 13 66 28 30 30 43 9 43 -21 0 -19 76 3 118 16 30
19 31 37 18 26 -19 45 -4 46 38 l1 31 9 -30 c6 -20 5 -31 -4 -37 -6 -4 -8 -10
-5 -14 10 -10 -31 -116 -56 -142 -19 -21 -19 -25 -6 -35 22 -17 43 -72 36 -94
-4 -13 2 -27 19 -43 14 -13 25 -28 25 -34 1 -6 11 -24 24 -39 34 -42 18 -107
-25 -107 -16 0 -19 -8 -19 -45 0 -25 -4 -45 -10 -45 -12 0 -11 -2 -15 70 -1
30 -3 69 -4 85 -1 23 -3 27 -11 15 -5 -8 -10 -27 -10 -42 0 -46 -10 -58 -46
-58 -19 0 -34 -2 -34 -5 0 -11 43 -96 51 -101 31 -19 -23 -120 -57 -107 -49
19 48 -125 149 -221 64 -60 117 -102 117 -91 0 3 11 -2 25 -11 23 -15 27 -15
75 13 l50 29 -34 12 c-20 8 -36 21 -40 34 -3 12 -4 23 -3 24 1 1 19 13 39 27
l38 25 -20 25 c-11 14 -20 32 -20 40 0 22 57 60 80 54 13 -3 20 2 24 19 5 19
13 24 38 24 17 0 37 -8 45 -17 41 -51 73 -110 73 -134 0 -16 11 -40 25 -55 29
-31 29 -31 13 -104 -11 -46 -22 -64 -71 -113 -32 -32 -70 -62 -83 -67 -22 -9
-24 -15 -24 -71 0 -54 -3 -64 -29 -90 -17 -16 -40 -29 -54 -29 -23 0 -198 71
-260 106 -15 8 -40 17 -55 20 -15 3 -34 13 -44 24 -23 28 -28 25 -21 -10 4
-21 1 -36 -10 -48 -15 -17 -17 -21 -17 -43 0 -5 -5 -7 -12 -3 -8 5 -9 0 -6
-14 5 -16 2 -22 -10 -22 -10 0 -28 -9 -42 -20 l-25 -20 24 -20 c29 -25 23 -70
-10 -70 -11 0 -17 5 -14 10 3 6 0 17 -8 25 -9 8 -17 20 -20 27 -4 10 -7 11
-18 1 -11 -11 -10 -13 4 -13 15 0 16 -3 6 -21 l-11 -21 -19 21 c-22 24 -24 31
-6 31 17 0 69 79 61 92 -4 7 -13 3 -23 -10 -9 -11 -27 -23 -41 -27 -14 -3 -20
-3 -14 2 6 4 14 17 17 27 6 14 4 16 -5 9 -7 -6 -28 -13 -47 -17 -29 -5 -32 -4
-21 9 7 8 16 15 20 15 11 0 80 65 80 75 0 5 -10 -1 -22 -13 -28 -25 -78 -46
-78 -32 0 6 -7 10 -15 10 -8 0 -14 -6 -12 -12 3 -18 -63 -14 -74 4 -13 20 -11
38 6 38 9 0 14 8 12 23 -2 17 7 26 43 43 25 12 51 27 58 33 9 9 12 8 12 -4 0
-17 16 -20 25 -5 4 6 15 6 31 0 34 -13 37 -13 31 5 -4 8 -2 17 3 20 6 4 10 16
10 29 0 21 -4 23 -42 21 -24 -2 -50 -4 -58 -6 -14 -4 -16 1 -19 44 0 10 -5 16
-11 12 -5 -3 -6 -13 -3 -22 5 -12 3 -14 -6 -8 -10 5 -12 1 -7 -16 3 -13 3 -18
0 -11 -3 6 -10 10 -15 6 -11 -6 -12 29 -2 40 12 12 12 70 0 78 -6 4 -23 5 -37
4 -14 -2 -17 -1 -7 1 20 5 23 33 3 33 -8 0 -16 6 -19 14 -3 8 -16 16 -29 18
l-23 3 23 23 c29 29 56 30 49 1 -3 -12 0 -28 9 -36 12 -13 14 -11 14 9 0 13 7
32 15 42 19 25 19 50 -1 103 -13 33 -23 43 -46 48 -21 5 -34 16 -44 41 -18 44
-18 44 11 44 28 0 32 12 12 32 -7 7 -13 22 -14 33 0 11 -8 56 -18 100 -15 66
-16 101 -10 200 11 170 9 205 -18 233 -15 16 -16 21 -6 17 12 -4 18 1 21 17 3
13 9 31 13 41 5 13 3 16 -8 11 -8 -3 -18 -1 -21 5 -13 21 14 46 73 69 55 21
62 22 89 8 25 -13 28 -19 24 -47 -4 -30 -3 -32 19 -26 13 4 44 7 69 7 49 1 49
-1 -15 46 -20 15 -20 15 5 34 26 21 58 20 87 -3z m-1744 -49 c20 -24 32 -44
27 -46 -6 -2 -10 -26 -10 -53 0 -54 -6 -58 -60 -35 -24 10 -28 15 -16 19 22 9
20 33 -3 49 -14 10 -21 29 -23 66 -6 77 20 77 85 0z m878 -60 c8 -15 8 -18 0
-14 -6 4 -16 16 -22 28 -8 15 -8 18 0 14 6 -4 16 -16 22 -28z m2569 -28 c0 -5
-4 -10 -10 -10 -5 0 -10 5 -10 10 0 6 5 10 10 10 6 0 10 -4 10 -10z m-3920
-22 c0 -6 -6 -5 -15 2 -8 7 -15 14 -15 16 0 2 7 1 15 -2 8 -4 15 -11 15 -16z
m155 -108 l29 -19 -28 3 c-16 2 -33 10 -38 19 -12 22 0 21 37 -3z m1718 6 c3
-8 -1 -17 -9 -20 -8 -3 -14 -4 -14 -2 0 3 -3 11 -6 20 -4 10 -1 16 9 16 8 0
17 -6 20 -14z m-1283 -24 c0 -15 -2 -15 -10 -2 -13 20 -13 33 0 25 6 -3 10
-14 10 -23z m3571 5 c35 -26 9 -137 -32 -137 -10 0 -25 8 -34 17 -22 22 -14
77 16 109 26 27 28 28 50 11z m-2466 -144 c0 -66 3 -67 48 -16 33 37 43 40 69
16 22 -20 23 -61 1 -92 -14 -21 -14 -25 -1 -35 8 -6 18 -35 22 -64 6 -46 3
-59 -20 -101 -28 -49 -28 -81 1 -81 8 0 15 6 15 14 0 15 34 31 48 22 4 -2 7
-22 7 -43 0 -29 -4 -39 -20 -41 -26 -6 -64 -31 -75 -52 -8 -14 -5 -16 14 -13
21 4 24 1 23 -24 -1 -15 -8 -34 -14 -41 -15 -16 -17 -62 -3 -62 6 0 10 7 10
15 0 8 9 15 19 15 17 0 18 -4 11 -31 -11 -39 -13 -41 -33 -34 -8 4 -20 26 -26
51 -7 27 -17 44 -26 44 -9 0 -12 6 -9 15 8 20 -20 20 -36 0 -7 -8 -16 -12 -21
-9 -13 7 -49 -5 -49 -17 0 -6 9 -8 20 -4 15 5 21 0 26 -20 3 -14 2 -31 -4 -38
-17 -20 3 -180 25 -202 7 -8 16 -29 19 -47 4 -18 20 -47 36 -65 17 -17 28 -35
25 -40 -3 -5 10 -24 28 -42 38 -35 40 -44 24 -110 -7 -32 -6 -47 3 -58 10 -13
6 -14 -28 -8 -21 4 -45 14 -51 23 -12 14 -13 14 -13 -4 0 -17 -3 -16 -20 6
-11 14 -20 19 -20 12 0 -7 9 -20 20 -29 24 -21 26 -49 5 -57 -11 -4 -15 2 -15
20 0 15 -4 23 -11 19 -5 -4 -9 -18 -7 -33 4 -33 -17 -40 -33 -10 -14 27 -35
45 -67 58 -20 9 -21 13 -11 31 16 31 6 102 -21 139 -23 32 -21 45 8 45 11 0
18 9 20 25 2 18 0 21 -6 11 -16 -23 -26 8 -12 35 10 18 16 21 27 13 10 -9 14
-7 20 7 3 11 11 22 17 26 7 5 7 8 -1 8 -7 0 -13 7 -13 15 0 8 -4 15 -9 15 -10
0 -2 48 10 56 5 3 9 21 9 40 0 37 -18 45 -40 19 -7 -8 -18 -15 -25 -15 -8 0
-15 -6 -17 -14 -2 -10 -9 -11 -27 -5 -21 8 -23 14 -19 52 5 42 4 44 -26 53
-29 9 -31 11 -28 54 5 87 53 315 72 342 19 26 39 115 45 196 2 35 9 50 40 78
55 50 70 43 70 -33z m2658 53 c19 -15 23 -31 5 -20 -9 5 -9 2 1 -9 18 -23 -2
-22 -21 1 -35 41 -26 59 15 28z m57 -82 c0 -8 -4 -14 -10 -14 -5 0 -10 9 -10
21 0 11 5 17 10 14 6 -3 10 -13 10 -21z m-190 -19 c7 -9 8 -15 2 -15 -5 0 -12
7 -16 15 -3 8 -4 15 -2 15 2 0 9 -7 16 -15z m55 -24 c3 -5 1 -12 -5 -16 -5 -3
-10 1 -10 9 0 18 6 21 15 7z m39 -50 c9 -15 -23 -36 -36 -23 -5 5 -7 15 -4 21
9 13 33 14 40 2z m-3936 -26 c14 -29 -2 -34 -18 -6 -12 24 -13 31 -2 31 5 0
14 -11 20 -25z m3422 -11 c0 -14 -12 -19 -23 -8 -9 9 4 35 14 28 5 -3 9 -12 9
-20z m35 -4 c3 -5 1 -10 -4 -10 -6 0 -11 5 -11 10 0 6 2 10 4 10 3 0 8 -4 11
-10z m-3635 -31 c0 -16 -7 -19 -40 -19 -33 0 -40 -3 -40 -19 0 -16 9 -20 55
-23 46 -2 56 0 61 15 3 10 21 26 40 35 30 14 39 14 67 2 18 -7 55 -14 82 -15
32 0 60 -7 75 -19 l25 -18 -28 5 c-24 4 -26 2 -15 -12 7 -9 18 -19 25 -24 7
-4 10 -14 6 -23 -5 -13 -7 -13 -22 0 -9 8 -28 18 -43 21 -22 6 -28 4 -28 -9 0
-10 -8 -16 -21 -16 -11 0 -29 -5 -40 -11 -15 -7 -24 -7 -35 2 -8 6 -14 7 -14
2 0 -5 9 -16 20 -26 17 -14 20 -14 20 -2 0 8 9 15 20 15 12 0 20 -7 20 -16 0
-14 -3 -14 -15 -4 -12 10 -15 9 -16 -6 0 -11 -2 -48 -4 -84 -5 -86 0 -93 59
-85 45 7 47 9 41 33 -6 23 -4 24 10 12 9 -7 25 -30 36 -49 18 -34 19 -34 13
-7 -5 22 -4 27 6 21 17 -10 8 -154 -13 -211 -20 -54 -25 -140 -9 -136 15 3 15
-4 2 -29 -14 -24 7 -144 30 -179 10 -14 21 -52 25 -84 7 -62 21 -102 42 -124
7 -7 13 -18 13 -23 0 -12 -37 -12 -45 0 -3 5 -67 10 -142 10 -110 1 -138 4
-147 17 -14 18 -50 8 -42 -12 8 -21 -19 -35 -76 -39 -29 -1 -100 -10 -158 -19
-57 -8 -106 -13 -109 -11 -2 3 3 5 12 5 9 0 19 5 23 12 5 8 0 9 -14 6 -23 -6
-31 7 -9 15 8 3 3 12 -13 25 -14 12 -31 27 -38 33 -7 6 -11 18 -8 26 7 18 -19
82 -40 98 -13 9 -16 37 -17 166 -2 136 0 158 17 184 17 26 17 29 2 40 -21 16
-20 34 5 92 12 27 21 67 20 93 -1 64 8 100 24 94 9 -4 15 7 20 36 5 27 18 52
36 69 16 16 32 42 35 59 7 37 43 72 76 76 33 3 48 14 48 34 0 14 12 17 65 19
58 2 65 0 65 -18z m3548 9 c18 -18 15 -68 -3 -68 -15 0 -19 -11 -16 -39 2 -7
-2 -10 -9 -6 -7 4 -5 -6 4 -23 9 -17 16 -33 16 -37 0 -3 -17 -22 -37 -43 -36
-35 -38 -40 -35 -89 3 -51 2 -53 -22 -53 -30 0 -36 -29 -11 -50 14 -12 13 -16
-6 -37 -13 -12 -33 -23 -46 -23 -18 0 -23 6 -24 28 -1 15 -1 30 0 35 1 7 -5 9
-31 11 -7 1 -16 6 -20 11 -11 15 -10 55 2 55 6 0 10 7 10 15 0 9 9 15 25 15
14 0 25 5 25 10 0 6 -18 10 -40 10 -50 0 -64 23 -29 48 13 9 27 17 31 17 4 0
13 6 20 13 6 6 18 12 25 12 7 0 13 2 13 4 0 2 3 11 6 20 8 21 -29 22 -46 1
-12 -14 -15 -13 -35 5 -12 11 -31 20 -44 20 -20 0 -22 4 -19 38 2 21 8 36 15
35 6 -1 53 15 105 36 96 40 155 50 176 29z m44 -26 c4 -32 0 -52 -11 -52 -4 0
-8 18 -9 40 -3 45 14 55 20 12z m-15 -134 c-3 -7 -5 -2 -5 12 0 14 2 19 5 13
2 -7 2 -19 0 -25z m46 -40 c-8 -44 -10 -45 -15 -4 -3 25 0 36 9 36 9 0 11 -10
6 -32z m-2607 -106 c-3 -3 -6 1 -6 8 0 12 -3 11 -15 -1 -9 -9 -17 -35 -18 -60
0 -24 -7 -50 -14 -57 -11 -11 -13 -6 -13 27 0 22 4 51 10 65 7 21 6 26 -5 26
-20 0 -19 6 6 41 l21 30 20 -37 c10 -20 17 -39 14 -42z m2812 61 c-5 -25 -28
-28 -28 -4 0 12 6 21 16 21 9 0 14 -7 12 -17z m127 -34 c17 -17 18 -21 5 -29
-8 -6 -25 -8 -38 -5 -12 3 -21 1 -20 -4 3 -9 -2 -11 -21 -11 -11 0 -33 61 -26
69 3 3 15 -1 26 -8 24 -14 41 -5 19 10 -11 8 -9 9 10 4 14 -4 34 -16 45 -26z
m-731 -58 c17 -7 17 -8 2 -23 -9 -9 -16 -23 -16 -30 0 -8 -5 -19 -12 -26 -9
-9 -9 -12 3 -12 7 0 22 -14 32 -32 17 -30 17 -31 -4 -54 -13 -13 -33 -24 -45
-24 -34 0 -54 -10 -54 -27 0 -9 -9 -23 -19 -32 -11 -9 -19 -26 -18 -36 1 -13
-9 -26 -32 -37 -19 -9 -37 -21 -40 -25 -17 -23 -91 -45 -91 -27 0 3 18 27 40
53 45 53 55 89 15 51 -20 -18 -25 -20 -25 -8 0 12 -8 15 -26 13 -22 -2 -25 1
-21 21 3 18 -3 28 -27 42 -17 10 -37 31 -45 45 -13 25 -13 29 9 52 16 17 34
25 57 25 29 0 33 -3 33 -25 0 -14 -7 -37 -16 -50 -15 -23 -15 -25 1 -25 26 0
63 45 67 82 4 44 21 45 41 3 21 -44 21 -68 1 -107 -21 -41 -6 -53 34 -25 24
16 31 27 27 44 -8 33 11 71 47 93 29 17 30 20 11 20 -12 0 -24 4 -28 10 -8 13
33 52 46 44 6 -3 13 3 16 15 6 23 8 23 37 12z m-2574 -51 c0 -5 -5 -10 -11
-10 -5 0 -7 5 -4 10 3 6 8 10 11 10 2 0 4 -4 4 -10z m2329 1 c7 -5 9 -11 5
-14 -5 -3 -15 1 -22 9 -14 16 -5 18 17 5z m1281 -1 c0 -5 -4 -10 -10 -10 -5 0
-10 5 -10 10 0 6 5 10 10 10 6 0 10 -4 10 -10z m-708 -17 c6 -30 -4 -63 -19
-63 -8 0 -11 5 -7 13 6 10 4 10 -7 0 -21 -21 -30 -15 -23 15 10 43 49 68 56
35z m-2939 -13 c17 -8 26 -19 22 -28 -3 -8 -1 -20 3 -26 5 -6 10 -18 10 -26 2
-42 11 -71 31 -103 23 -37 21 -76 -3 -96 -15 -12 -60 15 -50 30 3 5 1 16 -5
23 -6 7 -8 21 -5 30 4 10 2 27 -4 39 -26 54 -35 130 -15 123 7 -3 13 -1 13 4
0 6 -8 10 -18 10 -11 0 -18 8 -19 21 -1 11 1 19 5 17 4 -2 20 -10 35 -18z
m2267 10 c0 -5 -4 -10 -10 -10 -5 0 -10 5 -10 10 0 6 5 10 10 10 6 0 10 -4 10
-10z m-1920 -41 c0 -3 -7 -6 -15 -6 -8 0 -15 5 -15 11 0 6 -5 3 -11 -7 -8 -14
-8 -22 0 -30 16 -16 14 -27 -4 -21 -20 8 -19 40 2 68 16 21 19 22 30 7 7 -9
13 -19 13 -22z m2999 -15 c21 -45 23 -46 37 -26 12 18 18 19 44 10 17 -5 32
-14 35 -19 9 -14 -54 -226 -87 -292 -16 -32 -23 -38 -46 -35 -23 3 -28 9 -34
47 -8 48 -27 69 -41 46 -4 -8 -19 -15 -32 -15 -14 0 -25 -4 -25 -10 0 -18 -29
-11 -40 9 -10 21 -4 51 11 51 19 0 8 17 -18 29 l-26 12 24 16 c24 17 32 25 47
51 11 18 37 6 50 -24 14 -30 45 -31 73 -3 l20 20 -24 25 c-13 13 -35 44 -48
70 l-24 45 24 20 c37 30 55 24 80 -27z m-2356 -14 c3 -13 0 -20 -9 -20 -8 0
-14 10 -14 26 0 28 15 25 23 -6z m-717 -15 c-3 -9 0 -15 9 -15 22 0 19 -47 -5
-78 -12 -15 -29 -38 -39 -52 -19 -24 -19 -25 -40 -6 -27 25 -27 58 2 92 21 24
24 25 39 10 14 -14 17 -14 22 0 3 8 2 13 -3 10 -10 -7 -23 33 -15 46 9 15 36
9 30 -7z m125 -26 c14 -20 22 -49 24 -85 4 -58 0 -67 -15 -31 -7 17 -9 18 -9
4 -1 -14 -5 -16 -18 -8 -47 28 -55 39 -48 71 5 21 11 30 21 26 10 -4 14 3 14
24 0 37 3 37 31 -1z m2569 -34 c0 -23 -3 -27 -10 -15 -5 8 -10 29 -10 45 0 23
3 27 10 15 5 -8 10 -28 10 -45z m-302 -32 c4 3 14 2 22 -3 11 -7 9 -12 -10
-28 l-23 -19 31 -14 c49 -21 38 -27 -25 -14 -57 12 -58 12 -67 -11 -6 -13 -14
-24 -19 -24 -16 0 0 96 19 118 16 19 19 19 40 5 13 -8 27 -12 32 -10z m412 10
c0 -10 -20 -40 -20 -31 0 3 -3 13 -6 22 -4 11 -1 16 10 16 9 0 16 -3 16 -7z
m-3290 -53 c0 -11 -4 -20 -10 -20 -5 0 -10 9 -10 20 0 11 5 20 10 20 6 0 10
-9 10 -20z m1495 -20 c3 -5 1 -10 -4 -10 -6 0 -11 5 -11 10 0 6 2 10 4 10 3 0
8 -4 11 -10z m1685 -30 c7 -16 13 -65 13 -109 1 -91 17 -114 36 -50 19 63 36
44 34 -36 -2 -62 -5 -71 -35 -102 -29 -30 -34 -32 -45 -17 -7 9 -17 13 -24 9
-9 -6 -10 -1 -7 19 6 30 1 32 -24 9 -15 -14 -22 -14 -42 -3 -26 13 -46 7 -46
-14 0 -7 13 -32 28 -55 25 -38 28 -48 21 -84 -5 -23 -11 -58 -14 -78 -4 -24
-12 -38 -24 -42 -10 -2 -21 -17 -24 -35 -4 -17 -15 -36 -26 -42 -17 -9 -28 -3
-69 34 -27 24 -64 49 -81 57 -42 19 -45 33 -13 65 35 35 86 56 117 48 14 -3
25 -3 25 1 0 7 -56 65 -63 65 -3 0 -10 -13 -17 -30 -7 -16 -18 -30 -25 -30
-27 0 -45 13 -45 32 0 11 -4 28 -10 38 -5 10 -11 32 -12 49 -2 22 -7 30 -16
26 -7 -2 -10 -1 -7 4 10 17 -10 19 -50 5 -45 -15 -85 -9 -85 13 0 12 41 72 76
110 20 21 81 52 118 59 20 3 47 15 61 26 20 15 28 17 45 8 12 -6 25 -21 29
-33 7 -19 9 -18 20 15 l12 37 41 -15 c51 -18 48 -18 48 6 0 66 57 95 80 40z
m-2249 -33 c-8 -8 -11 -7 -11 4 0 20 13 34 18 19 3 -7 -1 -17 -7 -23z m-469
-155 c-3 -152 -14 -190 -55 -183 -11 2 -38 -65 -32 -81 3 -8 2 -31 -3 -53 l-8
-39 -22 38 c-12 20 -22 44 -22 52 0 12 -7 14 -31 9 -30 -7 -69 14 -69 37 0 4
-15 30 -34 57 -44 62 -77 135 -83 182 -4 25 -11 39 -24 42 -11 3 -19 9 -19 14
0 13 48 32 69 26 13 -3 23 2 30 16 17 31 35 26 26 -6 -3 -15 -11 -30 -16 -34
-6 -3 11 -23 37 -44 l46 -38 -7 44 c-4 24 -11 52 -17 62 -11 21 6 30 53 25 28
-2 35 -8 43 -35 10 -35 33 -44 43 -16 17 44 69 80 88 61 6 -5 9 -61 7 -136z
m-435 101 c-3 -10 -5 -4 -5 12 0 17 2 24 5 18 2 -7 2 -21 0 -30z m73 28 c0
-12 -20 -25 -27 -18 -7 7 6 27 18 27 5 0 9 -4 9 -9z m2586 -38 c-10 -10 -19 5
-10 18 6 11 8 11 12 0 2 -7 1 -15 -2 -18z m-258 -5 c10 -10 17 -10 31 -1 15
10 20 9 25 -2 3 -8 12 -15 20 -15 10 0 12 -7 9 -21 -4 -13 0 -26 9 -33 20 -15
29 -57 16 -74 -9 -10 -9 -15 0 -21 6 -3 13 -25 14 -48 2 -23 6 -39 11 -36 4 2
7 -1 7 -6 0 -6 15 -17 33 -24 38 -17 109 -63 119 -80 13 -21 9 -46 -11 -66
-29 -29 -6 -54 54 -58 43 -3 92 -20 83 -28 -2 -2 -21 0 -42 5 -36 8 -38 7 -32
-15 3 -13 2 -27 -4 -30 -5 -3 -10 3 -10 14 0 18 -5 16 -38 -16 l-38 -38 14
-50 c13 -50 12 -68 -6 -136 -14 -53 -3 -63 42 -38 21 11 41 18 44 15 2 -3 -3
-8 -12 -12 -9 -3 -16 -10 -16 -15 0 -4 7 -6 16 -2 14 5 16 2 10 -23 -9 -34
-24 -46 -48 -38 -13 4 -18 0 -18 -14 0 -26 17 -31 52 -18 17 6 28 18 28 29 0
26 22 16 38 -16 9 -18 21 -27 38 -27 13 0 24 -4 24 -10 0 -18 15 -11 56 26 68
63 86 74 121 74 44 0 53 -23 25 -72 l-21 -38 25 -25 c19 -19 24 -36 26 -77 2
-71 2 -69 -6 -105 -8 -33 7 -40 35 -16 8 6 23 13 34 15 20 3 71 65 61 75 -2 3
6 17 20 31 13 15 24 30 24 34 0 3 18 4 40 2 39 -5 52 3 138 84 16 15 32 16 32
2 0 -5 -4 -10 -9 -10 -5 0 -12 -11 -15 -25 -4 -14 -14 -25 -22 -25 -13 0 -15
-7 -10 -32 6 -29 5 -30 -7 -14 -11 15 -17 17 -35 7 -12 -6 -22 -20 -22 -29 0
-10 -6 -26 -13 -37 -7 -11 -18 -32 -25 -47 -15 -36 9 -29 29 8 16 30 56 56 46
30 -5 -12 -1 -16 16 -15 12 0 16 3 10 6 -23 9 -14 21 22 27 19 4 34 12 32 18
-1 6 4 13 12 16 8 3 12 -1 9 -9 -6 -17 15 -39 36 -39 16 0 23 -29 9 -31 -5 0
-16 -3 -25 -5 -10 -3 -31 -7 -48 -11 -16 -3 -27 -9 -24 -14 7 -12 -13 -11 -37
2 -18 9 -19 8 -8 -9 11 -17 9 -23 -17 -45 -26 -23 -30 -24 -38 -9 -13 23 -36
45 -36 35 0 -5 7 -19 16 -31 17 -24 6 -29 -27 -12 -11 6 -19 7 -19 1 0 -5 7
-11 15 -15 21 -8 19 -39 -5 -54 -11 -7 -20 -22 -20 -33 0 -18 -3 -19 -15 -9
-8 7 -12 16 -9 21 3 5 -3 10 -13 10 -41 3 -46 5 -50 17 -3 7 4 12 19 12 18 0
20 2 8 10 -11 7 -20 3 -36 -16 -16 -19 -23 -22 -26 -13 -4 11 -9 12 -26 2 -12
-7 -28 -10 -37 -7 -11 5 -15 0 -15 -19 0 -13 -7 -30 -15 -37 -8 -7 -15 -21
-15 -32 0 -15 -4 -18 -17 -14 -10 4 -14 4 -11 0 4 -4 2 -16 -4 -28 -7 -11 -12
-25 -13 -29 0 -8 -25 -27 -36 -27 -3 0 -6 6 -6 14 0 8 3 15 6 14 22 -2 22 4 1
15 -21 11 -25 19 -22 52 3 33 1 37 -11 26 -20 -16 -33 4 -16 25 17 21 2 30
-19 11 -10 -10 -22 -17 -25 -17 -13 0 -47 -35 -47 -47 0 -7 -4 -13 -10 -13 -5
0 -10 9 -10 19 0 11 -5 21 -12 23 -19 7 1 28 26 28 26 0 76 42 76 63 0 8 -7
20 -15 27 -9 8 -12 22 -8 41 3 18 1 29 -6 29 -6 0 -11 -4 -11 -10 0 -20 -18
-9 -24 15 -4 16 -13 25 -26 25 -24 0 -40 29 -40 73 0 64 -56 30 -61 -38 -5
-67 2 -106 21 -125 19 -19 22 -19 43 -5 33 21 38 11 20 -40 -17 -52 -40 -65
-53 -30 -5 14 -16 25 -24 25 -15 0 -29 -27 -21 -40 11 -18 -14 -19 -56 -4 -24
9 -60 18 -79 21 -19 2 -45 11 -57 19 -12 7 -29 14 -38 14 -8 0 -15 5 -15 10 0
6 -8 10 -17 8 -11 -2 -22 8 -31 25 -13 27 -36 39 -26 13 4 -11 0 -13 -16 -9
l-21 6 23 15 c13 8 24 16 26 17 10 7 -25 55 -40 55 -10 0 -18 4 -18 9 0 5 -8
17 -17 26 -16 16 -15 18 8 36 24 18 24 18 4 33 -11 9 -27 16 -36 16 -9 0 -22
6 -28 14 -7 8 -26 18 -42 21 -33 7 -48 30 -31 47 6 6 8 25 5 42 -4 27 -1 34
21 44 14 6 33 9 41 6 25 -10 17 13 -15 39 -16 14 -30 30 -30 36 0 6 -5 11 -10
11 -12 0 -27 11 -76 57 -27 25 -33 39 -32 67 1 32 5 36 34 42 17 3 42 1 54 -6
12 -6 29 -9 38 -5 9 3 13 3 9 -1 -9 -9 22 -44 40 -44 7 0 13 -6 13 -13 0 -7
19 -31 41 -52 23 -22 39 -32 36 -23 -4 10 0 21 9 26 23 13 15 68 -8 64 -10 -2
-18 2 -18 7 0 7 -8 7 -25 1 -19 -7 -23 -6 -19 4 3 8 0 17 -7 21 -7 5 0 13 21
21 18 8 36 12 40 9 27 -17 17 85 -15 162 -8 20 -15 53 -15 74 0 42 -17 62 -24
27 -2 -13 -9 -52 -16 -88 -7 -36 -13 -71 -13 -77 0 -7 -9 -15 -19 -19 -10 -3
-18 -12 -18 -20 0 -8 -4 -14 -10 -14 -5 0 -10 5 -10 10 0 6 -6 10 -14 10 -23
0 -28 74 -13 183 16 112 29 132 86 133 22 0 46 7 56 17 9 9 21 17 26 17 5 0 9
14 9 30 0 30 -22 42 -35 19 -4 -6 -13 -8 -20 -5 -8 3 -11 -2 -8 -15 3 -10 0
-19 -6 -19 -6 0 -11 8 -10 18 0 19 17 62 18 48 1 -5 15 12 32 37 17 26 34 45
39 42 4 -3 10 4 13 15 6 23 18 25 35 8z m122 -2 c0 -3 -4 -8 -10 -11 -5 -3
-10 -1 -10 4 0 6 5 11 10 11 6 0 10 -2 10 -4z m1190 -33 c-1 -31 -15 -54 -30
-50 -10 3 -26 -5 -36 -16 -11 -14 -19 -17 -22 -9 -2 6 4 19 12 28 9 8 16 20
16 25 0 5 10 14 23 19 28 11 37 12 37 3z m-2881 -49 c26 -33 27 -56 2 -71 -13
-8 -18 -19 -14 -33 5 -18 -1 -22 -24 -19 -3 0 -10 -7 -16 -16 -6 -12 -4 -22 9
-36 30 -33 7 -33 -42 0 -26 17 -52 31 -57 31 -5 0 -7 18 -5 39 2 28 -1 42 -12
49 -19 11 -23 51 -8 69 7 8 35 13 78 13 62 0 71 -2 89 -26z m2838 -26 c-3 -8
-6 -5 -6 6 -1 11 2 17 5 13 3 -3 4 -12 1 -19z m-2292 -8 c-3 -5 -11 -10 -16
-10 -6 0 -7 5 -4 10 3 6 11 10 16 10 6 0 7 -4 4 -10z m875 1 c0 -9 -24 -21
-41 -21 -5 0 -9 4 -9 10 0 5 7 7 15 4 8 -4 15 -1 15 5 0 6 5 11 10 11 6 0 10
-4 10 -9z m-585 -40 c3 -5 1 -12 -5 -16 -5 -3 -10 1 -10 9 0 18 6 21 15 7z
m585 -1 c0 -5 -5 -10 -11 -10 -5 0 -7 5 -4 10 3 6 8 10 11 10 2 0 4 -4 4 -10z
m-1640 -20 c0 -5 -4 -10 -10 -10 -5 0 -10 5 -10 10 0 6 5 10 10 10 6 0 10 -4
10 -10z m1050 -30 c0 -5 -5 -10 -11 -10 -5 0 -7 5 -4 10 3 6 8 10 11 10 2 0 4
-4 4 -10z m50 -25 c11 -34 10 -37 -20 -65 -30 -28 -33 -29 -46 -13 -11 15 -9
22 12 48 14 17 27 38 31 48 8 24 10 22 23 -18z m-803 -20 c81 -60 109 -120 69
-147 -24 -17 -51 -5 -110 49 l-62 57 9 43 c6 24 16 43 22 43 6 0 39 -20 72
-45z m867 17 c2 -4 0 -14 -5 -22 -8 -13 -10 -13 -19 0 -5 8 -10 18 -10 23 0
10 28 9 34 -1z m-372 -59 c9 -11 9 -16 -2 -23 -16 -10 -43 7 -35 20 3 5 -4 6
-15 3 -18 -5 -27 6 -15 19 9 9 54 -4 67 -19z m328 -3 c0 -5 -4 -10 -10 -10 -5
0 -10 5 -10 10 0 6 5 10 10 10 6 0 10 -4 10 -10z m-190 -18 c0 -5 -7 -17 -16
-28 -8 -10 -14 -14 -11 -9 2 6 7 18 10 28 7 17 17 23 17 9z m380 -9 c0 -5 -4
-15 -10 -23 -11 -18 -25 -7 -17 15 6 15 27 21 27 8z m-200 -23 c0 -5 -4 -10
-10 -10 -5 0 -10 5 -10 10 0 6 5 10 10 10 6 0 10 -4 10 -10z m97 -14 c-4 -10
0 -12 15 -8 15 4 19 1 14 -9 -3 -8 -9 -22 -12 -31 -4 -10 -14 -18 -24 -18 -21
0 -54 -46 -40 -55 6 -3 10 -12 10 -18 0 -7 -4 -6 -10 3 -8 13 -11 13 -26 -2
-15 -14 -15 -20 -4 -33 11 -13 15 -13 21 -3 7 10 9 10 9 -1 0 -11 3 -11 17 0
14 12 16 12 11 -1 -23 -59 -23 -57 0 -36 19 16 23 17 36 3 14 -14 13 -16 -15
-22 -17 -4 -33 -13 -36 -20 -2 -8 -18 -17 -35 -20 -16 -4 -32 -13 -34 -20 -6
-14 -41 -8 -84 15 -18 10 -24 9 -31 -1 -5 -8 -7 -20 -4 -27 3 -8 0 -12 -7 -10
-7 3 -14 10 -14 16 -3 23 -4 24 -20 11 -14 -11 -19 -10 -34 9 -23 27 -46 28
-53 2 -3 -11 -1 -20 5 -20 15 0 3 -25 -13 -26 -32 -2 -36 -5 -48 -26 l-12 -23
5 23 c4 22 3 22 -17 9 -33 -21 -50 -10 -24 16 15 15 17 22 8 25 -7 2 -16 0
-20 -5 -7 -12 -51 -27 -51 -18 0 3 5 15 11 26 7 14 7 24 0 33 -6 7 -7 16 -3
20 4 4 3 7 -3 6 -23 -5 -25 1 -6 21 13 14 26 19 39 15 18 -6 19 -11 11 -38
-10 -37 -7 -44 11 -23 14 17 35 21 25 5 -9 -15 44 -12 59 3 7 6 15 20 19 30 4
10 11 16 16 12 6 -3 8 -12 4 -20 -3 -8 0 -15 6 -15 6 0 11 5 11 11 0 6 8 3 17
-7 11 -11 18 -13 21 -5 2 6 8 9 13 5 5 -3 9 0 9 5 0 6 6 10 13 8 7 -1 11 7 9
23 -2 23 -2 24 11 6 8 -11 19 -16 26 -12 6 4 19 2 27 -5 8 -6 18 -9 22 -5 4 4
-2 14 -12 21 -18 14 -18 16 16 57 42 53 55 74 40 64 -23 -14 -12 10 13 28 15
11 23 26 20 33 -3 10 0 13 13 9 10 -4 27 1 38 9 24 18 27 18 21 1z m1556 -1
c-3 -9 -8 -14 -10 -11 -3 3 -2 9 2 15 9 16 15 13 8 -4z m-1852 -19 c15 -13 33
-26 38 -28 5 -1 12 -20 16 -40 6 -32 4 -38 -9 -38 -10 0 -14 5 -11 10 3 6 4
10 1 10 -3 0 -13 -14 -21 -31 -12 -23 -21 -29 -36 -24 -20 7 -27 -9 -9 -20 19
-12 10 -22 -15 -17 -20 3 -25 10 -25 33 0 24 4 29 23 29 32 0 38 8 25 36 -8
17 -17 23 -30 18 -12 -4 -18 0 -18 11 0 18 27 75 36 75 4 0 19 -11 35 -24z
m79 -6 c0 -5 -4 -10 -10 -10 -5 0 -10 5 -10 10 0 6 5 10 10 10 6 0 10 -4 10
-10z m1564 -11 c42 -25 43 -29 14 -56 -19 -17 -29 -19 -56 -11 -20 5 -36 18
-41 31 -13 35 -3 49 41 56 4 0 23 -8 42 -20z m-1865 -38 c10 -7 11 -13 2 -30
-7 -11 -16 -21 -20 -21 -13 0 -21 27 -15 45 7 17 13 18 33 6z m2416 -21 c3 -5
1 -10 -4 -10 -6 0 -11 5 -11 10 0 6 2 10 4 10 3 0 8 -4 11 -10z m-2585 -21 c0
-6 7 -9 15 -5 8 3 15 1 15 -4 0 -6 6 -10 14 -10 24 0 27 -17 10 -60 -16 -39
-18 -40 -52 -34 -46 9 -66 31 -70 78 -3 34 -1 37 17 31 12 -4 21 -2 21 4 0 6
7 11 15 11 8 0 15 -5 15 -11z m350 1 c0 -5 -7 -10 -15 -10 -8 0 -15 5 -15 10
0 6 7 10 15 10 8 0 15 -4 15 -10z m1924 -31 c-7 -12 3 -11 25 3 15 9 23 9 36
-2 13 -10 13 -15 3 -21 -9 -6 -6 -9 9 -9 12 0 25 -4 28 -10 4 -6 -8 -10 -29
-10 -19 0 -38 5 -41 10 -4 6 -10 8 -15 5 -4 -3 -24 2 -44 10 -43 18 -49 19
-40 3 5 -8 0 -7 -11 2 -17 14 -16 16 21 26 41 12 68 8 58 -7z m294 9 c-7 -19
-38 -22 -38 -4 0 10 9 16 21 16 12 0 19 -5 17 -12z m106 -4 c4 -9 1 -23 -5
-31 -10 -11 -14 -11 -29 2 -23 21 -29 19 -24 -7 2 -13 2 -17 -2 -10 -3 6 -14
12 -25 12 -10 0 -19 4 -19 10 0 5 6 7 13 5 6 -3 23 4 37 15 31 24 46 25 54 4z
m-1928 -10 c-3 -9 -6 -18 -6 -20 0 -2 -4 -4 -9 -4 -5 0 -7 9 -4 20 3 11 10 20
15 20 6 0 7 -7 4 -16z m-826 -4 c0 -5 -4 -10 -10 -10 -5 0 -10 5 -10 10 0 6 5
10 10 10 6 0 10 -4 10 -10z m2487 -16 c-3 -3 -12 -4 -19 -1 -8 3 -5 6 6 6 11
1 17 -2 13 -5z m-7 -29 c0 -8 -7 -15 -16 -15 -14 0 -14 3 -4 15 7 8 14 15 16
15 2 0 4 -7 4 -15z m-4565 -5 c-27 -12 -43 -12 -25 0 8 5 22 9 30 9 10 0 8 -3
-5 -9z m4735 -17 c0 -13 -3 -13 -15 -3 -8 7 -12 16 -9 21 8 13 24 1 24 -18z
m-2316 2 c-4 -8 -8 -15 -10 -15 -2 0 -4 7 -4 15 0 8 4 15 10 15 5 0 7 -7 4
-15z m2266 -13 l22 -18 -36 -11 c-31 -10 -38 -9 -45 5 -20 41 19 56 59 24z
m-2791 -15 c8 -10 7 -14 -2 -14 -8 0 -14 6 -14 14 0 7 1 13 2 13 2 0 8 -6 14
-13z m654 -54 c-7 -2 -9 -11 -6 -19 3 -8 0 -14 -6 -14 -6 0 -11 6 -11 13 0 16
22 39 29 30 3 -3 1 -8 -6 -10z m1808 -29 c97 -42 121 -60 117 -88 -4 -27 -38
-32 -86 -13 -20 8 -77 22 -125 32 l-88 18 3 30 c2 24 10 33 38 43 49 18 47 18
141 -22z m-1757 11 c11 -8 17 -17 14 -20 -3 -3 -16 3 -29 14 -27 23 -14 28 15
6z m-591 -12 c-7 -2 -19 -2 -25 0 -7 3 -2 5 12 5 14 0 19 -2 13 -5z m2707 -8
c10 -12 9 -20 -4 -40 -9 -14 -21 -25 -26 -25 -5 0 -17 -8 -27 -19 -10 -10 -49
-35 -87 -55 l-69 -37 -20 20 c-20 19 -20 21 -4 39 9 10 17 23 17 28 0 5 17 20
38 33 20 13 53 35 72 48 40 26 92 30 110 8z m-2185 -15 c-3 -5 -11 -10 -16
-10 -6 0 -7 5 -4 10 3 6 11 10 16 10 6 0 7 -4 4 -10z m-355 -34 c0 -14 -29
-31 -38 -22 -2 3 -2 12 1 21 8 19 37 20 37 1z m534 -11 c-4 -8 -8 -15 -10 -15
-2 0 -4 7 -4 15 0 8 4 15 10 15 5 0 7 -7 4 -15z m-107 -49 c-4 -9 -13 -13 -21
-10 -10 4 -17 -2 -22 -20 -10 -41 -26 -33 -24 12 1 13 -64 21 -72 9 -4 -6 -6
3 -6 21 l1 32 58 -2 c32 -1 62 1 66 6 11 10 27 -29 20 -48z m1319 -46 c1 -17
-1 -28 -4 -25 -3 3 -11 0 -19 -6 -7 -6 -13 -8 -13 -3 0 5 -4 2 -10 -6 -5 -8
-12 -11 -17 -6 -4 4 0 12 9 17 10 5 15 16 12 24 -4 10 0 15 11 15 9 0 13 5 10
10 -3 6 0 10 7 10 8 0 13 -13 14 -30z m-744 -8 c3 -4 8 -16 10 -27 2 -16 -2
-19 -21 -17 -32 3 -51 20 -51 44 0 17 4 19 28 13 15 -3 30 -9 34 -13z m1258
-26 c0 -3 -4 -8 -10 -11 -5 -3 -10 -1 -10 4 0 6 5 11 10 11 6 0 10 -2 10 -4z
m-190 -121 c0 -8 -4 -15 -10 -15 -5 0 -10 7 -10 15 0 8 5 15 10 15 6 0 10 -7
10 -15z m-3670 -19 c0 -18 -105 -116 -124 -116 -22 0 -20 9 14 54 44 58 110
96 110 62z m2081 -43 c-12 -20 -14 -14 -5 12 4 9 9 14 11 11 3 -2 0 -13 -6
-23z m-761 -43 c0 -5 -2 -10 -4 -10 -3 0 -8 5 -11 10 -3 6 -1 10 4 10 6 0 11
-4 11 -10z m-170 -40 c16 -11 35 -19 42 -18 9 2 14 -12 15 -47 l2 -50 -19 23
c-22 27 -40 22 -40 -11 -1 -17 -5 -14 -18 15 -14 29 -21 35 -30 26 -9 -9 -12
-8 -12 8 0 10 -3 30 -7 43 -4 16 -3 22 5 17 6 -3 13 -2 17 4 9 14 13 13 45
-10z m1595 -32 c-4 -34 -5 -35 -16 -15 -10 17 -5 37 10 37 5 0 7 -10 6 -22z
m-309 -28 c15 0 24 -6 24 -16 0 -17 23 -44 38 -44 11 0 23 -50 15 -62 -2 -5
-15 -8 -28 -8 -16 0 -25 7 -29 26 -4 15 -5 28 -3 31 3 2 -14 22 -37 45 -22 22
-33 37 -23 34 10 -3 30 -6 43 -6z m-921 -20 c-3 -5 0 -10 8 -10 13 0 13 -4 4
-25 -13 -26 -22 -31 -32 -15 -8 13 5 60 17 60 5 0 6 -4 3 -10z m-1185 -15 c0
-18 -8 -18 -40 0 l-25 14 33 1 c22 0 32 -5 32 -15z m2150 -115 c0 -5 -2 -10
-4 -10 -3 0 -8 5 -11 10 -3 6 -1 10 4 10 6 0 11 -4 11 -10z m1070 -20 c0 -5
-7 -10 -15 -10 -8 0 -15 5 -15 10 0 6 7 10 15 10 8 0 15 -4 15 -10z m-2610
-41 c0 -5 -7 -9 -15 -9 -9 0 -15 9 -15 21 0 18 2 19 15 9 8 -7 15 -16 15 -21z
m-1440 11 c0 -5 -7 -7 -15 -4 -8 4 -15 8 -15 10 0 2 7 4 15 4 8 0 15 -4 15
-10z m1084 -25 c-4 -8 -10 -12 -15 -9 -5 3 -9 0 -9 -5 0 -6 -12 -11 -27 -10
-26 0 -26 2 12 19 22 10 41 19 42 19 1 1 0 -6 -3 -14z m2916 -5 c0 -5 -4 -10
-10 -10 -5 0 -10 5 -10 10 0 6 5 10 10 10 6 0 10 -4 10 -10z m-140 -30 c0 -20
-5 -30 -15 -30 -18 0 -20 26 -2 33 9 4 8 8 -3 16 -13 9 -13 11 3 11 12 0 17
-8 17 -30z m290 16 c0 -11 -19 -15 -25 -6 -3 5 1 10 9 10 9 0 16 -2 16 -4z
m-3264 -60 c3 -7 1 -29 -4 -47 -6 -19 -11 -26 -11 -16 -1 9 -4 17 -9 17 -4 0
-6 -18 -4 -40 6 -64 -15 -53 -62 33 -28 49 -27 50 19 60 40 9 66 7 71 -7z
m3794 1 c0 -17 -20 -37 -37 -37 -7 0 -13 7 -13 15 0 8 -7 15 -15 15 -8 0 -15
-4 -15 -10 0 -5 -4 -10 -10 -10 -20 0 -9 29 13 33 47 9 77 7 77 -6z m-4095
-21 c-19 -14 -45 -11 -45 5 0 5 14 9 32 9 30 0 30 -1 13 -14z m935 -51 c-7 -8
-16 -15 -21 -15 -5 0 -6 7 -3 15 4 8 13 15 21 15 13 0 13 -3 3 -15z m2430
-205 c13 -11 21 -22 18 -25 -2 -3 -15 6 -28 20 -28 30 -22 33 10 5z m-1150
-242 c-1 -31 -1 -32 -15 -14 -19 25 -19 46 0 46 10 0 15 -10 15 -32z m138 -73
c0 -16 -2 -15 -8 5 -4 14 -8 36 -8 50 0 22 1 22 8 -5 4 -16 8 -39 8 -50z
m-139 25 c6 8 13 11 17 7 4 -3 1 -13 -6 -22 -8 -10 -9 -15 -1 -15 12 0 15 -62
4 -74 -11 -11 -12 -35 -2 -42 5 -3 9 -17 9 -32 0 -25 -1 -25 -14 -7 -8 11 -12
23 -10 27 3 4 1 16 -4 25 -14 27 -25 152 -12 133 9 -13 11 -13 19 0z m-1314
-499 c3 -5 1 -12 -5 -16 -5 -3 -10 1 -10 9 0 18 6 21 15 7z m2012 3 c13 -4 20
-10 17 -15 -5 -10 7 -12 43 -10 26 3 40 -17 19 -25 -9 -3 -16 -10 -16 -16 0
-5 5 -6 12 -2 8 5 9 2 5 -10 -4 -9 -3 -15 2 -11 11 6 53 -44 48 -58 -6 -20
-44 -26 -67 -10 -18 13 -20 21 -15 54 7 38 6 39 -22 39 -16 0 -62 11 -101 25
-39 14 -79 25 -87 25 -9 0 -13 5 -10 10 7 11 136 14 172 4z m-1966 -28 c5 3 9
-11 9 -31 0 -20 -4 -34 -9 -30 -6 3 -9 13 -9 23 0 9 -1 24 -4 32 -3 8 -3 12
-1 7 3 -4 9 -5 14 -1z m89 -47 c0 -4 8 -5 18 -2 21 5 71 -46 64 -66 -3 -8 1
-12 9 -9 8 3 20 -2 28 -10 9 -9 25 -12 43 -8 33 6 34 4 11 -31 -17 -26 -17
-27 0 -20 13 5 16 3 11 -5 -17 -28 -39 -48 -52 -48 -7 0 -10 -4 -7 -10 3 -5 3
-10 -2 -10 -15 0 -72 70 -68 82 2 7 -7 22 -22 32 -23 17 -26 17 -20 3 3 -9 2
-17 -2 -17 -20 0 -19 29 1 36 20 6 20 8 5 19 -9 7 -17 15 -17 19 0 4 -6 14
-14 22 -11 10 -15 11 -19 1 -2 -7 -9 -2 -16 12 -11 19 -11 25 0 31 12 8 49 -8
49 -21z m-150 1 c0 -5 -4 -10 -10 -10 -5 0 -10 5 -10 10 0 6 5 10 10 10 6 0
10 -4 10 -10z m125 -60 c3 -5 1 -10 -4 -10 -6 0 -11 5 -11 10 0 6 2 10 4 10 3
0 8 -4 11 -10z m1960 -120 c-3 -5 -2 -10 4 -10 5 0 24 -37 41 -82 27 -69 31
-92 27 -137 -9 -88 -32 -91 -85 -11 -46 71 -79 232 -49 243 23 10 68 7 62 -3z
m-1865 -50 c0 -5 -7 -10 -16 -10 -8 0 -12 5 -9 10 3 6 10 10 16 10 5 0 9 -4 9
-10z m-30 -25 c7 -8 8 -15 2 -15 -5 0 -15 7 -22 15 -7 8 -8 15 -2 15 5 0 15
-7 22 -15z m1826 -163 c-12 -11 -16 6 -9 39 l8 34 3 -33 c2 -19 1 -36 -2 -40z
m-41 19 c-20 -20 -29 -8 -14 18 10 14 15 17 21 8 4 -7 1 -18 -7 -26z m85 -72
c0 -14 -93 -89 -110 -89 -11 0 -22 -5 -25 -10 -8 -13 -45 6 -45 23 0 17 65 79
110 106 l35 21 17 -23 c10 -12 18 -25 18 -28z m-769 -72 c-8 -8 -11 -7 -11 4
0 20 13 34 18 19 3 -7 -1 -17 -7 -23z"/>
<path d="M4980 5711 c0 -13 26 -32 33 -24 14 13 6 33 -13 33 -11 0 -20 -4 -20
-9z"/>
<path d="M5782 4845 c-1 -36 3 -41 28 -25 12 7 12 12 0 34 -18 35 -27 33 -28
-9z"/>
<path d="M5070 4783 c0 -12 5 -25 10 -28 10 -6 8 -21 -8 -65 -5 -13 -3 -13 12
-1 13 11 20 11 29 2 9 -9 9 -14 -3 -21 -8 -5 -10 -10 -5 -10 6 0 16 4 23 8 15
10 7 36 -32 97 -21 33 -25 36 -26 18z"/>
<path d="M5235 4549 c-4 -6 -5 -12 -2 -15 2 -3 7 2 10 11 7 17 1 20 -8 4z"/>
<path d="M5258 4512 c-5 -18 -3 -22 9 -20 9 2 18 9 21 17 3 8 0 11 -6 7 -6 -3
-12 -1 -14 6 -3 7 -7 2 -10 -10z"/>
<path d="M5205 4351 c-3 -5 -1 -12 4 -15 5 -3 11 1 15 9 6 16 -9 21 -19 6z"/>
<path d="M3151 4518 c-7 -35 -16 -79 -20 -98 -11 -52 17 -106 33 -64 5 13 15
15 47 10 l40 -6 -2 47 c-3 105 -8 121 -40 128 -20 5 -29 13 -29 26 0 41 -17
16 -29 -43z"/>
<path d="M3360 4269 c0 -5 5 -7 10 -4 6 3 10 8 10 11 0 2 -4 4 -10 4 -5 0 -10
-5 -10 -11z"/>
<path d="M6665 5070 c-3 -5 -2 -10 4 -10 5 0 13 5 16 10 3 6 2 10 -4 10 -5 0
-13 -4 -16 -10z"/>
<path d="M5965 4340 c-3 -5 -1 -10 4 -10 6 0 11 5 11 10 0 6 -2 10 -4 10 -3 0
-8 -4 -11 -10z"/>
<path d="M5937 3516 c-7 -19 11 -32 24 -19 6 6 5 14 -4 22 -12 9 -16 8 -20 -3z"/>
<path d="M6006 3481 c-4 -7 -5 -15 -2 -18 9 -9 19 4 14 18 -4 11 -6 11 -12 0z"/>
<path d="M6575 3330 c-38 -39 -46 -53 -37 -62 9 -9 15 -9 24 0 9 9 15 9 26 0
10 -9 15 -9 22 1 6 11 9 11 13 0 3 -8 6 14 6 49 1 34 0 62 -2 62 -1 0 -25 -22
-52 -50z"/>
<path d="M6890 3329 c0 -5 5 -7 10 -4 6 3 10 8 10 11 0 2 -4 4 -10 4 -5 0 -10
-5 -10 -11z"/>
<path d="M6900 3265 c-7 -8 -16 -12 -20 -10 -5 3 -8 -8 -8 -24 1 -25 3 -27 14
-16 8 7 14 21 14 29 0 19 16 21 23 4 2 -8 8 -9 13 -4 5 5 4 11 -4 13 -6 3 -10
9 -6 14 9 15 -13 10 -26 -6z"/>
<path d="M6730 3174 c0 -8 5 -12 10 -9 6 3 10 10 10 16 0 5 -4 9 -10 9 -5 0
-10 -7 -10 -16z"/>
<path d="M6696 3134 c-6 -24 -2 -43 8 -33 11 10 17 59 8 59 -5 0 -13 -12 -16
-26z"/>
<path d="M5401 3984 c0 -11 3 -14 6 -6 3 7 2 16 -1 19 -3 4 -6 -2 -5 -13z"/>
<path d="M5376 3880 c9 -34 10 -35 36 -22 15 8 17 11 6 9 -9 -1 -24 7 -33 18
-16 20 -16 19 -9 -5z"/>
<path d="M5345 3860 c3 -5 8 -10 11 -10 2 0 4 5 4 10 0 6 -5 10 -11 10 -5 0
-7 -4 -4 -10z"/>
<path d="M4980 3770 c0 -5 5 -10 10 -10 6 0 10 5 10 10 0 6 -4 10 -10 10 -5 0
-10 -4 -10 -10z"/>
<path d="M4730 3930 c0 -6 7 -10 15 -10 8 0 15 2 15 4 0 2 -7 6 -15 10 -8 3
-15 1 -15 -4z"/>
<path d="M5150 3629 c0 -5 5 -7 10 -4 6 3 10 8 10 11 0 2 -4 4 -10 4 -5 0 -10
-5 -10 -11z"/>
<path d="M4360 3236 c0 -2 7 -7 16 -10 8 -3 12 -2 9 4 -6 10 -25 14 -25 6z"/>
<path d="M5490 2289 c0 -5 5 -7 10 -4 6 3 10 8 10 11 0 2 -4 4 -10 4 -5 0 -10
-5 -10 -11z"/>
<path d="M6290 6729 c0 -41 0 -41 23 -27 12 9 23 27 25 42 3 22 0 26 -22 26
-24 0 -26 -4 -26 -41z"/>
<path d="M6048 6633 c5 -21 7 -23 10 -9 2 10 0 22 -6 28 -6 6 -7 0 -4 -19z"/>
<path d="M6128 6655 c-3 -4 -4 -23 -1 -42 4 -21 1 -38 -5 -42 -7 -4 -8 -12 -2
-21 7 -10 10 -11 10 -2 0 19 18 14 30 -9 9 -15 8 -24 -2 -37 -11 -13 -11 -15
2 -7 51 29 70 48 70 71 0 17 4 23 12 18 7 -4 8 -3 4 4 -4 7 -23 12 -42 12 -19
0 -34 5 -34 10 0 6 -6 10 -14 10 -8 0 -16 9 -18 21 -2 11 -6 18 -10 14z"/>
<path d="M6256 6625 c-3 -8 -1 -15 4 -15 6 0 10 7 10 15 0 8 -2 15 -4 15 -2 0
-6 -7 -10 -15z"/>
<path d="M5610 6560 c6 -11 13 -20 16 -20 2 0 0 9 -6 20 -6 11 -13 20 -16 20
-2 0 0 -9 6 -20z"/>
<path d="M6037 6564 c-4 -4 -7 -17 -7 -28 1 -19 1 -20 11 -3 11 19 8 43 -4 31z"/>
<path d="M5662 6525 c6 -14 15 -25 19 -25 4 0 2 11 -4 25 -7 14 -15 25 -19 25
-4 0 -2 -11 4 -25z"/>
<path d="M6016 6479 c-3 -18 -4 -34 -2 -36 2 -3 7 10 11 27 4 17 5 34 2 36 -2
3 -7 -10 -11 -27z"/>
<path d="M6405 6490 c-3 -5 1 -10 9 -10 8 0 18 5 21 10 3 6 -1 10 -9 10 -8 0
-18 -4 -21 -10z"/>
<path d="M6034 6254 c3 -9 6 -18 6 -20 0 -2 9 -4 20 -4 24 0 27 25 4 34 -26
10 -36 7 -30 -10z"/>
<path d="M7052 6232 c-13 -4 -23 -11 -23 -17 -1 -17 15 -15 41 5 26 20 22 23
-18 12z"/>
<path d="M5913 6213 c9 -9 20 -13 24 -9 4 4 1 11 -7 16 -25 16 -35 11 -17 -7z"/>
<path d="M5590 5715 c0 -11 40 -148 44 -152 2 -3 14 1 26 7 17 9 25 8 39 -4
22 -20 41 -21 41 -1 0 8 -12 18 -27 21 -39 10 -59 33 -67 76 -4 22 -15 42 -26
48 -21 11 -30 13 -30 5z"/>
<path d="M5655 5433 c13 -56 44 -52 45 5 0 17 -6 22 -26 22 -24 0 -25 -3 -19
-27z"/>
<path d="M5938 5377 c-21 -5 -38 -12 -38 -16 0 -19 43 -44 83 -48 38 -5 45 -3
49 15 4 14 2 19 -7 16 -7 -3 -21 5 -31 18 -17 21 -23 23 -56 15z"/>
<path d="M5924 5178 c-4 -7 -3 -10 1 -5 5 4 17 -1 28 -10 10 -10 32 -18 49
-18 l29 0 -28 22 c-31 25 -68 30 -79 11z"/>
<path d="M6092 5174 c-17 -19 -15 -34 6 -34 9 0 27 -3 40 -6 28 -8 22 13 -11
37 -18 14 -24 14 -35 3z"/>
<path d="M6204 5035 c4 -16 12 -34 17 -40 5 -5 4 6 -2 25 -15 45 -24 54 -15
15z"/>
<path d="M4090 3350 c0 -5 7 -7 15 -4 8 4 15 8 15 10 0 2 -7 4 -15 4 -8 0 -15
-4 -15 -10z"/>
<path d="M3966 3205 c-9 -14 -12 -25 -6 -25 5 0 10 6 10 13 0 9 2 9 9 -1 7
-11 10 -10 15 3 15 41 -3 48 -28 10z"/>
<path d="M3798 2923 c5 -21 7 -23 10 -9 2 10 0 22 -6 28 -6 6 -7 0 -4 -19z"/>
<path d="M3767 2783 c-12 -12 -7 -33 8 -33 17 0 19 9 7 28 -5 7 -11 9 -15 5z"/>
<path d="M3650 2725 c-11 -25 -27 -45 -35 -45 -16 0 -59 -40 -76 -71 -9 -18
-8 -20 10 -14 37 11 56 -69 26 -109 -23 -30 -18 -36 25 -36 40 0 53 13 25 24
-21 8 -19 42 6 67 17 17 28 19 60 14 l39 -7 0 56 c0 43 3 56 15 56 8 0 15 5
15 10 0 6 -7 13 -15 16 -8 4 -15 17 -15 30 0 20 -5 24 -30 24 -22 0 -28 4 -24
15 14 35 -7 11 -26 -30z"/>
<path d="M7420 2524 c0 -5 14 -26 31 -47 16 -20 31 -49 32 -64 2 -28 1 -28
-58 -27 -54 0 -74 -7 -75 -28 0 -4 8 -4 17 -1 12 5 15 2 10 -10 -9 -25 45 -81
71 -73 11 4 23 2 27 -4 18 -30 25 1 25 115 l0 125 -28 0 c-15 0 -33 5 -40 12
-7 7 -12 8 -12 2z"/>
<path d="M3020 2505 c7 -9 15 -13 17 -11 7 7 -7 26 -19 26 -6 0 -6 -6 2 -15z"/>
<path d="M3075 2470 c3 -5 11 -10 16 -10 6 0 7 5 4 10 -3 6 -11 10 -16 10 -6
0 -7 -4 -4 -10z"/>
<path d="M3115 2440 c3 -5 8 -10 11 -10 2 0 4 5 4 10 0 6 -5 10 -11 10 -5 0
-7 -4 -4 -10z"/>
<path d="M3727 2444 c-3 -3 -3 -21 0 -39 5 -32 5 -32 -53 -47 -70 -17 -77 -33
-37 -83 30 -37 43 -44 43 -21 0 16 26 28 49 22 12 -3 25 13 47 59 l32 64 -29
11 c-16 7 -29 19 -29 26 0 14 -12 19 -23 8z"/>
<path d="M3150 2421 c0 -5 5 -13 10 -16 6 -3 10 -2 10 4 0 5 -4 13 -10 16 -5
3 -10 2 -10 -4z"/>
<path d="M3512 2221 c-11 -7 -10 -10 3 -15 23 -9 25 -8 25 9 0 17 -9 19 -28 6z"/>
<path d="M7323 2188 c-25 -5 -43 -15 -43 -23 0 -10 7 -11 28 -4 55 18 62 21
62 30 0 5 -1 9 -2 8 -2 -1 -22 -5 -45 -11z"/>
<path d="M7325 2079 c-16 -10 -34 -21 -40 -23 -5 -2 -7 -6 -4 -10 8 -8 79 32
79 45 0 11 1 12 -35 -12z"/>
<path d="M3758 2003 c7 -3 16 -2 19 1 4 3 -2 6 -13 5 -11 0 -14 -3 -6 -6z"/>
<path d="M3705 1971 c-3 -12 -12 -18 -20 -15 -9 4 -12 -1 -10 -13 2 -10 4 -25
5 -33 0 -12 3 -11 11 3 5 9 17 17 26 17 13 0 13 3 3 15 -10 12 -10 18 0 30 8
9 8 15 2 15 -6 0 -13 -9 -17 -19z"/>
<path d="M7402 1970 c-19 -10 -29 -21 -23 -25 16 -9 13 -25 -4 -25 -8 0 -15 5
-15 10 0 17 -36 11 -55 -10 -14 -15 -15 -23 -6 -34 9 -11 18 -11 44 -2 49 17
62 28 80 65 10 19 16 35 15 36 -2 2 -18 -5 -36 -15z"/>
<path d="M3640 1955 c0 -5 5 -17 10 -25 5 -8 10 -10 10 -5 0 6 -5 17 -10 25
-5 8 -10 11 -10 5z"/>
<path d="M3715 1900 c-3 -5 1 -10 9 -10 9 0 16 5 16 10 0 6 -4 10 -9 10 -6 0
-13 -4 -16 -10z"/>
<path d="M6828 1793 c7 -3 16 -2 19 1 4 3 -2 6 -13 5 -11 0 -14 -3 -6 -6z"/>
<path d="M6820 1708 c-19 -5 -42 -16 -51 -24 -23 -20 -62 -17 -87 7 -13 11
-28 19 -34 17 -6 -2 8 -20 31 -39 37 -29 51 -34 96 -35 55 0 90 -18 81 -39 -2
-7 1 -18 7 -24 15 -15 -7 -31 -45 -31 -33 0 -68 -27 -68 -53 0 -10 -9 -36 -21
-58 -11 -23 -18 -44 -15 -47 3 -3 6 0 6 6 0 16 40 15 40 0 1 -16 90 82 90 98
0 7 16 43 35 80 24 46 32 71 25 78 -5 5 -10 19 -10 31 0 23 -18 46 -34 44 -6
0 -27 -5 -46 -11z"/>
<path d="M4140 1601 c0 -6 4 -13 10 -16 6 -3 7 1 4 9 -7 18 -14 21 -14 7z"/>
<path d="M4237 1585 c6 -29 30 -52 42 -39 5 5 -4 21 -19 37 l-27 27 4 -25z"/>
<path d="M6601 1546 c2 -2 15 -9 29 -15 24 -11 24 -11 6 3 -16 13 -49 24 -35
12z"/>
<path d="M6740 1530 c0 -5 5 -10 10 -10 6 0 10 5 10 10 0 6 -4 10 -10 10 -5 0
-10 -4 -10 -10z"/>
<path d="M6639 1507 c-14 -7 -33 -20 -43 -29 -10 -10 -28 -18 -41 -18 -34 0
-38 -14 -11 -39 l23 -22 27 33 c15 18 39 45 53 61 29 30 29 30 -8 14z"/>
<path d="M4416 1382 c8 -15 14 -33 14 -39 0 -7 4 -13 10 -13 5 0 18 -9 28 -20
16 -17 24 -19 46 -11 36 14 33 27 -11 51 -21 11 -52 29 -70 40 l-31 18 14 -26z"/>
<path d="M4207 1373 c-11 -10 -8 -51 3 -58 6 -4 10 8 10 29 0 37 -2 41 -13 29z"/>
<path d="M4677 1293 c-16 -18 -24 -33 -18 -33 6 0 10 -5 9 -12 -2 -7 12 -17
30 -23 17 -6 37 -16 44 -23 7 -7 19 -12 28 -12 13 0 13 -2 0 -10 -12 -7 -12
-11 3 -28 10 -11 27 -19 37 -18 23 1 24 4 14 30 -5 13 -1 24 14 36 l21 18 -39
26 c-24 16 -40 34 -40 46 0 13 -9 22 -27 26 -16 3 -32 7 -38 8 -5 2 -23 -12
-38 -31z"/>
<path d="M4900 1146 c0 -11 10 -16 31 -16 38 0 35 24 -4 28 -19 2 -27 -1 -27
-12z"/>
<path d="M5226 1082 c-11 -2 -31 -15 -45 -28 l-26 -24 40 1 c60 0 118 13 122
25 4 13 -63 32 -91 26z"/>
<path d="M5430 1044 c0 -7 6 -11 14 -8 8 3 18 -7 26 -25 7 -17 19 -31 26 -31
7 0 21 -11 30 -25 20 -30 33 -31 79 -5 20 11 43 20 53 20 13 0 12 3 -6 16 -13
9 -26 13 -29 10 -3 -3 -13 0 -21 7 -13 10 -14 8 -8 -11 4 -12 4 -22 -1 -22
-36 1 -55 60 -19 60 12 0 16 4 11 9 -6 5 -43 11 -82 13 -56 4 -73 2 -73 -8z"/>
<path d="M4887 1004 c-10 -10 13 -34 32 -34 12 0 13 2 3 9 -8 4 -13 12 -12 17
2 11 -14 16 -23 8z"/>
<path d="M5688 975 c-7 -8 3 -65 12 -60 9 6 11 65 1 65 -4 0 -10 -2 -13 -5z"/>
<path d="M4800 956 c0 -9 5 -16 10 -16 6 0 10 4 10 9 0 6 -4 13 -10 16 -5 3
-10 -1 -10 -9z"/>
<path d="M5137 911 c-18 -31 -22 -67 -9 -75 27 -16 70 -14 90 4 12 11 26 20
32 20 5 0 21 10 35 22 l26 22 -73 18 c-40 9 -75 17 -78 18 -3 0 -13 -13 -23
-29z"/>
</g>
</svg>
