<?xml version="1.0" standalone="no"?>
<!DOCTYPE svg PUBLIC "-//W3C//DTD SVG 20010904//EN"
 "http://www.w3.org/TR/2001/REC-SVG-20010904/DTD/svg10.dtd">
<svg version="1.0" xmlns="http://www.w3.org/2000/svg"
 width="750.000000pt" height="750.000000pt" viewBox="0 0 750.000000 750.000000"
 preserveAspectRatio="xMidYMid meet">

<g transform="translate(0.000000,750.000000) scale(0.100000,-0.100000)"
fill="#000000" stroke="none">
<path d="M0 6664 c0 -665 3 -834 13 -828 10 6 10 4 0 -7 -10 -10 -13 -125 -13
-503 l1 -491 22 30 c37 51 170 198 207 230 93 79 120 112 120 146 1 47 21 98
65 164 26 40 35 63 31 79 -4 15 0 28 9 36 21 17 82 127 90 163 9 36 45 63 96
71 60 10 118 42 125 70 7 30 31 51 65 59 43 11 118 93 125 139 7 42 36 69 80
74 14 1 31 8 39 14 8 6 26 10 42 7 25 -4 24 -4 -7 -6 -27 -1 -31 -4 -20 -11
12 -8 11 -11 -8 -16 -18 -5 -20 -9 -10 -15 9 -6 7 -9 -9 -9 -16 0 -23 -6 -23
-20 0 -15 7 -20 25 -20 14 0 25 -4 25 -10 0 -5 -17 -10 -37 -10 -40 -1 -82
-23 -64 -35 6 -3 11 -25 12 -48 1 -23 4 -53 9 -67 6 -21 8 -22 15 -8 6 15 9
16 22 3 16 -16 40 -14 109 11 65 23 78 44 70 108 -3 30 -2 56 3 58 5 2 11 19
13 38 2 28 -1 35 -16 38 -18 4 -46 25 -46 35 0 11 45 15 56 6 7 -6 21 -9 31
-7 23 4 25 -27 4 -60 -12 -19 -12 -30 -3 -56 7 -18 12 -47 12 -64 0 -30 2 -31
37 -30 22 1 54 13 79 30 23 15 50 28 60 28 21 -1 19 -3 -36 -40 -12 -8 -29
-21 -36 -28 -8 -7 -14 -10 -14 -5 0 4 -5 0 -11 -9 -5 -10 -25 -25 -44 -34 -19
-9 -35 -20 -35 -25 0 -5 -5 -9 -10 -9 -6 0 -29 -13 -52 -30 -34 -25 -44 -28
-56 -17 -11 8 -13 8 -9 0 4 -6 -9 -24 -33 -43 -23 -18 -39 -35 -36 -37 3 -3
-4 -28 -15 -56 -11 -29 -21 -56 -22 -62 -1 -5 -4 -12 -7 -15 -3 -3 -11 -18
-18 -34 -10 -23 -10 -31 -1 -37 17 -10 53 10 121 65 41 34 55 51 53 68 -1 13
0 15 2 6 6 -24 13 -23 59 10 97 70 159 100 218 107 59 7 84 14 143 43 27 13
37 14 70 3 42 -14 72 -36 89 -66 6 -11 22 -22 35 -25 21 -6 24 -11 21 -48 -5
-58 30 -116 65 -109 22 4 24 1 21 -27 -2 -25 -7 -31 -28 -31 -19 0 -26 -7 -34
-34 -10 -34 -5 -43 42 -70 7 -4 14 -17 15 -29 0 -12 3 -19 5 -17 6 6 52 -47
52 -60 0 -17 27 -38 34 -27 11 18 60 21 79 5 9 -9 17 -13 17 -8 0 4 15 -4 34
-18 29 -23 40 -25 90 -20 31 3 56 10 56 14 0 5 9 9 20 9 11 0 20 5 20 10 0 6
9 10 20 10 16 0 20 7 20 35 0 33 9 41 42 37 6 -1 48 81 48 96 0 4 -11 14 -25
22 l-25 16 35 52 c40 59 116 101 197 110 58 6 63 21 36 97 l-21 55 27 41 c30
44 21 43 129 22 17 -3 27 -1 27 6 0 13 39 -9 80 -44 14 -12 45 -28 70 -35 25
-8 48 -18 51 -23 4 -5 44 -16 89 -24 82 -14 83 -14 119 10 20 13 49 27 66 31
16 4 49 28 73 52 23 25 46 43 51 40 4 -3 18 15 31 39 l23 44 18 -23 c11 -13
19 -31 19 -40 0 -9 5 -16 10 -16 6 0 10 4 10 9 0 5 15 8 32 7 32 -1 33 0 38
46 5 42 20 79 20 50 0 -7 7 -12 15 -12 8 0 15 -4 15 -10 0 -16 18 -12 40 10
11 11 28 20 38 20 10 0 29 11 42 25 l24 25 -35 31 c-99 90 -207 131 -287 110
-22 -6 -60 -29 -85 -51 -50 -44 -55 -46 -71 -26 -6 8 -28 18 -48 21 -34 6 -38
5 -38 -13 0 -13 -8 -22 -22 -24 -32 -5 -35 -28 -4 -28 14 0 26 -4 26 -10 0 -9
-11 -12 -57 -14 -10 -1 -23 -8 -29 -16 -10 -12 -14 -12 -28 -1 -9 7 -14 16
-12 20 3 4 -8 6 -22 5 -15 -1 -34 2 -42 6 -23 12 -130 18 -123 7 3 -5 -4 -4
-16 2 -13 8 -27 8 -38 2 -10 -5 -37 -8 -60 -6 -23 1 -40 -1 -38 -6 3 -4 1 -10
-5 -14 -5 -3 -10 -15 -10 -26 0 -15 -7 -19 -31 -19 -16 0 -51 -7 -77 -16 -37
-12 -53 -24 -74 -60 -19 -30 -23 -44 -14 -44 8 0 16 -9 19 -19 4 -18 0 -20
-46 -19 -39 1 -57 7 -74 24 -13 13 -23 26 -23 29 0 11 28 5 33 -7 2 -7 4 -1 3
13 -1 22 -6 26 -40 28 -22 1 -43 4 -48 7 -11 7 -10 52 2 59 6 3 5 15 -2 30 -9
21 -8 29 7 45 10 11 14 20 10 20 -5 0 -5 4 1 10 10 10 182 44 379 75 55 8 125
20 155 25 30 6 102 14 159 20 57 5 122 12 145 15 118 14 359 25 586 25 186 0
265 4 293 14 47 16 109 7 140 -22 12 -11 50 -33 84 -50 34 -17 79 -42 100 -56
35 -24 63 -33 63 -20 0 18 -25 45 -65 68 -86 51 -55 56 185 31 341 -35 588
-76 874 -146 119 -29 148 -39 108 -39 -13 0 -26 -10 -34 -27 -14 -29 -68 -51
-68 -28 0 7 -11 15 -25 17 -20 4 -26 1 -31 -18 -5 -21 -62 -73 -67 -63 -28 52
-46 54 -90 8 -20 -21 -38 -29 -61 -29 -18 0 -45 -9 -59 -20 -14 -11 -32 -20
-40 -20 -9 0 -18 -4 -21 -8 -3 -5 -27 -9 -54 -10 -28 0 -66 -7 -85 -16 -36
-15 -71 -12 -95 7 -10 8 -18 5 -31 -11 -19 -25 -31 -20 -31 13 0 30 -29 85
-44 85 -14 0 -75 57 -139 128 -33 38 -42 42 -80 40 -36 -1 -38 -2 -9 -5 54 -7
41 -33 -76 -145 -34 -33 -52 -43 -85 -45 -35 -3 -43 -1 -44 14 -2 46 -8 73
-15 73 -4 0 -8 7 -8 15 0 9 -7 18 -16 22 -8 3 -13 12 -10 19 3 7 1 16 -4 19
-5 3 -18 -12 -29 -35 -18 -37 -18 -40 -2 -40 10 0 28 -11 41 -25 l23 -25 -26
0 c-24 0 -27 -3 -21 -25 4 -15 2 -25 -5 -25 -5 0 -19 -9 -29 -20 -18 -20 -19
-20 -47 10 -16 17 -35 30 -42 30 -18 0 -16 -29 3 -37 19 -7 37 -50 27 -66 -4
-7 -6 -24 -4 -39 4 -39 -29 -37 -62 2 -37 44 -47 38 -44 -24 2 -65 -8 -79 -34
-48 l-18 23 -36 -26 c-19 -15 -35 -22 -35 -16 0 6 -7 11 -15 11 -8 0 -15 5
-15 11 0 6 -8 2 -17 -9 -24 -27 -63 -39 -63 -18 0 9 -11 18 -25 22 -31 8 -21
28 11 21 13 -2 29 2 35 9 9 11 8 14 -2 14 -8 0 -20 9 -27 20 -7 11 -22 20 -33
20 -13 0 -19 5 -16 13 3 6 8 19 11 27 5 12 0 15 -21 14 -24 -1 -28 -5 -26 -28
1 -18 -3 -26 -15 -26 -14 0 -15 -2 -2 -10 11 -7 9 -11 -12 -19 -14 -5 -29 -15
-33 -20 -3 -6 -33 -11 -66 -11 -39 0 -59 -4 -59 -12 0 -8 -3 -9 -10 -2 -15 15
-82 5 -76 -12 3 -8 -1 -14 -8 -14 -26 0 -123 -103 -129 -137 -6 -29 6 -48 15
-23 4 11 48 1 48 -11 0 -5 -7 -9 -15 -9 -8 0 -15 -7 -15 -15 0 -8 -5 -15 -11
-15 -5 0 -7 5 -4 10 3 6 3 10 -2 10 -27 -1 -47 -43 -63 -140 -14 -77 -46 -140
-72 -140 -10 0 -18 -5 -18 -10 0 -6 -10 -15 -22 -21 l-23 -10 23 5 c17 3 22 1
18 -10 -4 -10 2 -14 22 -14 31 1 55 17 65 43 3 9 13 17 22 17 13 0 14 4 5 21
-9 16 -8 26 5 45 9 13 13 30 9 36 -5 7 -3 8 6 3 10 -6 12 0 7 28 -3 20 -1 39
4 42 5 4 9 14 9 24 0 14 6 17 26 13 16 -3 23 -10 20 -18 -3 -7 4 -16 15 -19
21 -7 26 -41 7 -47 -14 -5 50 -88 68 -88 19 0 64 -27 57 -33 -3 -4 -12 -2 -20
4 -10 9 -13 8 -13 -5 0 -10 8 -16 21 -16 12 0 23 -8 26 -20 7 -25 52 -27 120
-4 34 12 65 15 106 10 37 -4 64 -2 77 6 14 9 22 9 32 0 13 -11 57 -6 68 7 14
17 62 41 83 41 20 0 28 11 52 74 25 65 32 75 58 80 36 7 77 -2 77 -17 0 -7 11
1 25 16 14 15 32 27 40 27 8 0 15 5 15 11 0 6 22 9 54 8 44 -2 62 3 93 23 21
14 42 25 47 26 5 0 12 5 15 11 9 14 191 13 191 -1 0 -5 3 -7 8 -7 39 6 67 -36
107 -161 18 -56 66 -137 104 -177 38 -39 25 -48 -64 -45 -16 1 -24 -1 -17 -4
6 -3 10 -10 7 -14 -3 -5 -1 -11 5 -15 5 -3 10 2 10 12 0 10 12 -1 33 -30 17
-26 37 -47 43 -47 7 0 9 -11 6 -26 -3 -17 -1 -25 5 -21 7 4 10 -28 9 -91 -2
-107 -9 -115 -53 -64 -15 17 -26 23 -31 16 -4 -5 -21 -16 -38 -23 -17 -7 -36
-23 -42 -36 -16 -34 -50 -42 -69 -15 -12 17 -17 19 -30 9 -21 -18 -104 -11
-124 9 -9 10 -26 24 -38 32 -11 8 -21 20 -21 27 0 10 -6 10 -25 1 -13 -6 -22
-15 -19 -19 3 -5 -6 -9 -20 -9 -14 0 -28 -5 -31 -10 -4 -6 -12 -10 -18 -9 -33
4 -39 -1 -33 -27 4 -16 1 -35 -8 -49 -10 -16 -14 -35 -10 -54 6 -27 11 -31 40
-31 19 0 43 6 54 12 16 10 24 10 38 0 9 -7 29 -18 43 -24 23 -10 28 -19 32
-62 6 -65 -1 -86 -20 -60 -7 10 -13 27 -13 37 0 20 0 20 -21 1 -15 -13 -19
-26 -15 -45 3 -17 0 -32 -9 -39 -8 -6 -11 -18 -8 -27 3 -8 0 -19 -8 -25 -11
-8 -11 -9 2 -5 11 4 21 -4 28 -21 11 -22 10 -28 -5 -39 -10 -7 -33 -13 -52
-13 -21 0 -47 -9 -66 -23 -17 -13 -45 -27 -63 -30 -38 -8 -37 0 14 81 18 28
30 52 27 52 -12 0 -69 -64 -66 -76 1 -6 -9 -19 -23 -28 -33 -21 -35 -77 -4
-97 13 -9 22 -29 26 -56 4 -28 11 -43 20 -43 8 0 13 6 12 13 -4 20 20 67 33
67 23 0 39 -16 32 -33 -4 -12 1 -20 20 -27 18 -6 26 -17 26 -34 0 -40 -12 -86
-21 -80 -5 3 -9 -4 -9 -16 0 -17 4 -20 22 -16 13 3 17 3 10 0 -17 -8 -15 -34
2 -34 9 0 12 -7 9 -19 -3 -13 1 -21 14 -24 13 -3 10 -5 -8 -6 -15 0 -32 6 -39
14 -7 8 -21 15 -31 15 -11 0 -19 6 -19 14 0 7 -18 25 -40 40 -22 14 -40 21
-40 15 0 -6 -9 -8 -21 -4 -14 5 -19 3 -15 -3 12 -19 -13 -23 -41 -7 l-28 16
28 -6 c32 -6 37 10 5 19 -36 9 -48 7 -48 -9 0 -8 -7 -15 -15 -15 -8 0 -20 -9
-27 -20 -7 -11 -23 -20 -36 -20 -19 0 -23 -5 -20 -22 5 -34 -30 -57 -81 -55
-24 1 -38 3 -32 5 18 6 12 22 -8 22 -12 0 -21 -9 -25 -25 -8 -32 -1 -45 25
-45 12 0 19 -7 19 -20 0 -11 4 -20 9 -20 17 0 18 -49 2 -65 -23 -20 -121 -10
-122 14 -1 9 -2 27 -2 40 -1 14 -9 25 -19 27 -15 2 -17 -3 -12 -24 4 -15 11
-33 16 -39 19 -24 1 -42 -35 -36 -20 3 -44 0 -58 -8 -37 -21 -92 -38 -101 -33
-14 9 -9 57 10 78 9 11 -5 3 -31 -17 -27 -20 -69 -43 -95 -52 -26 -9 -54 -21
-63 -25 -9 -5 -26 -6 -38 -3 -15 4 -21 1 -21 -11 0 -9 -8 -16 -20 -16 -14 0
-20 7 -20 24 0 13 4 26 9 28 5 2 10 12 11 23 5 46 1 50 -45 51 -41 1 -45 -1
-45 -22 0 -17 4 -22 16 -17 14 5 14 3 3 -16 -8 -11 -17 -21 -21 -21 -5 0 -8
-9 -8 -20 0 -11 -5 -20 -11 -20 -7 0 -8 26 -3 80 6 76 5 80 -13 80 -18 0 -20
-6 -20 -62 1 -63 -10 -213 -19 -255 -9 -43 -74 -85 -74 -47 0 11 6 14 20 9 11
-4 20 -2 20 4 0 10 -13 15 -32 13 -3 -1 -12 6 -19 14 -10 12 -10 30 0 94 16
95 10 125 -24 134 -24 6 -24 8 -10 30 11 17 22 22 40 18 15 -2 25 0 25 7 0 7
-5 9 -10 6 -6 -3 -10 -1 -10 4 0 14 -33 14 -81 0 -25 -8 -36 -16 -32 -25 3 -8
9 -11 14 -8 5 3 6 -2 3 -11 -5 -11 -12 -14 -23 -8 -26 12 -110 4 -137 -13 -43
-29 -27 -49 41 -51 84 -4 125 5 133 27 12 32 33 9 26 -28 -4 -22 -17 -39 -40
-53 -39 -23 -40 -30 -18 -64 9 -14 14 -32 10 -40 -3 -8 -1 -15 4 -15 6 0 10
-9 10 -20 0 -10 6 -23 14 -27 18 -11 58 -91 51 -103 -3 -6 -13 -10 -21 -10 -8
0 -14 -5 -14 -10 0 -16 49 0 76 25 14 13 19 22 12 21 -7 0 -15 4 -18 9 -7 14
50 19 63 6 21 -21 36 -10 64 46 15 32 39 71 53 87 54 65 67 75 90 69 13 -3 25
-1 30 6 5 9 14 3 31 -20 16 -23 19 -34 10 -37 -9 -3 -8 -8 3 -21 15 -16 11
-23 -50 -86 -53 -54 -64 -72 -60 -90 4 -14 1 -25 -7 -28 -6 -2 -9 -8 -5 -12 4
-4 14 -2 22 5 13 10 18 9 31 -3 15 -16 21 -77 8 -77 -5 0 -25 16 -45 35 -37
35 -78 47 -78 21 0 -23 -46 -65 -61 -55 -22 14 -37 10 -44 -11 -5 -15 -15 -20
-45 -20 -46 0 -54 -10 -38 -45 11 -24 8 -29 -38 -70 -27 -24 -44 -44 -37 -45
6 0 15 5 19 11 3 6 17 8 29 5 20 -5 24 -2 27 21 3 24 8 28 41 31 24 2 37 8 37
18 0 15 2 15 80 15 94 0 101 -1 108 -18 4 -11 18 -18 37 -19 17 0 64 -7 105
-14 41 -8 82 -15 90 -15 19 0 25 -32 9 -51 -8 -9 -21 -13 -35 -10 -22 6 -36
-5 -40 -32 -1 -6 1 -10 6 -7 10 6 33 -22 37 -46 2 -16 0 -18 -15 -10 -9 5 -33
11 -53 14 -32 4 -36 2 -32 -14 3 -11 9 -22 14 -25 5 -3 9 -20 9 -38 l0 -34
-37 13 c-20 7 -56 28 -80 48 -39 31 -46 34 -71 25 -16 -6 -41 -8 -56 -4 -24 6
-27 10 -22 34 4 15 15 34 24 42 31 26 16 47 -55 77 -7 3 -13 -2 -13 -10 0 -8
6 -17 13 -20 25 -9 -11 -30 -52 -30 -36 0 -41 -3 -46 -29 -4 -16 -19 -36 -33
-45 -50 -32 -85 -64 -113 -106 -31 -47 -29 -60 8 -51 39 10 45 -13 16 -58 -21
-31 -32 -38 -58 -38 -31 0 -65 -25 -65 -48 0 -13 -36 -26 -50 -17 -5 3 -10 15
-10 25 0 28 -19 34 -41 14 -19 -17 -20 -17 -26 5 -5 20 -8 18 -29 -25 -25 -53
-21 -64 27 -64 34 0 41 -9 23 -28 -13 -12 -13 -16 -2 -23 7 -5 10 -9 6 -10
-16 -3 -23 -6 -48 -16 -14 -6 -33 -14 -43 -17 -10 -3 -15 -10 -12 -16 3 -5 1
-10 -4 -10 -6 0 -11 7 -11 15 0 13 -31 47 -75 84 -16 13 -16 15 -1 26 11 8 16
27 16 57 0 42 -2 46 -27 51 -15 3 -37 0 -48 -6 -11 -7 -26 -12 -34 -12 -8 0
-16 -6 -19 -14 -3 -10 0 -12 12 -8 24 9 45 -2 61 -33 13 -26 12 -29 -14 -58
-20 -23 -30 -29 -38 -21 -6 6 -20 8 -31 4 -27 -8 -18 -35 12 -35 11 0 36 -14
54 -31 27 -26 32 -36 27 -58 -10 -41 -31 -58 -55 -43 -17 10 -20 10 -20 -3 0
-8 -4 -15 -10 -15 -5 0 -10 -6 -10 -14 0 -28 -28 -24 -54 7 -25 30 -26 30 -41
11 -8 -10 -15 -25 -15 -31 0 -7 -10 -23 -21 -34 -14 -14 -18 -24 -11 -28 8 -5
5 -17 -8 -38 -14 -23 -29 -34 -55 -39 -20 -3 -34 -8 -33 -10 2 -1 44 -12 93
-23 87 -19 91 -19 108 -2 18 17 17 19 -8 49 -19 23 -25 40 -23 64 3 30 6 33
37 33 20 0 42 -7 51 -17 14 -16 15 -14 12 21 -4 37 -3 38 24 35 27 -3 47 -21
38 -36 -13 -21 27 -5 41 16 9 13 28 27 43 31 37 9 53 25 47 45 -3 10 5 26 20
40 22 20 25 21 31 6 3 -9 -1 -27 -10 -41 -16 -24 -15 -25 4 -25 11 0 20 -6 20
-12 0 -9 4 -8 10 2 7 12 11 8 16 -17 7 -37 11 -39 33 -19 9 7 30 18 46 25 29
10 29 11 -10 5 -34 -4 -42 -1 -54 18 -12 20 -11 24 13 44 14 13 21 26 16 29
-6 3 -10 1 -10 -5 0 -6 -5 -8 -11 -5 -13 9 19 34 45 35 29 0 121 99 129 138 8
42 74 109 90 93 15 -15 27 -14 27 4 0 19 50 65 71 65 9 0 21 -10 27 -22 9 -19
10 -15 6 25 -5 44 -4 47 18 48 17 1 18 3 6 6 -26 7 -22 20 7 25 14 3 25 1 25
-3 0 -5 9 -18 19 -28 24 -24 46 -63 43 -75 -2 -5 3 -5 10 1 35 27 98 18 98
-14 0 -31 40 -1 84 62 12 18 24 25 38 22 11 -3 21 0 25 9 3 8 13 14 22 14 14
0 14 2 1 10 -10 7 5 9 48 7 44 -1 65 2 71 12 6 10 13 10 28 2 11 -5 22 -8 25
-6 3 3 -4 32 -15 65 -19 58 -19 61 -2 80 17 19 17 20 -6 39 -13 11 -27 20 -31
21 -7 0 -58 33 -162 103 -22 15 -51 32 -63 37 -13 6 -23 18 -23 30 0 15 7 20
29 20 16 0 34 -7 41 -15 19 -23 27 -18 34 20 4 19 14 39 24 45 15 10 14 11 -5
7 -17 -4 -23 -1 -23 12 0 41 80 72 132 52 26 -10 28 -8 36 22 9 36 -7 49 -33
27 -11 -9 -15 -9 -15 -1 0 6 4 11 8 11 4 0 14 16 21 35 8 24 19 35 32 35 22 0
24 -11 7 -28 -9 -9 -5 -12 20 -12 35 0 37 -2 22 -29 -7 -14 -4 -20 13 -29 38
-18 56 -21 62 -11 4 5 20 -4 36 -21 18 -18 41 -30 56 -30 25 0 26 0 8 -20 -16
-17 -16 -20 -2 -20 8 0 18 6 20 13 4 9 8 9 16 -3 12 -17 6 -29 -20 -38 -16 -6
-11 -13 32 -41 38 -25 48 -36 38 -42 -15 -9 -11 -11 43 -12 15 -1 25 -4 22 -8
-4 -7 28 -22 48 -24 4 0 17 -8 28 -18 11 -9 26 -17 34 -17 15 0 28 -46 28
-102 0 -46 23 -52 31 -8 4 16 16 39 27 50 11 11 20 27 20 35 0 15 10 19 43 16
9 -1 31 7 47 19 38 27 64 23 67 -10 2 -42 -69 -130 -106 -130 -9 0 -25 -17
-36 -37 -24 -43 -44 -53 -52 -25 -9 36 -48 40 -167 19 -107 -19 -111 -19 -180
-2 -39 10 -77 20 -85 23 -10 4 -7 -7 8 -35 23 -39 63 -63 108 -63 11 0 28 -9
37 -19 10 -11 28 -21 40 -23 14 -2 22 -11 24 -28 3 -21 2 -22 -12 -11 -9 7
-16 10 -16 5 0 -5 -5 -2 -10 6 -5 8 -10 10 -10 4 0 -7 -7 -14 -14 -17 -10 -4
-13 -1 -9 9 4 10 -3 14 -24 14 -16 0 -38 7 -50 15 -16 11 -28 13 -47 5 -18 -6
-29 -6 -39 3 -7 7 -23 18 -36 25 -23 14 -23 13 -16 -24 7 -42 47 -90 65 -79 6
4 16 3 23 -2 19 -15 98 -36 141 -39 21 -2 41 -5 44 -8 8 -9 -29 -46 -46 -46
-13 0 -12 -3 2 -19 19 -21 14 -41 -10 -41 -14 0 -100 63 -116 84 -3 5 -4 16 0
24 4 11 1 14 -10 9 -9 -3 -23 2 -33 13 -10 11 -23 17 -29 13 -6 -3 -8 -3 -4 2
10 11 -17 35 -40 35 -12 0 -25 -13 -36 -37 -27 -60 -53 -103 -77 -129 -12 -13
-20 -24 -16 -24 3 0 -1 -19 -9 -42 -12 -36 -12 -44 0 -56 11 -11 18 -12 35 -2
28 14 51 -2 51 -36 0 -19 5 -24 26 -24 28 0 28 3 3 66 -18 46 -7 64 41 64 22
0 40 5 40 10 0 15 17 12 36 -7 17 -17 18 -17 11 0 -4 10 -7 23 -7 29 0 6 -7 8
-15 4 -19 -7 -19 8 0 24 13 11 13 14 -2 25 -24 18 -13 26 24 19 22 -4 37 -17
52 -44 11 -21 21 -44 21 -53 0 -8 7 -28 15 -43 8 -16 15 -47 15 -69 0 -39 0
-39 20 -20 16 17 25 45 29 98 1 5 5 6 9 3 13 -8 28 7 50 50 l21 42 -22 -5
c-12 -3 -18 -1 -12 4 6 4 15 17 21 27 13 25 49 28 69 6 25 -27 30 -103 10
-134 -20 -30 -14 -45 10 -25 41 34 65 63 63 77 -3 17 30 38 74 47 30 6 34 15
44 98 l6 58 -26 -7 c-34 -8 -56 10 -56 47 0 32 23 59 51 59 12 0 19 7 19 18 0
11 8 29 19 41 24 27 53 19 45 -13 -5 -20 -2 -22 29 -18 29 3 36 0 42 -18 4
-11 2 -27 -4 -34 -7 -9 -7 -16 0 -23 6 -6 9 -25 7 -44 -2 -26 -8 -34 -28 -39
-14 -3 -26 -14 -28 -24 -2 -11 0 -16 6 -12 6 4 26 -7 45 -24 37 -32 77 -39 97
-15 17 20 4 49 -19 42 -10 -2 -25 -1 -32 4 -20 12 7 56 44 68 21 8 27 15 23
27 -3 8 -6 25 -6 36 0 17 -5 20 -30 16 -36 -5 -45 4 -31 29 6 10 11 12 11 6 0
-15 40 -18 40 -3 0 6 9 10 19 10 11 0 22 6 24 13 3 6 6 2 6 -10 1 -12 4 -28 7
-37 3 -9 1 -16 -6 -16 -6 0 -8 6 -4 13 5 8 4 9 -3 2 -13 -13 -24 -95 -12 -95
5 0 11 -12 15 -27 4 -16 13 -33 21 -40 9 -7 13 -21 10 -33 -4 -16 0 -20 20
-20 l25 0 -21 34 c-26 41 -19 63 20 71 29 6 41 25 16 25 -7 0 -18 9 -24 20
-11 16 -10 21 6 30 26 13 44 13 36 -1 -4 -6 2 -5 14 3 12 7 21 17 21 23 0 5 5
2 10 -7 7 -11 7 -25 -1 -41 -9 -20 -6 -34 16 -83 34 -73 62 -114 81 -114 20 0
18 43 -4 63 -9 9 -27 25 -39 36 -22 20 -22 20 -3 70 10 27 15 53 12 56 -3 3 4
8 16 12 12 3 22 10 22 15 0 5 -5 6 -12 2 -7 -4 -8 -3 -4 4 4 6 13 9 21 5 8 -3
15 -1 15 5 0 6 -5 12 -11 14 -23 8 26 68 73 88 26 11 49 20 51 20 9 0 27 -62
27 -91 0 -28 -42 -69 -72 -69 -23 0 -58 -44 -58 -72 0 -34 24 -55 45 -38 8 7
15 21 15 31 0 19 32 38 75 44 46 6 56 16 51 49 -3 17 -3 25 0 19 9 -20 24 -15
24 7 0 11 -6 21 -12 21 -7 1 1 4 17 8 47 11 58 3 51 -38 -3 -20 -13 -41 -21
-48 -15 -10 -15 -12 2 -17 10 -3 49 -10 86 -15 38 -5 74 -14 80 -19 7 -5 27
-13 45 -17 27 -6 61 -39 50 -50 -2 -2 -37 0 -78 5 -81 9 -98 3 -95 -32 1 -18
8 -24 36 -26 19 -2 42 -13 53 -24 18 -19 18 -20 -15 -54 -23 -24 -39 -32 -52
-28 -43 14 -131 13 -151 -2 -11 -8 -30 -14 -43 -14 -12 0 -25 -4 -28 -10 -3
-6 -15 -10 -25 -10 -13 0 -17 -5 -14 -15 4 -8 14 -15 24 -15 11 0 22 -5 25
-10 3 -6 -4 -10 -17 -10 -32 -1 -60 -24 -52 -44 3 -9 1 -16 -5 -16 -6 0 -11 5
-11 11 0 6 -10 9 -23 8 -12 -1 -30 2 -40 6 -10 4 -23 3 -29 -3 -6 -6 -17 -8
-24 -5 -18 7 -18 -7 2 -35 13 -19 21 -22 50 -16 27 5 35 3 41 -12 11 -30 36
-54 56 -54 11 0 34 -12 51 -27 17 -16 42 -35 56 -44 18 -12 24 -24 23 -51 l-1
-35 47 8 c101 16 371 90 396 109 6 4 27 10 47 14 41 7 66 30 27 24 -22 -3 -24
1 -27 38 -2 26 -11 49 -23 59 -26 24 -26 89 1 117 15 16 33 22 75 23 31 1 61
7 68 15 7 7 7 10 1 7 -6 -4 -19 2 -29 13 -12 13 -31 20 -56 20 -36 0 -51 15
-54 52 0 3 -10 18 -22 31 -14 17 -20 33 -16 48 5 17 3 20 -7 14 -10 -6 -11 -4
-5 11 5 10 11 52 13 91 3 60 7 76 24 88 25 17 38 11 38 -16 0 -26 18 -24 23 4
7 37 6 -54 -2 -115 -5 -44 -4 -59 7 -63 7 -3 10 -9 7 -15 -3 -5 -2 -10 4 -10
14 0 91 -52 91 -62 0 -4 -8 -8 -18 -8 -9 0 -23 -9 -30 -21 -16 -25 -8 -37 12
-20 9 8 28 10 49 6 20 -4 37 -2 41 3 7 11 -19 42 -35 42 -5 0 -9 13 -9 28 0
40 29 63 76 60 23 -1 39 2 42 10 2 7 10 12 17 12 7 0 15 7 19 15 5 13 9 13 26
3 23 -14 26 -36 7 -44 -18 -7 -20 -54 -2 -54 7 0 17 5 21 12 5 7 11 5 21 -7
17 -25 17 -40 -3 -60 -15 -14 -17 -14 -30 2 -12 16 -15 16 -24 3 -17 -27 -11
-39 25 -46 42 -8 69 1 62 20 -7 17 33 46 61 46 10 0 27 7 38 15 19 15 19 16
-1 14 -11 -1 -25 -1 -31 0 -17 1 -25 41 -13 62 7 14 3 31 -15 66 -35 69 -39
90 -22 100 8 4 17 20 21 34 6 26 6 26 -38 22 -38 -4 -47 -1 -61 18 -15 22 -16
22 -17 4 0 -11 -3 -14 -6 -7 -2 6 -16 12 -29 12 -27 0 -33 17 -9 26 10 4 15
20 15 45 0 27 4 39 14 39 17 0 29 27 16 35 -13 8 -13 45 -1 45 6 0 13 -4 16
-10 3 -5 11 -10 16 -10 6 0 8 4 5 9 -6 10 16 21 41 21 13 0 13 -2 2 -16 -7 -9
-23 -20 -36 -25 -34 -13 -28 -37 17 -81 39 -36 70 -49 70 -28 0 6 6 9 12 8 8
-2 12 7 10 25 -3 22 1 27 17 27 14 0 21 -6 21 -19 0 -16 9 -20 56 -23 44 -2
58 0 61 12 2 8 13 34 25 58 12 23 18 45 15 48 -3 3 -2 17 3 30 11 29 -4 33
-21 6 -11 -17 -16 -14 -60 29 -52 51 -60 64 -31 55 15 -5 17 2 16 57 -1 90 -1
89 -24 75 -11 -7 -20 -23 -20 -36 0 -19 -4 -22 -27 -16 -16 4 -38 16 -50 27
-22 20 -23 20 -24 1 -1 -10 0 -29 1 -41 2 -32 -35 -30 -56 2 -15 23 -66 37
-63 18 1 -5 1 -12 0 -18 -1 -13 -81 -19 -81 -6 0 5 -9 13 -20 16 -20 6 -27 33
-12 50 4 6 16 34 26 63 22 64 10 89 -22 48 -19 -24 -21 -25 -36 -10 -12 12
-20 13 -29 5 -7 -5 -35 -11 -63 -13 -45 -3 -49 -1 -48 18 0 19 -2 21 -23 11
-17 -8 -20 -13 -11 -19 7 -4 9 -8 4 -8 -6 0 -5 -5 2 -12 19 -19 14 -40 -18
-78 -25 -29 -32 -32 -40 -20 -5 8 -10 20 -10 26 0 16 -54 64 -71 64 -9 0 -19
3 -23 7 -4 4 -15 8 -24 8 -55 4 -63 6 -57 15 3 6 -1 7 -10 4 -11 -5 -4 -14 30
-35 46 -29 47 -34 23 -85 -7 -16 -6 -29 6 -52 9 -17 16 -37 16 -45 0 -8 9 -22
20 -32 23 -21 27 -65 6 -65 -8 0 -16 -6 -19 -12 -3 -10 -9 -10 -30 1 -14 8
-25 17 -25 20 1 3 -4 18 -11 32 -12 25 -14 26 -42 12 -33 -16 -33 -19 -15 -52
13 -23 13 -23 19 -2 11 44 24 19 24 -46 0 -52 -2 -60 -8 -35 -12 57 -19 48
-18 -24 2 -84 10 -129 26 -129 6 0 15 -3 19 -7 4 -5 0 -8 -10 -8 -10 0 -27
-22 -46 -63 -28 -58 -33 -63 -62 -62 l-32 0 -3 90 c-5 124 -8 134 -43 142 -17
3 -33 9 -35 14 -3 4 -22 -3 -42 -16 -40 -28 -65 -31 -80 -12 -7 8 -5 20 6 38
54 86 86 127 123 162 37 34 42 44 45 90 1 29 8 64 14 79 10 24 8 32 -18 67
-29 40 -30 40 -50 22 -33 -31 -166 -41 -148 -11 3 4 -2 10 -10 14 -23 9 -18
32 12 52 16 10 31 19 35 19 12 0 22 16 25 38 2 18 -2 23 -22 25 -30 2 -58 15
-102 48 -27 20 -30 28 -24 51 8 28 8 28 85 25 48 -2 83 2 92 9 21 17 77 -26
69 -54 -5 -18 -2 -17 19 8 14 17 26 33 26 38 0 11 19 8 56 -9 25 -12 35 -24
40 -50 7 -40 23 -53 36 -30 12 21 42 20 79 -1 25 -15 31 -16 39 -4 6 11 12 12
22 3 18 -15 38 3 38 33 0 26 29 55 55 55 19 0 36 17 61 63 14 26 14 31 -2 55
-10 15 -53 60 -96 100 -43 41 -78 81 -78 89 0 8 4 12 9 8 6 -3 15 4 21 16 l12
21 19 -21 c10 -11 19 -25 19 -31 0 -19 19 -10 26 12 18 58 54 62 54 6 0 -23 6
-49 14 -57 7 -9 17 -26 20 -38 5 -16 2 -23 -15 -28 -34 -11 -5 -22 49 -20 68
4 123 16 127 29 2 6 6 23 9 39 9 41 55 37 100 -8 20 -19 46 -35 58 -35 39 0
94 -75 64 -86 -25 -10 -25 -32 0 -61 l25 -28 -7 30 c-11 49 -10 50 19 48 21
-1 27 2 25 15 -2 11 5 18 19 20 17 3 24 -3 29 -22 9 -37 -3 -73 -26 -79 -12
-3 -20 -13 -20 -26 0 -28 18 -26 42 4 11 14 25 25 33 25 16 0 48 95 40 120 -7
23 11 35 30 20 23 -19 30 14 13 63 -9 23 -26 75 -39 116 -18 56 -34 86 -71
125 -38 41 -50 48 -60 38 -6 -6 -20 -12 -29 -12 -10 0 -21 -10 -24 -22 -18
-64 -26 -75 -51 -70 -13 2 -30 0 -37 -5 -32 -26 -147 -25 -147 2 0 16 -72 38
-81 24 -7 -11 -19 12 -19 37 0 10 7 13 26 8 18 -5 29 -1 39 12 18 24 19 34 2
34 -8 0 -22 18 -33 40 -13 27 -26 40 -39 40 -11 0 -36 16 -54 36 -24 25 -36
32 -41 23 -5 -6 -15 -9 -25 -6 -9 4 -13 12 -9 18 5 8 -5 9 -35 4 -31 -5 -41
-4 -41 7 0 7 -13 19 -30 25 -18 7 -30 18 -30 29 0 15 3 15 24 -5 21 -19 24
-20 30 -6 8 22 8 80 -1 88 -9 9 -43 -22 -43 -40 0 -7 -9 -13 -21 -13 -11 0
-17 -4 -14 -10 3 -6 -5 -10 -19 -10 -14 0 -28 5 -31 11 -5 6 -13 3 -22 -10
l-14 -21 -35 26 c-18 14 -31 30 -28 35 3 5 0 9 -5 9 -6 0 -11 -4 -11 -10 0 -5
-12 -10 -27 -10 -19 0 -24 3 -16 11 14 14 5 49 -13 49 -8 0 -19 12 -24 26 -14
36 -12 84 3 84 9 0 9 2 -1 9 -23 14 -10 56 18 59 14 2 35 16 48 30 13 15 22
20 19 12 -3 -10 2 -16 14 -16 14 0 18 7 16 31 -2 24 2 29 16 27 9 -2 17 1 17
7 0 10 64 -2 83 -16 14 -11 27 -11 43 0 7 4 19 -4 29 -19 15 -23 133 -145 138
-142 1 1 31 -2 67 -5 36 -4 82 -3 103 2 34 8 41 6 76 -23 22 -18 53 -39 70
-46 17 -7 31 -16 31 -21 0 -5 18 -20 40 -34 l41 -26 32 24 c56 42 94 56 136
50 34 -5 42 -11 64 -52 44 -81 80 -184 79 -223 -1 -28 3 -40 18 -48 11 -6 20
-17 20 -25 0 -8 3 -15 8 -15 4 0 7 -18 7 -41 -1 -50 10 -58 37 -27 l21 23 -6
-32 c-4 -18 -2 -35 4 -39 7 -4 6 -11 -2 -20 -8 -10 -8 -14 0 -14 6 0 11 -7 11
-15 0 -20 50 -32 60 -14 5 7 6 17 4 21 -3 5 8 33 25 63 17 30 29 56 26 56 -3
1 -9 2 -14 3 -5 0 -13 4 -17 9 -4 4 -12 7 -18 7 -7 0 -6 -3 1 -8 14 -9 4 -64
-13 -69 -23 -7 -35 14 -28 56 6 35 10 41 25 36 20 -7 26 13 10 30 -6 6 -11 33
-13 60 -2 33 -7 49 -15 47 -16 -3 -17 15 -1 20 9 3 8 16 -1 54 -21 84 -49 131
-102 169 -66 47 -65 68 4 99 45 20 66 23 128 19 137 -8 136 -7 169 -73 17 -33
37 -86 45 -117 20 -75 19 -202 -1 -273 -13 -47 -22 -60 -54 -80 -56 -35 -62
-52 -50 -140 6 -41 14 -94 17 -118 4 -33 2 -47 -13 -63 -16 -17 -16 -22 -4
-29 8 -6 31 -10 51 -10 20 0 57 -3 83 -6 46 -7 46 -7 40 -39 -5 -29 -3 -34 18
-40 12 -4 31 -14 40 -22 11 -10 26 -13 47 -8 26 6 32 3 42 -18 9 -19 17 -23
41 -21 43 5 31 -16 -28 -48 -106 -58 -107 -117 -1 -69 51 23 67 40 101 108 14
28 43 64 63 80 54 40 63 50 63 68 0 9 12 41 26 71 14 31 24 58 21 61 -3 3 -2
10 3 17 50 61 60 76 60 90 0 9 4 16 10 16 5 0 21 22 35 49 13 27 33 56 43 63
13 9 23 38 33 92 7 43 19 80 26 83 10 4 13 324 13 1599 l0 1594 -3750 0 -3750
0 0 -836z m3394 46 l31 -1 -35 -15 c-64 -28 -331 -58 -625 -70 -103 -5 -98 8
10 25 319 51 504 72 559 65 16 -2 43 -4 60 -4z m-757 -96 c-3 -3 -12 -4 -19
-1 -8 3 -5 6 6 6 11 1 17 -2 13 -5z m-74 -11 c-7 -2 -19 -2 -25 0 -7 3 -2 5
12 5 14 0 19 -2 13 -5z m-706 -423 c11 -21 17 -43 13 -47 -5 -4 -11 -23 -15
-40 -5 -24 -3 -33 7 -33 7 0 2 -9 -11 -19 -26 -20 -51 -18 -51 5 0 21 -30 17
-51 -8 -11 -11 -22 -18 -26 -14 -4 4 -1 11 6 16 12 7 12 11 -2 24 -8 9 -20 16
-27 16 -6 0 -16 11 -22 25 -9 21 -9 29 3 40 21 21 122 75 140 75 10 0 25 -17
36 -40z m159 -38 c1 -7 0 -8 -3 -2 -2 5 -10 10 -17 10 -9 0 -12 -14 -11 -42 1
-24 -3 -52 -9 -63 -6 -11 -11 -23 -12 -27 -1 -5 -2 -11 -3 -14 0 -3 -8 2 -16
10 -9 9 -24 20 -33 26 -15 8 -15 11 -2 19 8 5 17 8 21 5 15 -9 18 14 4 26 -20
17 -19 47 3 59 23 14 75 9 78 -7z m170 -40 c-8 -8 -19 -11 -25 -7 -16 9 -4 24
19 22 17 -1 18 -3 6 -15z m-56 -12 c0 -5 -2 -10 -4 -10 -3 0 -8 5 -11 10 -3 6
-1 10 4 10 6 0 11 -4 11 -10z m1330 -14 c0 -3 -4 -8 -10 -11 -5 -3 -10 -1 -10
4 0 6 5 11 10 11 6 0 10 -2 10 -4z m184 -31 c-4 -8 -10 -12 -15 -9 -14 8 -10
24 6 24 9 0 12 -6 9 -15z m-174 -13 c0 -11 -60 -45 -67 -39 -8 9 7 27 22 27 7
0 16 7 19 16 6 14 26 11 26 -4z m-70 -2 c0 -5 -9 -10 -20 -10 -11 0 -20 5 -20
10 0 6 9 10 20 10 11 0 20 -4 20 -10z m-1880 -32 c-16 -17 -23 -19 -32 -10
-10 10 -10 15 2 22 8 5 23 10 33 10 16 0 16 -2 -3 -22z m298 0 c-4 -31 -26
-34 -24 -3 0 14 7 25 14 25 8 0 12 -9 10 -22z m1709 -10 c-3 -7 -5 -2 -5 12 0
14 2 19 5 13 2 -7 2 -19 0 -25z m2256 0 c108 -30 135 -46 107 -63 -5 -3 -10
-1 -10 4 0 20 -38 11 -43 -10 -4 -14 -2 -19 8 -15 17 6 25 -47 11 -65 -15 -19
-57 -24 -67 -7 -5 7 -9 23 -9 36 0 12 -6 22 -12 22 -7 0 -2 7 10 16 12 8 22
20 22 26 0 6 -8 4 -18 -5 -39 -36 -102 -11 -102 39 0 13 -4 24 -9 24 -11 0
-24 30 -13 30 4 0 60 -14 125 -32z m-4063 -9 c0 -12 -7 -19 -20 -19 -19 0 -28
28 -14 43 11 11 34 -5 34 -24z m194 12 c7 -11 -22 -23 -35 -15 -5 3 -7 10 -4
15 8 12 32 12 39 0z m199 -48 c-7 -2 -19 -2 -25 0 -7 3 -2 5 12 5 14 0 19 -2
13 -5z m-178 -13 c-3 -5 -10 -10 -16 -10 -5 0 -9 5 -9 10 0 6 7 10 16 10 8 0
12 -4 9 -10z m73 -20 c-2 -6 -8 -6 -18 0 -13 9 -13 11 0 20 15 10 25 0 18 -20z
m4049 -6 c38 -14 98 -37 135 -51 37 -14 74 -23 83 -19 9 3 33 -5 55 -19 22
-14 52 -25 67 -25 l28 0 -28 -15 c-34 -17 -57 -40 -57 -55 0 -6 -7 -18 -15
-26 -8 -9 -15 -11 -15 -6 0 16 -53 34 -115 39 -74 6 -152 39 -159 69 -3 11
-19 38 -36 59 -29 37 -40 75 -20 75 5 0 40 -12 77 -26z m-4292 -12 c-2 -9 -4
-19 -5 -22 0 -3 -5 3 -11 13 -5 9 -7 22 -4 27 9 15 24 2 20 -18z m3579 -15
c-10 -27 -23 -19 -22 14 1 26 3 28 15 16 8 -7 11 -21 7 -30z m546 23 c0 -5 -2
-10 -4 -10 -3 0 -8 5 -11 10 -3 6 -1 10 4 10 6 0 11 -4 11 -10z m-3480 -62
c-11 -11 -37 -24 -56 -29 -19 -6 -34 -14 -34 -19 0 -6 -14 -10 -31 -10 -26 0
-30 3 -27 23 2 16 10 22 28 22 14 0 34 8 44 18 11 9 25 17 31 17 6 0 17 9 25
20 14 19 14 19 28 -1 13 -18 12 -23 -8 -41z m-530 37 c0 -8 -9 -15 -20 -15
-11 0 -20 7 -20 15 0 8 9 15 20 15 11 0 20 -7 20 -15z m1335 5 c3 -5 1 -10 -4
-10 -6 0 -11 5 -11 10 0 6 2 10 4 10 3 0 8 -4 11 -10z m1212 -52 c-3 -7 -5 -2
-5 12 0 14 2 19 5 13 2 -7 2 -19 0 -25z m-1226 10 c0 -10 2 -10 6 0 2 6 9 12
14 12 12 0 12 -27 -1 -35 -12 -7 -50 12 -50 25 0 15 30 12 31 -2z m1130 -71
c-6 -6 -11 -25 -11 -41 0 -17 -5 -38 -10 -46 -7 -10 -10 8 -10 61 0 85 19 124
33 68 5 -20 4 -36 -2 -42z m1369 69 c0 -3 -4 -8 -10 -11 -5 -3 -10 -1 -10 4 0
6 5 11 10 11 6 0 10 -2 10 -4z m-3729 -29 c-13 -13 -26 -3 -16 12 3 6 11 8 17
5 6 -4 6 -10 -1 -17z m232 4 c-7 -27 -33 -35 -52 -16 -14 13 -13 15 7 15 12 0
22 5 22 10 0 6 6 10 14 10 9 0 12 -7 9 -19z m-159 -9 c2 -4 -2 -16 -10 -27
-13 -17 -16 -18 -24 -5 -15 24 -12 40 9 40 11 0 22 -3 25 -8z m462 -29 c2 -13
0 -23 -5 -23 -13 0 -42 36 -34 44 13 13 36 1 39 -21z m2984 -13 c0 -5 -4 -10
-10 -10 -5 0 -10 5 -10 10 0 6 5 10 10 10 6 0 10 -4 10 -10z m-3435 -52 c-14
-36 -55 -52 -55 -23 0 18 38 54 57 55 9 0 9 -8 -2 -32z m3405 17 c-7 -8 -17
-12 -22 -9 -6 4 -5 10 3 15 22 14 33 10 19 -6z m1100 -5 c0 -11 -4 -20 -9 -20
-5 0 -7 9 -4 20 3 11 7 20 9 20 2 0 4 -9 4 -20z m139 4 c11 -10 -13 -20 -39
-16 -25 4 -28 7 -19 18 10 12 43 11 58 -2z m-4505 -9 c7 -19 4 -30 -9 -30 -5
0 -20 -6 -32 -12 -17 -10 -22 -10 -27 2 -8 21 3 43 22 48 32 9 40 7 46 -8z
m3536 -10 c0 -8 -4 -15 -10 -15 -5 0 -7 7 -4 15 4 8 8 15 10 15 2 0 4 -7 4
-15z m100 5 c0 -13 -11 -13 -30 0 -12 8 -11 10 8 10 12 0 22 -4 22 -10z m895
-1 c-4 -6 2 -13 14 -16 11 -3 18 -10 15 -15 -3 -5 -14 -2 -25 8 -16 14 -18 34
-3 34 3 0 2 -5 -1 -11z m-4355 -8 c0 -6 -4 -13 -10 -16 -5 -3 -10 1 -10 9 0 9
5 16 10 16 6 0 10 -4 10 -9z m4433 -25 c-1 -13 4 -16 18 -13 10 3 19 1 19 -4
0 -5 3 -8 8 -8 21 4 31 -3 29 -20 -1 -16 -8 -19 -39 -18 -21 1 -38 5 -38 10 0
4 -4 6 -9 3 -9 -6 -22 54 -14 67 8 14 28 1 26 -17z m-4799 -22 c10 -27 7 -34
-18 -34 -22 0 -42 31 -28 44 11 12 40 5 46 -10z m171 6 c-3 -5 -11 -10 -16
-10 -6 0 -7 5 -4 10 3 6 11 10 16 10 6 0 7 -4 4 -10z m1526 -10 c4 -36 2 -50
-6 -47 -5 1 -11 9 -12 17 -1 8 -7 16 -14 19 -8 2 -7 6 2 12 19 12 29 11 30 -1z
m2842 -10 c-3 -11 -9 -20 -14 -20 -14 0 -11 28 4 33 6 3 13 6 14 6 0 1 -1 -8
-4 -19z m-2903 0 c12 -8 11 -10 -7 -10 -13 0 -23 5 -23 10 0 13 11 13 30 0z
m1228 -21 c-2 -6 -8 -10 -13 -10 -5 0 -11 4 -13 10 -2 6 4 11 13 11 9 0 15 -5
13 -11z m237 1 c3 -5 1 -10 -4 -10 -6 0 -11 5 -11 10 0 6 2 10 4 10 3 0 8 -4
11 -10z m1480 -30 c3 -5 1 -10 -4 -10 -6 0 -11 5 -11 10 0 6 2 10 4 10 3 0 8
-4 11 -10z m-170 -10 c3 -5 1 -10 -4 -10 -6 0 -11 5 -11 10 0 6 2 10 4 10 3 0
8 -4 11 -10z m-2795 -10 c0 -5 -7 -10 -16 -10 -8 0 -12 5 -9 10 3 6 10 10 16
10 5 0 9 -4 9 -10z m3198 -12 c-2 -13 -7 -23 -13 -23 -5 0 -11 10 -13 23 -2
15 2 22 13 22 11 0 15 -7 13 -22z m-1658 -22 c-8 -8 -13 -7 -20 4 -12 20 -1
33 16 19 11 -9 12 -15 4 -23z m-3172 12 c-3 -7 -11 -13 -18 -13 -7 0 -15 6
-17 13 -3 7 4 12 17 12 13 0 20 -5 18 -12z m1497 -28 c3 -6 0 -10 -9 -10 -8 0
-21 -3 -30 -6 -11 -4 -16 0 -16 13 0 11 3 23 6 26 8 7 40 -8 49 -23z m795 6
c0 -13 -7 -29 -15 -36 -8 -7 -15 -21 -15 -31 0 -11 -2 -19 -4 -19 -2 0 -11 -3
-20 -6 -13 -5 -16 1 -16 29 0 52 19 87 47 87 18 0 23 -6 23 -24z m1870 4 c0
-5 -4 -10 -10 -10 -5 0 -10 5 -10 10 0 6 5 10 10 10 6 0 10 -4 10 -10z m780 1
c0 -14 -28 -33 -39 -27 -16 10 -1 36 20 36 10 0 19 -4 19 -9z m-2546 -36 c-4
-8 -12 -15 -20 -15 -20 0 -17 18 4 23 9 3 18 5 19 6 1 0 0 -6 -3 -14z m2626
-20 c0 -16 -6 -25 -15 -25 -18 0 -20 21 -3 38 17 17 18 16 18 -13z m-4787 -32
c10 -12 18 -42 20 -69 2 -45 1 -48 -28 -56 -39 -10 -95 0 -95 18 0 8 -9 14
-19 14 -10 0 -21 7 -25 15 -3 8 0 15 6 15 22 0 48 33 48 61 0 25 3 27 38 26
24 -1 43 -9 55 -24z m1333 0 c-10 -10 -19 5 -10 18 6 11 8 11 12 0 2 -7 1 -15
-2 -18z m1479 17 c3 -5 1 -10 -4 -10 -6 0 -11 5 -11 10 0 6 2 10 4 10 3 0 8
-4 11 -10z m1770 -9 c-3 -6 -14 -11 -23 -11 -15 1 -15 2 2 15 21 16 32 13 21
-4z m-3365 -15 c0 -13 7 -29 16 -37 14 -11 14 -13 0 -21 -23 -13 -40 0 -25 18
9 11 8 14 -9 14 -13 0 -21 8 -24 23 -4 18 0 23 19 25 18 1 23 -3 23 -22z
m1960 -6 c0 -11 -26 -31 -32 -24 -11 11 4 43 18 37 8 -3 14 -9 14 -13z m1862
5 c0 -5 -5 -11 -11 -13 -6 -2 -11 4 -11 13 0 9 5 15 11 13 6 -2 11 -8 11 -13z
m-352 -5 c0 -5 -6 -11 -12 -14 -10 -3 -8 -9 5 -19 23 -19 22 -27 -4 -27 -11 0
-18 4 -15 9 3 4 -3 16 -14 26 -11 10 -18 20 -16 24 6 9 56 10 56 1z m-3360
-46 c0 -2 -7 -4 -15 -4 -8 0 -15 4 -15 10 0 5 7 7 15 4 8 -4 15 -8 15 -10z
m1833 -56 c-2 -5 -9 -8 -16 -8 -6 0 -27 -15 -47 -32 l-35 -33 33 35 c17 20 32
42 32 49 0 7 5 22 12 34 12 22 12 21 18 -8 4 -16 5 -33 3 -37z m2066 28 c2
-11 -5 -25 -14 -32 -10 -7 -23 -23 -29 -35 -21 -42 -43 -47 -71 -17 -20 22
-23 31 -15 52 19 50 120 75 129 32z m-1839 4 c0 -5 -4 -10 -10 -10 -5 0 -10 5
-10 10 0 6 5 10 10 10 6 0 10 -4 10 -10z m-2125 -10 c3 -6 -1 -7 -9 -4 -18 7
-21 14 -7 14 6 0 13 -4 16 -10z m2024 -49 c-14 -4 -25 8 -33 39 -7 24 -6 24
18 -5 15 -17 21 -32 15 -34z m1071 19 c0 -5 -4 -10 -10 -10 -5 0 -10 5 -10 10
0 6 5 10 10 10 6 0 10 -4 10 -10z m135 1 c3 -6 -4 -15 -16 -21 -15 -8 -19 -9
-15 -1 4 6 1 11 -6 11 -9 0 -9 3 2 10 19 12 27 12 35 1z m-168 -22 c8 -3 9 -9
4 -18 -12 -19 -31 -5 -31 22 0 13 3 17 8 11 4 -6 12 -13 19 -15z m73 -40 c0
-14 -26 -11 -39 5 -9 11 -6 12 14 8 14 -2 25 -8 25 -13z m-1410 -19 c0 -5 -4
-10 -10 -10 -5 0 -10 5 -10 10 0 6 5 10 10 10 6 0 10 -4 10 -10z m90 6 c0 -2
-7 -6 -15 -10 -8 -3 -15 -1 -15 4 0 6 7 10 15 10 8 0 15 -2 15 -4z m814 -19
c13 -20 5 -30 -18 -21 -9 3 -16 15 -16 26 0 22 18 20 34 -5z m230 -88 c-3 -5
-10 -7 -15 -3 -5 3 -7 10 -3 15 3 5 10 7 15 3 5 -3 7 -10 3 -15z m111 -18 c0
-32 -20 -57 -23 -29 -1 7 -4 26 -8 41 -6 25 -4 28 12 25 14 -2 19 -12 19 -37z
m-1105 25 c0 -3 -4 -8 -10 -11 -5 -3 -10 -1 -10 4 0 6 5 11 10 11 6 0 10 -2
10 -4z m915 -126 c-3 -5 -10 -10 -16 -10 -5 0 -9 5 -9 10 0 6 7 10 16 10 8 0
12 -4 9 -10z m15 -30 c0 -5 -2 -10 -4 -10 -3 0 -8 5 -11 10 -3 6 -1 10 4 10 6
0 11 -4 11 -10z m-80 -30 c0 -5 -5 -10 -11 -10 -5 0 -7 5 -4 10 3 6 8 10 11
10 2 0 4 -4 4 -10z m90 0 c0 -5 -8 -10 -17 -10 -15 0 -16 2 -3 10 19 12 20 12
20 0z m-1382 -250 c40 -38 26 -50 -31 -27 -18 8 -38 12 -44 10 -14 -5 -18 19
-6 30 13 14 60 6 81 -13z m1443 -57 c-26 -46 -31 -49 -31 -21 0 17 6 28 18 31
9 3 18 5 20 6 1 0 -2 -7 -7 -16z m-1191 -25 c0 -5 -4 -8 -10 -8 -5 0 -10 10
-10 23 0 18 2 19 10 7 5 -8 10 -18 10 -22z m-100 -174 c0 -8 -4 -12 -10 -9 -5
3 -10 10 -10 16 0 5 5 9 10 9 6 0 10 -7 10 -16z m-462 -41 c5 -10 7 -24 5 -30
-6 -17 -33 9 -33 31 0 21 17 20 28 -1z m66 -24 c33 -26 21 -44 -23 -34 -28 6
-44 25 -21 25 5 0 7 7 4 15 -9 21 9 19 40 -6z m735 -53 c19 -19 37 -33 42 -31
4 3 10 -2 13 -10 3 -9 0 -17 -7 -20 -41 -12 -69 -14 -87 -5 -11 5 -29 15 -40
20 -11 6 -26 10 -33 10 -8 0 -19 16 -25 36 -9 30 -8 36 6 40 9 3 24 9 32 14
20 10 57 -10 99 -54z m161 20 c0 -13 -20 -26 -41 -26 -5 0 -9 9 -9 20 0 15 7
20 25 20 15 0 25 -6 25 -14z m920 -141 c0 -8 -4 -15 -9 -15 -13 0 -22 16 -14
24 11 11 23 6 23 -9z m-2045 -62 c4 -21 16 -50 26 -65 19 -28 19 -28 -1 -28
-11 0 -20 7 -20 15 0 8 -4 15 -9 15 -13 0 -28 50 -23 78 5 34 20 26 27 -15z
m612 11 c3 -8 0 -26 -7 -39 -15 -28 -7 -55 17 -55 18 0 73 -47 73 -63 0 -6
-16 -25 -35 -43 -18 -19 -30 -34 -25 -34 15 0 12 -19 -4 -36 -8 -7 -16 -19
-18 -26 -3 -7 -22 -13 -46 -13 -23 0 -42 -4 -42 -9 0 -6 -7 0 -16 12 -9 13
-20 55 -26 95 -5 40 -14 76 -19 82 -5 5 -9 19 -9 32 0 15 -10 27 -35 38 -37
18 -61 42 -52 51 3 4 43 1 88 -5 77 -12 82 -11 100 8 23 25 47 27 56 5z m477
-59 c4 -11 -1 -15 -19 -15 -16 0 -25 -6 -25 -15 0 -8 5 -15 10 -15 6 0 10 -4
10 -9 0 -5 -10 -4 -22 2 -16 7 -23 20 -24 39 -1 25 2 28 31 28 20 0 35 -6 39
-15z m183 -37 c-3 -8 -6 -5 -6 6 -1 11 2 17 5 13 3 -3 4 -12 1 -19z m33 -2 c0
-3 -4 -8 -10 -11 -5 -3 -10 -1 -10 4 0 6 5 11 10 11 6 0 10 -2 10 -4z m-1293
-83 c-3 -10 -5 -4 -5 12 0 17 2 24 5 18 2 -7 2 -21 0 -30z m-266 -104 c7 -14
6 -19 -2 -19 -12 0 -38 29 -39 42 0 14 30 -4 41 -23z m321 -54 c0 -5 -5 -11
-11 -13 -6 -2 -11 4 -11 13 0 9 5 15 11 13 6 -2 11 -8 11 -13z m708 -13 c0 -9
-44 -32 -60 -32 -19 0 -10 21 13 30 29 11 47 12 47 2z m-546 -51 c3 -5 -3 -11
-13 -14 -14 -3 -18 -1 -14 9 6 16 19 18 27 5z m36 -31 c0 -5 -5 -10 -11 -10
-5 0 -7 5 -4 10 3 6 8 10 11 10 2 0 4 -4 4 -10z m-81 -44 c9 -10 8 -15 -4 -20
-8 -3 -15 -4 -15 -2 0 3 -3 11 -6 20 -8 20 9 21 25 2z m-416 -33 c-7 -2 -21
-2 -30 0 -10 3 -4 5 12 5 17 0 24 -2 18 -5z m-148 -13 c3 -5 1 -10 -4 -10 -6
0 -11 5 -11 10 0 6 2 10 4 10 3 0 8 -4 11 -10z m135 -32 c0 -5 9 -4 20 2 26
14 40 5 40 -23 0 -29 -10 -43 -38 -50 -18 -4 -26 0 -34 19 -6 13 -19 24 -30
24 -11 0 -18 7 -18 19 0 15 7 19 30 19 17 -1 30 -5 30 -10z m478 1 c7 20 28
11 46 -20 13 -22 21 -28 29 -20 14 14 64 14 72 1 3 -5 17 -10 30 -10 13 0 30
-8 37 -19 10 -14 25 -18 58 -17 l45 1 2 -45 c2 -47 -30 -120 -53 -120 -14 0
-26 53 -17 77 5 16 3 15 -15 -2 -12 -11 -23 -31 -25 -45 -3 -14 -8 -44 -12
-67 -5 -30 -16 -50 -37 -68 l-30 -25 31 -26 c36 -30 38 -44 11 -69 -11 -10
-20 -29 -20 -42 0 -18 -5 -23 -25 -23 -14 0 -25 5 -25 11 0 5 -4 7 -10 4 -5
-3 -10 -1 -10 4 0 15 -43 14 -60 -1 -12 -11 -12 -10 -1 5 12 15 10 17 -21 17
-21 0 -41 7 -51 18 -13 15 -14 19 -1 36 8 11 14 26 14 34 0 8 14 31 32 51 18
20 29 28 25 19 -5 -15 -1 -18 24 -18 26 0 30 3 24 18 -17 43 -17 110 -1 133
19 27 21 56 4 61 -7 3 -3 12 11 25 l22 21 -31 16 c-25 12 -42 13 -81 6 -66
-13 -79 -6 -79 39 0 21 3 40 6 43 3 3 22 1 42 -4 26 -7 37 -7 40 1z m-573 -72
c0 -27 5 -39 18 -43 11 -3 25 -21 33 -40 16 -37 29 -47 19 -12 -6 17 -4 20 10
15 9 -4 23 -7 30 -7 7 0 16 -7 19 -15 4 -11 0 -15 -11 -13 -10 2 -19 -5 -21
-14 -3 -14 3 -18 22 -18 16 0 26 6 26 15 0 8 8 15 19 15 10 0 24 7 31 15 7 9
29 15 52 15 28 0 46 7 64 25 26 26 44 32 44 16 0 -6 13 -17 28 -27 16 -9 33
-29 39 -45 10 -25 8 -30 -13 -44 -13 -8 -34 -15 -46 -14 -26 0 -70 17 -50 18
7 1 10 6 6 12 -4 7 -16 2 -33 -14 -24 -24 -28 -25 -58 -12 -35 15 -42 11 -37
-19 2 -14 -2 -17 -21 -13 -14 2 -22 0 -19 -4 3 -5 -11 -9 -31 -9 -25 0 -34 4
-29 12 5 7 1 9 -13 6 -17 -4 -19 -2 -15 14 6 26 -15 40 -50 32 -21 -4 -28 -2
-28 10 0 18 -11 21 -26 6 -14 -14 -84 -22 -84 -10 0 6 5 10 10 10 6 0 10 5 10
10 0 21 -19 9 -32 -20 -15 -34 -31 -34 -36 -2 -2 12 -11 26 -21 31 -13 8 -17
5 -16 -12 0 -12 -4 -23 -10 -24 -5 -2 -10 7 -10 20 0 24 -37 40 -125 52 -29 4
-51 13 -54 22 -9 23 12 52 42 59 15 4 33 11 40 17 8 7 21 6 38 -2 14 -6 38
-11 53 -11 16 0 47 -7 70 -15 40 -14 42 -13 66 11 14 14 25 29 25 35 0 6 17 9
38 7 36 -3 37 -4 37 -41z m-507 -15 c14 4 18 -2 18 -36 0 -23 4 -50 8 -62 7
-19 4 -21 -26 -20 -27 1 -34 5 -36 26 -2 13 -11 29 -20 36 -13 10 -14 16 -2
43 10 25 15 29 26 20 8 -6 22 -9 32 -7z m-508 -72 c0 -5 -4 -10 -9 -10 -6 0
-13 5 -16 10 -3 6 1 10 9 10 9 0 16 -4 16 -10z m1619 -19 c23 -15 4 -51 -29
-51 -21 0 -29 5 -32 25 -6 31 28 47 61 26z m-1156 -51 c8 0 8 -3 0 -11 -9 -9
-16 -7 -30 7 -17 17 -17 18 0 11 10 -4 24 -7 30 -7z m487 -20 c0 -5 -4 -10
-10 -10 -5 0 -10 5 -10 10 0 6 5 10 10 10 6 0 10 -4 10 -10z m1050 -24 c38
-25 54 -76 25 -76 -21 0 -26 -1 -64 -18 -30 -12 -37 -12 -45 0 -6 7 -29 15
-51 17 -50 4 -52 6 -31 30 17 18 17 19 -1 23 -11 3 -5 8 20 12 20 5 37 12 37
16 0 8 24 15 60 19 9 0 31 -10 50 -23z m-1665 -56 c3 -5 1 -10 -4 -10 -6 0
-11 5 -11 10 0 6 2 10 4 10 3 0 8 -4 11 -10z m1765 -46 c0 -14 -4 -23 -10 -19
-5 3 -10 15 -10 26 0 10 5 19 10 19 6 0 10 -12 10 -26z m-115 -98 l33 -34 -28
-27 c-15 -15 -30 -26 -32 -25 -1 1 -11 -2 -21 -6 -10 -4 -22 -3 -27 2 -11 11
-16 101 -7 110 4 4 7 1 7 -7 1 -10 3 -9 11 4 14 24 25 22 64 -17z m457 -51 c6
-14 15 -25 20 -25 12 0 38 -63 38 -91 0 -25 -26 -59 -45 -59 -6 0 -22 23 -35
51 -20 41 -22 54 -12 70 16 24 15 29 -2 29 -24 0 -29 20 -10 35 26 20 33 19
46 -10z m-2102 -19 c0 -3 -7 -6 -15 -6 -9 0 -15 9 -15 21 0 18 2 19 15 5 8 -8
15 -17 15 -20z m2035 -6 c3 -6 -1 -7 -9 -4 -18 7 -21 14 -7 14 6 0 13 -4 16
-10z m-1058 -26 c-3 -3 -12 -4 -19 -1 -8 3 -5 6 6 6 11 1 17 -2 13 -5z m478
-41 c10 -21 21 -42 24 -48 3 -5 -3 -4 -12 4 -9 7 -26 11 -36 8 -11 -3 -29 2
-40 10 -26 18 -28 43 -2 36 11 -3 21 2 24 11 10 25 21 19 42 -21z m-560 -2
c-3 -6 -11 -11 -17 -11 -6 0 -6 6 2 15 14 17 26 13 15 -4z m1524 -157 c2 -2
-12 -3 -32 -2 -20 1 -34 5 -31 10 5 7 52 1 63 -8z m-1789 -8 c0 -8 -61 -12
-66 -4 -3 4 11 8 30 8 20 0 36 -2 36 -4z m1752 -53 c10 -13 3 -33 -13 -33 -5
0 -8 19 -8 43 1 23 4 33 6 22 3 -11 10 -25 15 -32z m58 43 c0 -2 -7 -6 -15
-10 -8 -3 -15 -1 -15 4 0 6 7 10 15 10 8 0 15 -2 15 -4z m-283 -68 c-3 -7 -5
-2 -5 12 0 14 2 19 5 13 2 -7 2 -19 0 -25z m-262 -8 c-3 -5 -11 -10 -16 -10
-6 0 -7 5 -4 10 3 6 11 10 16 10 6 0 7 -4 4 -10z m-1381 -26 c9 -3 16 -10 16
-15 0 -13 -43 -4 -48 9 -4 13 8 15 32 6z m221 -27 c12 -10 14 -16 7 -21 -13
-8 -52 10 -52 24 0 14 23 12 45 -3z m1405 -47 c8 -5 13 -10 10 -10 -93 -13
-115 2 -30 19 3 0 12 -4 20 -9z m59 -133 c8 -10 7 -14 -2 -14 -8 0 -14 6 -14
14 0 7 1 13 2 13 2 0 8 -6 14 -13z m-29 -17 c0 -5 -5 -10 -11 -10 -5 0 -7 5
-4 10 3 6 8 10 11 10 2 0 4 -4 4 -10z m-194 -45 c4 -8 14 -15 23 -16 9 -1 5
-4 -9 -8 -34 -11 -66 5 -49 25 15 18 28 18 35 -1z m-213 -49 c7 -16 -1 -26
-20 -26 -7 0 -13 9 -13 20 0 23 25 27 33 6z"/>
<path d="M6315 5730 c3 -5 8 -10 11 -10 2 0 4 5 4 10 0 6 -5 10 -11 10 -5 0
-7 -4 -4 -10z"/>
<path d="M5025 3980 c3 -5 14 -10 23 -10 15 0 15 2 2 10 -20 13 -33 13 -25 0z"/>
<path d="M4837 3001 c-4 -17 -3 -21 5 -13 5 5 8 16 6 23 -3 8 -7 3 -11 -10z"/>
<path d="M4017 6171 c-15 -16 -27 -37 -27 -48 0 -10 -7 -31 -15 -46 -10 -20
-12 -35 -5 -53 6 -14 10 -39 10 -55 0 -16 4 -29 9 -29 5 0 7 -18 4 -40 -5 -38
-4 -40 21 -40 23 0 26 4 26 35 0 20 7 50 17 68 27 53 22 237 -7 237 -3 0 -17
-13 -33 -29z m3 -271 c0 -5 -2 -10 -4 -10 -3 0 -8 5 -11 10 -3 6 -1 10 4 10 6
0 11 -4 11 -10z"/>
<path d="M4180 6150 c21 -41 23 -42 70 -12 9 6 -55 51 -73 52 -16 0 -16 -3 3
-40z"/>
<path d="M2510 5883 c0 -4 5 -15 10 -23 8 -13 10 -13 10 2 0 9 -4 20 -10 23
-5 3 -10 3 -10 -2z"/>
<path d="M3660 5866 c0 -9 5 -16 10 -16 6 0 10 4 10 9 0 6 -4 13 -10 16 -5 3
-10 -1 -10 -9z"/>
<path d="M2828 5678 c-8 -7 -18 -21 -22 -31 -5 -16 -3 -16 24 3 17 12 28 26
25 31 -8 12 -8 11 -27 -3z"/>
<path d="M2885 5270 c-3 -5 -1 -10 4 -10 6 0 11 5 11 10 0 6 -2 10 -4 10 -3 0
-8 -4 -11 -10z"/>
<path d="M2825 5202 c-14 -10 -55 -69 -55 -79 0 -16 -67 -81 -91 -88 -13 -4
-50 -25 -81 -47 -32 -21 -77 -48 -100 -59 -24 -11 -61 -30 -83 -42 -53 -28
-151 -29 -219 -3 l-48 20 -18 -24 -18 -23 -17 32 c-9 18 -14 35 -11 39 3 3 6
-1 6 -8 0 -16 13 -5 16 13 1 7 5 24 9 39 7 29 -14 48 -54 48 -23 0 -29 25 -8
33 9 3 7 9 -6 23 -10 11 -31 38 -48 62 -26 37 -32 41 -50 32 -11 -6 -24 -22
-29 -35 -11 -29 -45 -49 -71 -42 -10 3 -22 1 -25 -5 -3 -5 -13 -7 -21 -4 -9 4
-29 -8 -50 -29 -19 -19 -39 -35 -44 -35 -5 0 -12 -12 -15 -26 -6 -25 -8 -25
-78 -19 -223 19 -240 18 -289 -3 -26 -12 -47 -26 -47 -31 0 -18 -48 -13 -90 9
-41 21 -53 21 -128 1 -24 -7 -52 -9 -62 -6 -23 7 -24 4 -9 -50 12 -45 89 -206
104 -217 14 -11 25 1 25 28 0 14 6 27 14 30 8 3 16 14 19 25 6 22 35 25 51 5
9 -11 25 -12 79 -5 59 7 73 6 106 -12 44 -22 137 -24 159 -2 7 7 21 13 31 13
19 0 73 -54 64 -64 -4 -3 3 -6 14 -6 11 0 26 6 33 14 6 8 18 12 25 10 20 -8
55 14 107 67 44 46 50 49 96 49 58 0 80 -17 63 -49 -12 -22 -15 -48 -4 -38 3
4 13 1 21 -6 13 -9 14 -9 8 1 -5 9 3 12 29 12 48 0 102 24 110 49 3 11 19 28
35 38 16 9 26 21 23 27 -13 22 7 -1 32 -38 23 -34 24 -40 12 -55 -32 -37 -23
-66 24 -75 13 -2 48 -12 78 -22 48 -15 62 -16 120 -5 36 7 83 15 104 18 21 3
37 11 37 18 0 25 51 55 92 55 28 0 45 -7 62 -24 19 -22 27 -24 59 -16 21 4 44
13 52 20 8 6 24 10 37 8 19 -2 24 -13 34 -61 14 -71 26 -87 54 -69 11 6 30 12
42 12 23 1 23 1 3 16 -11 8 -24 13 -30 10 -16 -6 0 105 17 115 7 5 20 9 28 9
18 0 82 38 92 54 5 8 13 8 27 -1 17 -11 21 -9 26 10 3 12 13 39 22 60 13 30
21 37 45 37 27 0 28 -2 28 -48 0 -26 -6 -71 -14 -100 -13 -52 -13 -52 10 -52
16 0 24 6 24 18 0 23 70 109 95 116 38 11 120 6 162 -10 59 -23 89 -13 98 32
5 27 2 41 -11 55 -9 10 -21 16 -25 13 -5 -3 -16 -1 -25 4 -12 7 -22 4 -34 -8
-10 -10 -37 -21 -61 -25 -24 -4 -49 -11 -55 -16 -19 -16 -75 -6 -85 14 -7 12
-19 17 -37 15 -21 -2 -33 5 -54 32 -66 84 -88 99 -138 95 -22 -1 -44 -5 -47
-9 -4 -3 -17 -6 -30 -6 -12 0 -23 -3 -23 -7 0 -5 -21 -16 -46 -27 -35 -14 -50
-16 -67 -8 -20 10 -18 11 16 11 42 1 44 4 20 29 -14 13 -28 16 -61 11 -36 -5
-45 -2 -54 14 -8 16 -12 17 -19 6 -15 -24 -11 39 4 64 22 36 10 70 -18 49z
m47 -294 c-7 -7 -12 -8 -12 -2 0 6 3 14 7 17 3 4 9 5 12 2 2 -3 -1 -11 -7 -17z
m-1258 -69 c-3 -5 -10 -7 -15 -3 -5 3 -7 10 -3 15 3 5 10 7 15 3 5 -3 7 -10 3
-15z m881 -39 c0 -9 -7 -14 -20 -12 -26 5 -29 8 -20 22 10 16 40 8 40 -10z
m15 -50 c0 -5 0 -13 0 -17 0 -4 -20 -9 -46 -10 -75 -5 -44 29 34 36 6 0 12 -3
12 -9z"/>
<path d="M991 5189 c-13 -5 -45 -27 -71 -49 -60 -50 -107 -70 -165 -70 -40 0
-47 -3 -55 -26 -6 -14 -14 -22 -20 -19 -6 3 -10 -5 -10 -19 0 -23 -44 -66 -67
-66 -5 0 -26 -18 -48 -40 l-39 -40 17 -35 c22 -46 21 -57 -3 -87 -10 -14 -16
-28 -13 -32 3 -3 2 -6 -3 -6 -19 0 -44 68 -35 92 6 18 3 27 -12 41 -11 9 -23
17 -26 16 -3 0 -28 -36 -56 -80 -27 -44 -54 -86 -60 -93 -15 -18 -34 -49 -44
-71 -5 -11 -33 -56 -61 -100 -51 -80 -52 -80 -47 -147 2 -37 0 -65 -4 -62 -5
3 -9 -2 -9 -10 0 -9 4 -16 9 -16 5 0 5 -15 1 -35 -11 -48 6 -45 26 5 11 27 22
40 35 40 11 0 22 8 26 18 8 24 44 62 58 62 7 0 20 -9 30 -20 13 -15 21 -17 31
-9 7 6 18 8 24 4 5 -3 10 1 10 10 0 9 5 13 10 10 5 -3 10 -1 10 5 0 21 83 100
105 100 12 0 30 9 40 20 10 11 24 20 32 20 11 0 12 11 7 49 -3 28 -4 61 0 75
7 28 41 43 61 26 11 -9 16 -7 25 10 6 11 8 25 5 30 -3 6 -1 10 4 10 6 0 11 -4
11 -10 0 -5 19 -2 42 6 24 8 53 14 65 12 28 -4 87 59 77 82 -28 66 -34 214 -9
224 18 6 44 -2 63 -21 25 -25 31 -13 34 65 3 74 4 77 28 80 38 5 43 16 18 39
-18 16 -28 19 -47 12z m-213 -258 c12 -10 22 -30 22 -43 0 -26 22 -53 33 -41
4 3 7 0 7 -9 0 -16 -1 -16 -75 -23 -27 -3 -44 -2 -38 1 10 4 10 11 -2 27 -15
22 -21 88 -8 100 12 13 40 7 61 -12z"/>
<path d="M3260 5110 c0 -5 7 -10 15 -10 8 0 15 5 15 10 0 6 -7 10 -15 10 -8 0
-15 -4 -15 -10z"/>
<path d="M4556 5060 c-34 -36 -46 -57 -46 -80 0 -36 15 -38 65 -10 19 11 35
16 36 12 1 -4 4 4 8 17 9 32 31 39 38 12 6 -22 23 -29 23 -9 0 6 10 3 22 -8
l22 -19 -22 29 c-21 28 -30 67 -14 65 4 -1 12 -1 17 0 11 2 -74 40 -91 40 -6
1 -32 -21 -58 -49z"/>
<path d="M283 5057 c-43 -44 -51 -57 -34 -57 12 0 91 78 91 90 0 19 -15 10
-57 -33z"/>
<path d="M4023 5045 c-2 -26 1 -35 12 -35 15 0 20 26 9 54 -10 26 -19 18 -21
-19z"/>
<path d="M3968 5013 c6 -2 18 -2 25 0 6 3 1 5 -13 5 -14 0 -19 -2 -12 -5z"/>
<path d="M4732 4973 c2 -10 13 -22 26 -28 12 -5 20 -16 17 -22 -5 -16 11 -17
20 -2 4 6 17 14 29 18 18 8 16 10 -21 20 -23 6 -45 16 -48 21 -10 17 -27 11
-23 -7z"/>
<path d="M204 4972 c-10 -7 -27 -42 -20 -42 2 0 11 11 20 25 17 26 17 29 0 17z"/>
<path d="M3943 4950 c-3 -11 -8 -20 -12 -20 -3 0 -12 -4 -20 -9 -12 -8 -12
-12 2 -25 30 -30 47 -20 47 29 0 47 -8 59 -17 25z"/>
<path d="M3779 4827 c-44 -34 -14 -82 37 -58 29 13 29 19 5 49 -22 25 -21 25
-42 9z"/>
<path d="M3703 4674 c-3 -8 -12 -13 -20 -10 -8 3 -18 -4 -24 -18 -11 -22 -45
-36 -88 -36 -14 0 -14 2 -1 11 12 8 9 9 -12 5 -16 -4 -28 -2 -28 4 0 5 -4 10
-10 10 -11 0 -50 -36 -50 -47 0 -4 5 -2 12 5 16 16 38 15 38 0 -1 -20 -36 -58
-53 -58 -27 0 -47 -12 -47 -29 -1 -11 -9 -7 -28 16 -20 24 -34 31 -49 27 -22
-6 -24 -23 -5 -46 6 -8 9 -17 6 -21 -3 -3 -1 -21 6 -41 l11 -35 71 0 c39 0 73
-3 76 -6 6 -5 3 -127 -3 -133 -10 -11 -65 68 -65 93 0 25 38 18 43 -7 3 -18 5
-16 6 7 1 27 -2 31 -25 30 -15 0 -30 -7 -34 -15 -4 -8 -12 -25 -18 -37 -7 -13
-12 -37 -13 -55 0 -28 -2 -30 -9 -13 -7 16 -9 17 -9 3 -2 -36 -47 -32 -54 5
-4 21 -4 21 -6 -1 -2 -36 -21 -15 -21 22 l0 33 -61 7 c-54 6 -64 5 -80 -13
-25 -27 -24 -31 10 -31 16 0 34 -7 41 -15 9 -11 23 -14 46 -9 26 5 34 2 43
-14 16 -29 -16 -84 -45 -79 -20 3 -20 2 -7 -25 11 -21 22 -28 42 -28 16 0 40
-9 54 -20 31 -25 39 -25 62 0 16 18 20 18 46 4 16 -8 32 -26 35 -39 3 -14 13
-25 21 -25 9 0 12 -6 9 -17 -3 -10 -1 -25 4 -33 5 -8 10 -11 10 -6 0 5 6 3 14
-3 7 -6 11 -21 9 -34 -2 -12 2 -31 10 -41 21 -28 103 -30 139 -4 25 17 48 24
101 27 13 1 17 6 12 20 -3 11 -1 22 5 26 5 3 10 2 10 -3 0 -5 16 -8 35 -8 31
1 35 4 31 21 -3 11 -6 24 -6 28 0 5 -9 5 -20 2 -19 -6 -19 -4 -9 19 10 22 9
29 -6 46 -25 27 -8 43 47 46 24 1 48 3 53 3 6 1 -3 13 -18 26 -15 14 -25 25
-21 25 4 0 1 6 -8 13 -22 16 -26 60 -9 81 12 14 11 16 -7 16 -16 0 -22 9 -27
43 -14 90 -27 127 -44 127 -9 0 -12 -3 -6 -8 16 -11 13 -254 -3 -260 -6 -2
-10 -8 -6 -13 3 -5 -2 -9 -11 -9 -11 0 -14 -7 -10 -22 2 -13 1 -39 -3 -58 -7
-33 -10 -35 -52 -37 -51 -1 -64 6 -79 48 -9 27 -8 30 19 44 28 14 28 16 14 42
-11 21 -13 45 -8 91 5 52 4 62 -9 62 -9 0 -20 8 -26 17 -7 13 -22 18 -60 17
-66 -1 -69 21 -3 29 90 11 180 46 204 79 19 27 20 34 9 65 -10 26 -10 38 -2
46 18 18 13 47 -7 47 -11 0 -27 9 -37 20 -22 24 -34 25 -42 4z m-276 -401 c-3
-10 -5 -2 -5 17 0 19 2 27 5 18 2 -10 2 -26 0 -35z m103 -89 c0 -8 -8 -14 -17
-14 -14 0 -15 2 -4 9 8 5 10 14 6 21 -5 9 -4 11 3 6 7 -4 12 -14 12 -22z m70
-89 c-11 -20 -20 -38 -20 -40 0 -3 15 -11 33 -19 25 -11 28 -15 11 -15 -11 -1
-29 8 -39 19 -10 11 -24 20 -31 20 -7 0 -14 10 -16 23 -2 12 -10 23 -18 23
-34 3 -33 7 5 14 22 4 52 8 67 9 l28 1 -20 -35z"/>
<path d="M1790 4583 c0 -4 5 -15 10 -23 8 -13 10 -13 10 2 0 9 -4 20 -10 23
-5 3 -10 3 -10 -2z"/>
<path d="M3419 4564 c-13 -15 -18 -25 -10 -22 13 4 49 48 39 48 -2 0 -15 -12
-29 -26z"/>
<path d="M2475 4550 c4 -6 11 -8 16 -4 5 3 21 -2 34 -10 14 -9 25 -13 25 -8 0
10 -45 32 -66 32 -8 0 -12 -5 -9 -10z"/>
<path d="M2225 4530 c-19 -8 -19 -9 3 -9 12 -1 22 4 22 9 0 6 -1 10 -2 9 -2 0
-12 -4 -23 -9z"/>
<path d="M2555 4510 c-4 -6 -2 -9 3 -8 14 5 90 -69 83 -80 -10 -15 -82 -49
-157 -73 -38 -12 -90 -32 -116 -45 -55 -28 -58 -28 -58 -10 0 7 -7 19 -15 26
-22 18 -18 32 5 20 23 -12 53 4 104 56 17 17 46 39 64 48 34 18 43 46 15 46
-10 0 -31 -7 -47 -15 -15 -8 -37 -15 -47 -15 -10 0 -20 -4 -23 -9 -4 -5 -24
-12 -45 -16 -41 -7 -68 -25 -87 -60 -17 -32 -34 -30 -34 4 0 17 -4 31 -10 31
-11 0 -2 -59 11 -76 4 -5 6 -19 3 -30 -4 -14 4 -32 22 -53 14 -17 24 -34 21
-38 -6 -5 -40 31 -74 76 -6 9 -14 13 -18 10 -3 -4 1 -14 10 -23 9 -9 13 -16 8
-16 -4 0 0 -7 10 -14 17 -13 17 -15 0 -42 -21 -34 -30 -36 -73 -24 -24 7 -38
6 -54 -5 -11 -8 -28 -15 -38 -15 -10 0 -18 -4 -18 -10 0 -5 -7 -10 -16 -10
-31 0 24 59 61 66 40 7 43 14 15 32 -11 7 -29 27 -40 45 -11 18 -20 26 -20 18
0 -9 -6 -11 -17 -6 -10 4 -29 7 -42 6 -19 -1 -22 3 -18 19 4 16 0 20 -19 20
-17 0 -24 -6 -24 -20 0 -43 -61 -18 -103 43 -11 16 -14 16 -32 3 -16 -12 -18
-17 -7 -27 18 -20 15 -32 -22 -80 -26 -34 -34 -55 -34 -88 -1 -71 -39 -81 -95
-26 -20 19 -42 35 -49 35 -7 0 -21 15 -31 33 l-19 32 -19 -24 c-24 -29 -24
-45 -1 -39 22 6 45 -9 55 -35 4 -9 15 -20 24 -24 10 -3 41 -22 68 -42 89 -65
100 -68 143 -43 20 11 39 29 41 39 4 24 31 54 42 47 5 -3 20 3 34 12 28 18 55
13 55 -11 0 -8 4 -15 9 -15 5 0 7 -9 4 -20 -4 -14 0 -20 11 -20 19 0 19 -1 6
-34 -6 -17 -15 -24 -24 -20 -11 4 -17 -3 -22 -23 -10 -41 -24 -56 -40 -43 -9
8 -15 7 -22 -6 -9 -17 -51 -26 -114 -27 -32 0 -35 -9 -12 -28 10 -8 14 -23 12
-41 -4 -23 -2 -28 11 -22 32 12 123 34 144 34 29 -1 101 -34 129 -59 12 -12
24 -21 28 -21 4 0 36 96 56 172 4 13 -6 17 -46 23 -27 4 -50 11 -50 16 0 5 5
9 10 9 20 0 9 23 -25 55 l-34 33 27 27 c23 23 33 26 66 22 21 -3 46 -12 54
-21 14 -14 18 -14 34 1 16 14 20 14 40 1 34 -22 79 -31 73 -16 -3 7 0 20 5 28
8 12 11 13 19 1 7 -11 9 -11 14 0 4 9 8 10 14 4 4 -5 17 -12 28 -13 27 -5 28
-7 13 -32 -11 -18 -11 -22 5 -31 9 -6 17 -22 17 -37 0 -15 9 -38 20 -52 11
-14 20 -30 20 -37 0 -22 35 -33 56 -19 10 7 31 16 45 19 24 6 27 4 25 -22 -1
-17 -11 -40 -23 -53 -15 -16 -20 -31 -17 -45 4 -14 0 -29 -10 -38 -15 -15 -16
-14 -16 17 0 39 -51 100 -65 78 -4 -7 -19 -10 -34 -7 -31 7 -57 -6 -47 -22 10
-16 -15 -13 -38 4 -19 14 -19 15 -2 15 14 0 16 3 8 13 -8 9 -2 12 26 12 34 0
37 3 45 38 11 46 5 53 -48 62 -30 5 -36 4 -25 -4 10 -7 11 -11 3 -11 -7 0 -13
-7 -13 -15 0 -8 -8 -15 -17 -15 -19 -1 -73 -64 -73 -85 0 -7 9 -15 21 -18 12
-3 18 -10 14 -16 -3 -6 6 -15 22 -21 62 -23 70 -31 23 -25 -83 11 -116 25
-127 56 -6 16 -16 29 -21 29 -17 0 -19 -43 -4 -67 14 -23 7 -93 -9 -93 -5 0
-9 -9 -9 -20 0 -12 -7 -20 -16 -20 -11 0 -15 6 -11 20 3 11 1 20 -3 20 -35 0
-5 -82 38 -104 15 -8 46 -19 69 -25 41 -11 62 -38 48 -61 -3 -5 -1 -10 4 -10
6 0 11 7 11 15 0 9 12 18 29 21 20 4 31 14 35 30 4 13 19 30 34 38 16 8 33 26
40 40 6 14 19 26 28 26 13 0 15 -6 10 -31 -6 -30 -5 -30 24 -24 26 6 30 4 30
-14 0 -12 -6 -21 -13 -21 -7 0 -18 -10 -26 -21 -14 -24 -7 -34 37 -45 12 -3
22 -10 22 -14 0 -18 82 -4 98 17 10 11 25 23 35 26 14 5 16 11 7 26 -11 22 -5
47 15 54 21 9 -5 77 -30 78 -17 1 -17 2 -3 6 21 5 78 60 78 74 0 5 5 18 12 29
7 10 8 23 4 27 -5 4 -11 2 -13 -4 -6 -18 -48 -16 -63 2 -7 8 -9 15 -5 15 4 0
2 7 -5 15 -10 12 -16 13 -27 4 -11 -9 -17 -8 -27 7 -13 17 -11 20 14 31 19 7
28 18 27 31 0 12 -6 18 -14 15 -7 -3 -13 0 -13 6 0 6 5 11 10 11 6 0 22 22 38
50 20 37 36 53 61 61 40 14 52 4 70 -58 8 -30 9 -49 1 -62 -14 -27 -13 -64 3
-58 6 2 11 14 9 25 -2 15 2 22 12 22 9 0 16 8 16 18 0 10 11 25 25 32 32 17
32 38 0 46 -15 4 -28 16 -31 29 -3 13 -15 32 -27 42 -11 10 -17 12 -12 4 6
-10 2 -12 -16 -6 -30 9 -37 17 -21 22 6 3 12 16 12 30 0 17 7 27 21 30 14 4
18 11 14 22 -4 9 -8 30 -10 48 -5 49 -45 122 -95 171 -63 61 -97 85 -105 72z
m-665 -335 c0 -8 -4 -15 -10 -15 -5 0 -7 7 -4 15 4 8 8 15 10 15 2 0 4 -7 4
-15z m380 -10 c0 -8 -4 -15 -10 -15 -5 0 -10 7 -10 15 0 8 5 15 10 15 6 0 10
-7 10 -15z m540 -149 c0 -3 -4 -8 -10 -11 -5 -3 -10 -1 -10 4 0 6 5 11 10 11
6 0 10 -2 10 -4z m-832 -41 c29 -8 28 -29 -3 -49 -25 -17 -26 -16 -40 18 -19
45 -19 48 3 42 9 -2 27 -7 40 -11z m422 -135 c0 -5 -9 -10 -20 -10 -11 0 -20
5 -20 10 0 6 9 10 20 10 11 0 20 -4 20 -10z m-20 -55 c0 -8 -6 -15 -14 -15 -8
0 -23 -3 -33 -7 -12 -4 -10 0 7 15 30 25 40 27 40 7z m180 -24 c0 -17 -6 -31
-16 -35 -21 -8 -34 1 -29 19 3 8 7 22 10 30 8 28 35 17 35 -14z"/>
<path d="M1576 4495 c-6 -18 2 -45 15 -45 5 0 9 14 9 30 0 32 -14 40 -24 15z"/>
<path d="M2035 4500 c3 -5 16 -10 28 -10 18 0 19 2 7 10 -20 13 -43 13 -35 0z"/>
<path d="M3162 4495 c-7 -8 -24 -15 -38 -15 -13 0 -27 -7 -30 -15 -4 -8 -17
-15 -29 -15 -34 0 -55 -10 -55 -27 0 -8 -14 -33 -31 -54 l-31 -39 35 0 c43 0
69 9 61 21 -7 12 88 106 111 110 10 2 21 14 26 27 9 25 0 28 -19 7z"/>
<path d="M2808 4494 c-3 -3 -1 -20 5 -39 9 -31 12 -32 34 -22 27 12 26 27 -5
43 -12 6 -19 14 -15 17 3 4 2 7 -4 7 -5 0 -12 -3 -15 -6z"/>
<path d="M4280 4491 c0 -6 5 -13 10 -16 6 -3 10 1 10 9 0 9 -4 16 -10 16 -5 0
-10 -4 -10 -9z"/>
<path d="M1185 4450 c3 -5 8 -10 11 -10 2 0 4 5 4 10 0 6 -5 10 -11 10 -5 0
-7 -4 -4 -10z"/>
<path d="M2222 4453 c-10 -4 -10 -8 -1 -19 16 -20 29 -17 29 6 0 20 -5 23 -28
13z"/>
<path d="M4160 4442 c0 -13 43 -26 62 -19 7 3 2 6 -12 6 -15 1 -31 6 -38 13
-9 9 -12 9 -12 0z"/>
<path d="M1149 4407 c-10 -17 -9 -19 5 -14 21 8 20 2 -3 -20 -10 -10 -21 -30
-25 -45 -6 -25 -3 -28 34 -38 45 -12 75 -7 83 15 3 7 0 19 -8 25 -10 8 -11 18
-5 35 8 21 4 26 -31 43 -39 20 -40 20 -50 -1z"/>
<path d="M1960 4411 c0 -6 5 -13 10 -16 6 -3 10 1 10 9 0 9 -4 16 -10 16 -5 0
-10 -4 -10 -9z"/>
<path d="M4240 4400 c0 -23 35 -28 43 -6 7 18 -1 26 -25 26 -11 0 -18 -7 -18
-20z"/>
<path d="M3335 4380 c3 -5 10 -10 16 -10 5 0 9 5 9 10 0 6 -7 10 -16 10 -8 0
-12 -4 -9 -10z"/>
<path d="M3290 4365 c0 -8 2 -15 4 -15 2 0 6 7 10 15 3 8 1 15 -4 15 -6 0 -10
-7 -10 -15z"/>
<path d="M4157 4334 c-40 -37 -41 -54 -3 -54 31 0 45 18 44 58 -1 18 -1 32 -2
32 -1 0 -18 -16 -39 -36z"/>
<path d="M1962 4348 c2 -6 10 -14 16 -16 7 -2 10 2 6 12 -7 18 -28 22 -22 4z"/>
<path d="M4017 4335 c-25 -18 -21 -34 8 -31 34 4 40 12 23 29 -11 12 -17 12
-31 2z"/>
<path d="M131 4314 c0 -11 3 -14 6 -6 3 7 2 16 -1 19 -3 4 -6 -2 -5 -13z"/>
<path d="M1375 4250 c-3 -5 -1 -10 4 -10 6 0 11 5 11 10 0 6 -2 10 -4 10 -3 0
-8 -4 -11 -10z"/>
<path d="M1577 4253 c-14 -13 -6 -33 13 -33 13 0 20 7 20 20 0 19 -20 27 -33
13z"/>
<path d="M3966 4222 c-3 -6 -4 -29 0 -51 8 -47 37 -64 59 -34 19 24 18 31 -5
38 -11 3 -20 10 -20 14 0 17 -27 44 -34 33z"/>
<path d="M4167 4149 c-24 -14 -12 -29 23 -29 25 0 31 -5 39 -32 9 -32 9 -32
10 15 1 34 -3 47 -13 47 -8 0 -20 2 -28 5 -7 2 -21 0 -31 -6z"/>
<path d="M3336 4061 c-4 -5 3 -7 14 -4 23 6 26 13 6 13 -8 0 -17 -4 -20 -9z"/>
<path d="M445 4029 c-20 -4 -23 -7 -10 -8 17 -1 18 -3 5 -11 -12 -8 -11 -10 8
-10 12 0 25 7 29 15 7 21 4 23 -32 14z"/>
<path d="M2881 3989 c-14 -17 -34 -35 -45 -39 -17 -7 -15 -9 14 -9 36 -1 89
15 125 36 l20 12 -20 1 c-11 0 -29 7 -39 15 -26 20 -27 20 -55 -16z"/>
<path d="M85 3965 c0 -14 4 -25 8 -25 5 0 5 -4 2 -10 -3 -5 1 -10 9 -10 8 0
18 5 21 10 3 6 1 10 -4 10 -6 0 -10 3 -10 8 1 4 1 15 0 25 -2 27 -26 20 -26
-8z"/>
<path d="M1415 3940 c-10 -22 -26 -42 -36 -45 -25 -8 -24 -27 1 -43 11 -7 20
-21 20 -32 0 -17 5 -18 50 -13 47 5 50 4 67 -26 10 -17 20 -31 23 -31 3 0 37
11 75 25 39 14 58 24 43 22 -19 -3 -28 0 -28 9 0 8 -7 14 -15 14 -8 0 -24 9
-34 19 -11 11 -21 15 -23 9 -3 -7 -11 -6 -26 3 -30 19 -30 63 1 76 20 10 19
11 -23 23 -25 8 -49 17 -54 22 -17 14 -22 9 -41 -32z"/>
<path d="M3315 3970 c-3 -5 -1 -10 4 -10 6 0 11 5 11 10 0 6 -2 10 -4 10 -3 0
-8 -4 -11 -10z"/>
<path d="M4078 3948 c5 -5 16 -8 23 -6 8 3 3 7 -10 11 -17 4 -21 3 -13 -5z"/>
<path d="M2850 3910 c-13 -8 -12 -10 3 -10 9 0 17 5 17 10 0 12 -1 12 -20 0z"/>
<path d="M3321 3864 c-1 -14 6 -24 21 -27 21 -6 21 -7 5 -25 -9 -10 -17 -24
-17 -32 0 -7 -8 -19 -17 -27 -16 -12 -15 -13 12 -11 25 3 30 8 32 32 1 16 7
34 13 40 18 18 11 36 -14 36 -15 0 -26 7 -29 18 -4 13 -5 13 -6 -4z"/>
<path d="M3280 3860 c0 -5 7 -10 15 -10 8 0 15 5 15 10 0 6 -7 10 -15 10 -8 0
-15 -4 -15 -10z"/>
<path d="M5900 3860 c22 -7 23 -8 4 -9 -22 -1 -51 -27 -41 -37 3 -3 28 -7 56
-9 55 -4 57 -1 18 43 -11 12 -30 22 -41 21 -18 -1 -18 -2 4 -9z"/>
<path d="M2980 3840 c0 -5 4 -10 9 -10 6 0 13 5 16 10 3 6 -1 10 -9 10 -9 0
-16 -4 -16 -10z"/>
<path d="M3840 3790 c-20 -12 -5 -24 16 -12 9 5 12 12 7 15 -5 3 -15 2 -23 -3z"/>
<path d="M5825 3788 c-10 -6 -44 -10 -74 -9 l-54 2 31 -30 c31 -28 63 -34 91
-16 8 4 25 -1 42 -14 35 -26 39 -26 39 -1 0 11 -12 33 -27 50 -24 25 -31 28
-48 18z"/>
<path d="M2823 3771 c-37 -18 -38 -34 -3 -39 18 -3 21 0 16 14 -5 14 -4 15 9
4 20 -16 28 -9 18 17 -8 19 -10 19 -40 4z"/>
<path d="M125 3750 c-4 -17 -4 -34 -1 -37 3 -4 6 1 6 9 0 9 8 15 18 14 22 -1
23 38 0 42 -11 2 -18 -6 -23 -28z m35 0 c0 -5 -4 -10 -10 -10 -5 0 -10 5 -10
10 0 6 5 10 10 10 6 0 10 -4 10 -10z"/>
<path d="M425 3770 c-4 -6 -19 -9 -33 -8 -22 2 -28 -2 -30 -21 -2 -15 3 -28
12 -33 20 -11 21 -44 1 -52 -25 -9 -17 -21 15 -21 25 0 32 5 37 25 3 14 9 30
14 35 9 13 7 85 -3 85 -4 0 -10 -5 -13 -10z"/>
<path d="M6378 3751 c-11 -13 -24 -18 -37 -14 -17 4 -21 1 -21 -18 0 -13 -3
-33 -6 -45 -5 -19 -2 -21 31 -19 37 2 56 17 90 69 16 23 16 29 4 37 -22 14
-43 11 -61 -10z"/>
<path d="M1765 3690 c-3 -5 1 -10 10 -10 9 0 13 5 10 10 -3 6 -8 10 -10 10 -2
0 -7 -4 -10 -10z"/>
<path d="M6769 3675 c-3 -2 -31 -5 -62 -6 -48 -2 -60 -6 -82 -30 -27 -31 -32
-58 -13 -77 17 -17 44 -15 62 4 11 11 25 14 46 9 36 -8 41 10 5 19 -14 4 -28
7 -32 7 -11 1 -33 20 -33 28 0 4 14 12 31 18 25 10 31 9 36 -3 3 -8 3 -21 -1
-29 -11 -29 30 -15 62 21 18 20 32 38 32 40 0 6 -46 5 -51 -1z"/>
<path d="M190 3663 c1 -21 49 -65 64 -60 27 11 18 36 -20 52 -42 17 -44 18
-44 8z"/>
<path d="M6525 3647 c-11 -9 -14 -16 -7 -21 13 -8 63 14 56 25 -8 13 -28 11
-49 -4z"/>
<path d="M2747 3633 c-14 -4 -16 -8 -6 -19 17 -20 39 -17 39 6 0 20 -2 21 -33
13z"/>
<path d="M6315 3623 c-27 -2 -54 -8 -59 -14 -6 -5 -20 -9 -33 -9 -27 0 -29 -8
-7 -24 14 -10 11 -14 -20 -23 -30 -9 -36 -9 -36 3 0 8 8 14 17 14 10 0 13 3 8
9 -6 4 -27 6 -47 4 -31 -4 -38 -9 -38 -27 0 -13 11 -28 30 -39 17 -10 30 -25
30 -33 0 -10 5 -12 18 -7 9 5 34 8 55 8 20 0 37 2 37 5 0 5 35 8 145 14 70 3
89 -9 79 -50 -6 -24 -5 -25 15 -15 11 7 21 15 21 20 0 29 -26 70 -61 95 -29
20 -39 34 -36 47 5 20 -12 30 -46 27 -12 -1 -44 -3 -72 -5z m25 -62 c32 -10
31 -10 -19 -6 -30 2 -59 10 -65 16 -12 13 22 9 84 -10z"/>
<path d="M1812 3588 c-7 -7 -12 -22 -12 -35 0 -19 -5 -23 -28 -23 -16 0 -31
-3 -35 -6 -11 -11 23 -52 49 -58 39 -10 114 -89 103 -109 -11 -19 -6 -22 44
-31 23 -4 37 -13 37 -21 0 -8 7 -15 15 -15 18 0 19 14 5 41 -7 12 -21 19 -41
19 -23 0 -32 6 -40 27 -6 15 -13 30 -17 33 -10 7 -30 41 -43 70 -8 20 -7 27 9
40 16 12 18 21 10 48 -9 34 -33 43 -56 20z"/>
<path d="M1934 3543 c1 -39 20 -56 28 -26 6 22 -8 63 -20 63 -6 0 -9 -17 -8
-37z"/>
<path d="M6706 3541 c-3 -5 4 -21 16 -36 18 -23 22 -25 30 -11 17 30 -28 76
-46 47z"/>
<path d="M5360 3516 c0 -2 7 -9 15 -16 13 -11 14 -10 9 4 -5 14 -24 23 -24 12z"/>
<path d="M1410 3481 c0 -5 9 -11 21 -14 16 -4 18 -3 8 9 -13 16 -29 19 -29 5z"/>
<path d="M2710 3468 c0 -13 4 -29 9 -37 19 -30 -81 -82 -118 -62 -25 14 -48 5
-54 -20 -8 -29 14 -35 35 -9 14 18 22 20 30 12 7 -7 20 -12 30 -12 11 0 18 -7
18 -19 0 -22 -20 -32 -48 -24 -13 3 -28 -3 -41 -16 -12 -12 -27 -21 -34 -20
-19 3 -67 -12 -67 -22 0 -5 -16 -25 -35 -45 -41 -42 -40 -61 5 -87 l29 -18 40
40 c22 22 51 47 65 56 14 10 26 25 26 35 0 15 5 17 36 10 48 -11 59 -23 45
-48 -9 -17 -8 -22 10 -27 22 -7 39 2 24 13 -19 13 -10 57 17 84 23 24 31 26
53 18 15 -6 30 -8 33 -6 9 5 7 194 -1 203 -4 3 -7 0 -7 -7 0 -9 -7 -6 -20 8
-12 13 -33 22 -50 22 -24 0 -30 -4 -30 -22z m90 -111 c0 -8 -9 -22 -20 -32
-11 -10 -20 -13 -20 -7 0 8 -18 12 -47 12 -48 0 -48 0 -21 14 15 8 42 17 60
19 18 2 36 5 41 5 4 1 7 -4 7 -11z m-130 -91 c0 -3 -4 -8 -10 -11 -5 -3 -10
-1 -10 4 0 6 5 11 10 11 6 0 10 -2 10 -4z"/>
<path d="M1070 3449 c-24 -13 -47 -17 -72 -13 -24 4 -38 2 -38 -5 0 -6 -8 -11
-19 -11 -14 0 -17 -6 -14 -24 7 -34 34 -43 52 -17 11 17 24 21 65 21 54 0 76
12 76 41 0 26 -11 28 -50 8z"/>
<path d="M2222 3428 c2 -17 10 -24 32 -26 27 -3 28 -2 16 13 -7 9 -22 21 -32
26 -17 9 -19 7 -16 -13z"/>
<path d="M1342 3388 c-7 -7 -12 -17 -12 -22 0 -6 5 -4 10 4 6 10 10 11 10 3 0
-7 7 -13 15 -13 19 0 19 14 2 29 -10 8 -17 7 -25 -1z"/>
<path d="M5937 3394 c-3 -5 1 -15 9 -22 16 -14 18 -5 5 17 -5 7 -11 9 -14 5z"/>
<path d="M2980 3350 c0 -5 7 -10 16 -10 8 0 12 5 9 10 -3 6 -10 10 -16 10 -5
0 -9 -4 -9 -10z"/>
<path d="M1655 3330 c3 -5 10 -10 16 -10 5 0 9 5 9 10 0 6 -7 10 -16 10 -8 0
-12 -4 -9 -10z"/>
<path d="M6740 3334 c0 -17 22 -42 34 -38 8 3 17 1 21 -5 3 -6 1 -11 -6 -11
-7 0 -10 -3 -7 -6 4 -3 2 -19 -3 -36 -8 -30 -8 -30 12 -12 13 12 16 20 8 25
-8 5 -6 9 5 16 14 8 13 13 -10 41 -24 28 -54 43 -54 26z"/>
<path d="M1780 3327 c0 -2 19 -24 43 -48 52 -54 77 -67 77 -39 0 10 -4 22 -10
25 -5 3 -10 15 -10 26 0 12 -10 23 -26 29 -24 9 -74 14 -74 7z"/>
<path d="M1440 3290 c0 -5 5 -10 10 -10 6 0 10 5 10 10 0 6 -4 10 -10 10 -5 0
-10 -4 -10 -10z"/>
<path d="M2315 3290 c4 -6 11 -8 16 -5 14 9 11 15 -7 15 -8 0 -12 -5 -9 -10z"/>
<path d="M1188 3278 c-1 -7 -2 -33 -3 -58 -3 -45 -9 -71 -26 -102 -10 -20 13
-48 39 -48 14 0 17 11 19 55 1 42 -2 55 -14 55 -8 0 -12 4 -9 9 12 18 16 90 6
96 -5 3 -11 0 -12 -7z"/>
<path d="M2120 3280 c0 -6 7 -13 15 -16 12 -5 9 -11 -11 -27 -26 -20 -27 -20
-41 -1 -12 16 -15 17 -23 4 -5 -8 -6 -18 -3 -24 4 -5 -1 -7 -10 -3 -34 13 -14
-98 34 -185 11 -21 15 -38 10 -38 -6 0 -11 5 -11 10 0 6 -9 10 -20 10 -15 0
-20 -7 -20 -27 l0 -28 -18 23 c-10 13 -27 46 -38 74 -23 59 -70 118 -81 102
-4 -6 -32 -23 -61 -38 -52 -26 -52 -27 -33 -47 24 -26 41 -91 30 -112 -5 -8
-6 -22 -3 -30 4 -12 10 -10 31 9 35 32 63 32 63 -1 0 -14 5 -25 11 -25 11 0
56 -33 91 -66 20 -19 15 -34 -10 -34 -10 0 -24 -9 -32 -20 -8 -11 -20 -20 -26
-20 -12 0 -24 -22 -24 -41 0 -6 15 -9 33 -7 27 3 32 7 35 33 4 34 19 47 44 39
9 -2 19 -1 22 4 3 5 19 8 35 6 19 -2 34 3 46 17 18 19 18 20 -7 47 -23 23 -24
29 -12 40 8 7 14 9 14 5 0 -4 8 7 18 26 39 78 85 63 79 -25 l-4 -52 28 20 28
21 -20 25 c-18 24 -19 26 -2 46 31 37 46 46 81 46 l34 0 -23 38 c-12 20 -24
39 -26 41 -1 2 -11 -2 -20 -10 -30 -25 -69 -41 -89 -37 -19 3 -34 48 -16 48
13 0 35 56 27 69 -3 6 -2 11 3 11 12 0 32 75 23 87 -9 12 -70 14 -91 3 -13 -7
-21 -5 -30 5 -14 17 -30 20 -30 5z"/>
<path d="M6344 3280 c-39 -15 -41 -70 -3 -70 20 0 39 28 39 59 0 23 -4 24 -36
11z"/>
<path d="M1446 3256 c3 -8 15 -17 27 -20 21 -6 21 -7 3 -17 -15 -9 -16 -13 -5
-21 10 -7 6 -8 -13 -5 -28 4 -37 -6 -17 -18 18 -12 56 4 62 26 4 14 -2 29 -18
45 -27 27 -47 32 -39 10z"/>
<path d="M3615 3260 c-19 -8 -19 -9 3 -9 12 -1 22 4 22 9 0 6 -1 10 -2 9 -2 0
-12 -4 -23 -9z"/>
<path d="M2996 3253 c-9 -9 -8 -73 2 -73 4 0 20 11 37 24 l29 23 -31 16 c-17
9 -33 13 -37 10z"/>
<path d="M7020 3250 c0 -5 5 -10 11 -10 6 0 9 -7 6 -15 -5 -12 -2 -12 18 -3
19 9 22 14 14 25 -13 15 -49 18 -49 3z"/>
<path d="M6647 3243 c-14 -14 -6 -30 21 -42 22 -10 25 -10 15 0 -7 7 -13 21
-13 31 0 18 -11 24 -23 11z"/>
<path d="M6711 3153 c-49 -6 -103 -64 -111 -120 -10 -63 -2 -95 20 -88 10 3
21 1 24 -4 11 -17 63 -4 129 33 64 36 107 46 107 25 0 -18 23 -4 26 15 5 33
22 42 38 21 8 -11 12 -23 10 -26 -2 -4 3 -12 11 -19 10 -8 15 -9 15 -2 0 6 13
26 29 44 24 28 61 97 61 115 0 5 -38 -1 -75 -11 -51 -14 -96 -53 -109 -93 -9
-28 -22 -29 -77 -3 -24 11 -36 20 -26 20 11 0 17 8 17 21 0 17 -5 20 -21 16
-19 -5 -20 -3 -15 29 5 25 3 34 -6 32 -7 0 -28 -3 -47 -5z m265 -69 c-9 -8
-16 -21 -16 -27 0 -8 -3 -8 -11 0 -17 17 -3 43 21 43 20 0 20 -1 6 -16z"/>
<path d="M7365 2996 c-382 -388 -869 -658 -1585 -880 -479 -148 -1115 -255
-1675 -281 -71 -3 -168 -8 -215 -11 -124 -8 -629 14 -863 36 -111 11 -206 19
-212 19 -18 -1 110 -28 138 -28 15 -1 27 -5 27 -11 0 -5 -6 -8 -12 -5 -7 2
-51 6 -98 9 -147 10 -282 25 -370 42 -47 8 -116 21 -155 29 -222 41 -431 92
-422 102 5 4 47 -3 182 -31 77 -17 302 -56 318 -56 33 0 -14 13 -104 30 -114
21 -324 69 -434 99 -38 11 -97 27 -130 36 -74 20 -284 90 -430 143 -193 70
-497 215 -647 310 -117 74 -258 169 -285 193 -16 13 -51 42 -78 64 -62 50
-219 204 -274 268 l-41 48 0 -614 0 -613 53 -24 c28 -13 58 -28 65 -33 21 -16
125 -57 146 -57 12 0 16 -5 13 -15 -5 -11 -1 -12 18 -5 17 6 27 5 35 -5 9 -10
7 -14 -7 -17 -13 -3 -11 -6 9 -10 15 -3 25 -2 23 3 -3 4 13 -1 34 -12 22 -10
47 -19 55 -19 8 0 18 -4 21 -10 3 -5 15 -10 26 -10 11 0 27 -7 36 -15 8 -8 19
-13 23 -10 8 5 63 -15 175 -65 48 -21 238 -90 249 -90 4 0 21 -9 37 -21 16
-11 29 -16 29 -11 0 7 12 6 32 0 18 -6 38 -12 43 -13 12 -3 8 -2 70 -21 63
-20 194 -51 375 -91 41 -9 127 -29 190 -45 63 -16 131 -31 150 -34 19 -3 51
-10 70 -15 19 -5 52 -9 73 -9 20 0 37 -4 37 -8 0 -4 33 -9 72 -10 40 -2 89 -7
108 -12 19 -5 82 -14 140 -21 58 -6 121 -13 140 -16 19 -2 79 -8 132 -13 53
-4 121 -13 150 -19 122 -24 861 -37 1270 -22 180 7 349 14 375 16 166 14 607
65 738 87 33 5 71 11 85 12 31 3 141 22 245 43 44 9 89 17 100 19 41 6 80 15
95 20 8 3 60 14 115 24 117 23 168 35 250 60 33 11 71 21 85 24 72 13 170 39
205 52 22 9 49 17 60 19 11 1 63 17 115 35 52 18 138 47 190 65 52 18 111 39
130 48 78 35 128 55 175 72 28 10 55 22 62 27 6 5 14 5 17 0 6 -10 -35 -42
-52 -42 -5 0 -15 -7 -22 -15 -7 -8 -23 -15 -36 -15 -12 0 -26 -4 -29 -10 -3
-5 -17 -10 -29 -10 -13 0 -28 -6 -34 -13 -6 -7 -27 -19 -46 -27 -19 -7 -33
-17 -30 -22 3 -4 -1 -8 -9 -8 -7 0 -24 -11 -37 -26 -28 -29 -108 -67 -126 -60
-7 3 -14 1 -16 -5 -3 -10 -224 -89 -251 -89 -9 0 -25 -4 -35 -10 -9 -5 -44
-17 -77 -25 -33 -9 -76 -21 -95 -26 -46 -13 -56 -15 -115 -29 -27 -7 -57 -16
-65 -20 -9 -4 -45 -11 -80 -15 -36 -4 -74 -12 -85 -18 -11 -6 -38 -14 -60 -18
-61 -12 -218 -41 -240 -44 -11 -2 -42 -9 -70 -15 -27 -7 -84 -16 -125 -21 -41
-5 -130 -17 -198 -27 -68 -11 -134 -17 -148 -14 -14 2 -24 0 -24 -7 0 -7 -25
-11 -69 -11 -39 0 -72 -4 -75 -9 -10 -15 -76 -19 -76 -4 0 7 -5 13 -11 13 -6
0 -9 -6 -6 -12 3 -9 -6 -14 -27 -14 -17 -1 -73 -5 -123 -9 -66 -5 -93 -4 -93
4 0 6 6 11 14 11 8 0 18 5 21 10 4 6 -12 10 -39 10 -42 0 -46 -2 -46 -25 0
-21 -5 -25 -27 -25 -20 0 -24 3 -15 9 10 6 7 10 -13 15 -16 4 -32 3 -38 -3 -8
-8 -6 -11 6 -11 9 0 17 -4 17 -10 0 -14 -44 -12 -58 2 -10 10 -15 10 -22 -2
-6 -10 -24 -13 -58 -11 -28 1 -53 -2 -57 -8 -11 -18 -35 -12 -35 9 0 21 -15
27 -25 10 -3 -5 -35 -10 -70 -10 -35 0 -75 -4 -89 -10 -14 -5 -103 -9 -198 -9
-213 0 -205 1 -253 -6 -30 -5 -36 -4 -25 4 11 8 -9 9 -70 6 -73 -5 -364 6
-550 20 -103 8 -525 56 -565 65 -22 4 -69 11 -105 15 -36 4 -84 11 -108 16
-24 5 -89 16 -145 23 -56 8 -136 22 -177 31 -41 9 -84 18 -95 20 -18 3 -131
28 -180 40 -11 2 -78 18 -150 35 -71 17 -139 34 -150 39 -11 5 -42 15 -70 21
-27 7 -75 20 -105 30 -30 10 -89 27 -130 40 -41 12 -88 28 -105 35 -16 7 -43
17 -60 20 -31 7 -176 58 -230 80 -16 7 -73 30 -125 50 -52 21 -111 46 -130 56
-52 27 -127 59 -139 59 -6 0 -11 5 -11 10 0 6 -3 9 -7 8 -5 -1 -28 8 -52 20
-25 12 -46 22 -48 22 -2 0 -3 -400 -3 -890 l0 -890 3750 0 3750 0 0 1565 c0
861 -1 1564 -2 1564 -2 -1 -61 -61 -133 -133z m-6368 -682 c-3 -3 -12 -4 -19
-1 -8 3 -5 6 6 6 11 1 17 -2 13 -5z m839 -273 c-3 -5 -15 -7 -26 -4 -28 7 -25
13 6 13 14 0 23 -4 20 -9z m71 -17 c-3 -3 -12 -4 -19 -1 -8 3 -5 6 6 6 11 1
17 -2 13 -5z m5445 -196 c-7 -7 -12 -8 -12 -2 0 14 12 26 19 19 2 -3 -1 -11
-7 -17z m-29 -22 c-4 -19 -13 -25 -51 -30 -25 -3 -53 -13 -63 -22 -18 -16 -54
-16 -51 0 0 5 23 17 51 27 27 9 60 24 73 33 32 23 46 20 41 -8z m-4828 -126
c3 -5 -1 -10 -10 -10 -9 0 -13 5 -10 10 3 6 8 10 10 10 2 0 7 -4 10 -10z
m-295 -80 c0 -5 -4 -10 -10 -10 -5 0 -10 5 -10 10 0 6 5 10 10 10 6 0 10 -4
10 -10z m160 -325 c96 -8 198 -19 225 -24 87 -16 196 -30 310 -40 61 -6 140
-13 178 -17 37 -3 70 -11 73 -16 4 -7 -11 -8 -42 -5 -89 11 -266 24 -419 32
-131 7 -197 16 -368 50 -71 14 -137 25 -148 25 -10 0 -19 5 -19 11 0 6 8 8 18
5 9 -3 96 -12 192 -21z m843 -102 c-7 -2 -21 -2 -30 0 -10 3 -4 5 12 5 17 0
24 -2 18 -5z"/>
<path d="M557 3088 c14 -16 17 -16 39 -1 13 8 24 16 24 18 0 1 -18 2 -39 1
-37 -1 -39 -2 -24 -18z"/>
<path d="M870 3106 c0 -3 5 -17 10 -31 14 -38 3 -49 -28 -29 l-25 17 20 -29
c12 -16 30 -38 42 -48 21 -19 21 -19 21 7 0 14 4 37 9 50 8 19 6 27 -5 31 -8
3 -14 12 -14 21 0 8 -7 15 -15 15 -8 0 -15 -2 -15 -4z"/>
<path d="M6845 3100 c-4 -6 6 -10 22 -10 22 0 25 2 13 10 -19 12 -27 12 -35 0z"/>
<path d="M385 3090 c-3 -5 1 -10 10 -10 9 0 13 5 10 10 -3 6 -8 10 -10 10 -2
0 -7 -4 -10 -10z"/>
<path d="M2990 3091 c0 -5 9 -7 20 -4 11 3 20 7 20 9 0 2 -9 4 -20 4 -11 0
-20 -4 -20 -9z"/>
<path d="M630 3068 c0 -24 18 -41 35 -34 17 6 17 8 0 26 -21 23 -35 26 -35 8z"/>
<path d="M2966 3071 c-4 -7 -5 -15 -2 -18 9 -9 19 4 14 18 -4 11 -6 11 -12 0z"/>
<path d="M6460 3070 c-13 -8 -12 -10 3 -10 9 0 17 5 17 10 0 12 -1 12 -20 0z"/>
<path d="M2514 3056 c-7 -19 26 -108 43 -113 6 -2 13 4 15 14 5 20 56 48 103
58 26 6 27 8 12 16 -10 6 -26 8 -36 4 -13 -4 -24 1 -34 15 -12 17 -18 19 -42
10 -20 -7 -31 -7 -41 1 -11 9 -15 7 -20 -5z"/>
<path d="M1658 3040 c-14 -10 -29 -16 -32 -12 -4 4 -5 -5 -2 -21 3 -15 8 -37
11 -50 4 -20 9 -23 35 -19 22 3 34 12 41 29 15 40 11 56 -11 50 -11 -3 -22 -1
-25 3 -8 12 33 33 47 24 7 -4 8 -3 4 4 -11 18 -40 14 -68 -8z"/>
<path d="M1047 3044 c-10 -10 -9 -54 2 -54 5 0 11 6 14 13 6 16 -7 50 -16 41z"/>
<path d="M2730 3017 c0 -21 -5 -27 -22 -27 -16 0 -19 -3 -10 -9 7 -4 24 -6 38
-3 20 4 23 9 18 26 -10 35 -24 42 -24 13z"/>
<path d="M6960 2939 c-14 -10 -33 -19 -42 -19 -9 0 -20 -4 -23 -10 -10 -16
-25 -11 -18 6 5 14 3 14 -16 3 -11 -8 -21 -19 -21 -26 0 -7 -8 -13 -19 -13
-10 0 -29 -8 -42 -19 -83 -64 -189 -92 -189 -50 0 13 4 18 12 13 7 -5 8 -3 3
5 -4 8 4 24 20 41 l27 28 -30 16 c-21 11 -33 12 -37 5 -4 -5 -19 -9 -33 -8
-62 5 -72 1 -72 -31 0 -17 -7 -33 -17 -38 -9 -6 -13 -15 -9 -23 19 -39 33 -58
38 -54 3 3 8 -1 11 -9 9 -23 -8 -28 -50 -17 -28 8 -39 7 -45 -2 -13 -20 -9
-30 7 -17 14 12 39 5 31 -9 -3 -4 5 -8 16 -8 22 -2 40 -22 32 -35 -4 -6 19
-62 31 -76 5 -6 146 86 235 153 112 85 242 202 232 209 -4 2 -19 -4 -32 -15z"/>
<path d="M1340 2936 c0 -9 5 -16 10 -16 6 0 10 4 10 9 0 6 -4 13 -10 16 -5 3
-10 -1 -10 -9z"/>
<path d="M1518 2922 c-2 -18 -1 -32 3 -32 15 0 19 18 10 41 -8 22 -8 22 -13
-9z"/>
<path d="M944 2929 c-3 -5 -10 -6 -16 -3 -6 4 -5 -3 2 -16 10 -18 8 -28 -14
-61 -31 -46 -33 -80 -6 -97 11 -7 21 -22 21 -35 1 -19 2 -20 6 -3 3 11 12 26
20 34 7 8 12 19 10 26 -2 6 3 17 10 24 11 12 11 17 1 29 -16 20 -11 62 9 86 9
9 12 17 7 18 -5 0 -17 2 -26 4 -10 2 -20 -1 -24 -6z m20 -24 c-4 -8 -10 -12
-15 -9 -14 8 -10 24 6 24 9 0 12 -6 9 -15z"/>
<path d="M1370 2890 c0 -12 -7 -23 -15 -26 -23 -9 -18 -27 14 -58 26 -25 33
-26 80 -20 28 4 54 10 56 14 6 10 -24 35 -32 27 -3 -3 -19 1 -35 9 -25 13 -28
20 -23 42 5 24 2 28 -20 30 -19 1 -25 -3 -25 -18z"/>
<path d="M2165 2899 c-10 -15 3 -25 16 -12 7 7 7 13 1 17 -6 3 -14 1 -17 -5z"/>
<path d="M2444 2893 c-9 -15 -7 -18 12 -19 27 -2 26 -2 18 20 -8 21 -17 20
-30 -1z"/>
<path d="M2761 2868 c5 -9 9 -33 9 -52 0 -20 5 -36 10 -36 6 0 10 -9 10 -21 0
-27 11 -19 35 28 11 21 25 42 32 46 7 4 13 19 13 33 0 24 -2 25 -59 22 -52 -3
-58 -5 -50 -20z"/>
<path d="M3820 2880 c0 -5 5 -10 10 -10 6 0 10 5 10 10 0 6 -4 10 -10 10 -5 0
-10 -4 -10 -10z"/>
<path d="M1796 2864 c-10 -25 1 -29 14 -5 6 12 7 21 1 21 -5 0 -12 -7 -15 -16z"/>
<path d="M6230 2842 c0 -1 11 -7 25 -12 21 -8 24 -14 19 -39 -6 -26 -4 -29 14
-24 27 7 65 48 60 64 -3 8 -25 13 -61 13 -31 1 -57 0 -57 -2z"/>
<path d="M2496 2818 c16 -48 11 -63 -21 -63 -20 -1 -31 -6 -33 -18 -5 -27 24
-31 57 -8 16 12 34 21 40 21 13 0 15 17 2 24 -5 4 -12 0 -14 -6 -3 -7 -6 -1
-6 14 -1 34 -11 58 -23 58 -5 0 -6 -10 -2 -22z"/>
<path d="M1682 2778 c-16 -16 -15 -33 2 -47 12 -10 17 -8 25 8 11 19 6 51 -8
51 -4 0 -12 -5 -19 -12z"/>
<path d="M2596 2768 c8 -28 12 -33 20 -25 9 8 -6 47 -17 47 -6 0 -7 -10 -3
-22z"/>
<path d="M680 2758 c36 -34 90 -71 90 -61 0 17 -16 31 -65 57 -47 26 -49 26
-25 4z"/>
<path d="M1240 2760 c0 -5 5 -10 10 -10 6 0 10 5 10 10 0 6 -4 10 -10 10 -5 0
-10 -4 -10 -10z"/>
<path d="M1031 2727 c-19 -12 -47 -34 -63 -49 -16 -16 -36 -28 -44 -28 -8 0
-14 -7 -14 -15 0 -8 -7 -15 -16 -15 -14 0 -14 -2 0 -15 8 -8 17 -15 20 -15 3
0 36 -19 73 -41 126 -77 388 -203 404 -194 5 4 9 23 9 43 0 39 -19 64 -59 77
-24 7 -23 3 -27 75 -1 30 -3 59 -3 64 -1 4 -8 6 -16 2 -33 -12 -45 4 -45 60 0
30 -4 54 -8 54 -12 0 -52 -39 -52 -50 0 -17 -25 -11 -38 10 -11 18 -10 20 15
20 l28 1 -35 19 c-45 25 -86 24 -129 -3z m-56 -147 c3 -5 2 -10 -4 -10 -5 0
-13 5 -16 10 -3 6 -2 10 4 10 5 0 13 -4 16 -10z m223 -35 c10 -9 -14 -35 -33
-35 -18 0 -21 4 -17 25 4 21 9 24 26 19 11 -4 22 -8 24 -9z"/>
<path d="M1774 2729 c-3 -6 -2 -15 4 -21 6 -6 11 -2 15 11 5 22 -7 29 -19 10z"/>
<path d="M2635 2730 c3 -5 8 -10 11 -10 2 0 4 5 4 10 0 6 -5 10 -11 10 -5 0
-7 -4 -4 -10z"/>
<path d="M1490 2686 c0 -7 7 -19 15 -26 12 -10 16 -9 21 5 4 10 1 21 -7 26
-20 12 -29 11 -29 -5z"/>
<path d="M6190 2685 c0 -7 14 -27 30 -44 l31 -30 9 25 c13 33 13 47 0 39 -6
-4 -8 -12 -4 -18 3 -7 -3 -3 -13 9 -23 27 -53 38 -53 19z"/>
<path d="M2810 2680 c0 -5 5 -10 11 -10 5 0 8 -4 5 -9 -8 -13 19 -21 70 -21
32 0 44 4 44 15 0 11 -12 15 -42 16 -24 1 -46 1 -50 0 -5 0 -8 4 -8 9 0 6 -7
10 -15 10 -8 0 -15 -4 -15 -10z"/>
<path d="M6456 2676 c21 -15 30 -14 19 3 -3 6 -14 11 -23 11 -13 0 -13 -2 4
-14z"/>
<path d="M1850 2649 c-24 -20 -24 -21 -5 -35 22 -16 35 -18 35 -5 0 5 -7 11
-17 13 -15 3 -15 4 0 17 14 11 18 10 27 -11 6 -13 29 -33 50 -46 26 -14 46
-37 59 -65 11 -23 28 -53 39 -66 18 -23 21 -23 36 -9 15 16 36 60 36 78 0 4
-8 7 -17 6 -11 -1 -22 14 -34 48 -22 61 -36 70 -67 45 -33 -25 -36 -25 -78 16
-19 19 -36 35 -37 35 -1 -1 -13 -10 -27 -21z"/>
<path d="M3585 2620 c-3 -5 -2 -10 4 -10 5 0 13 5 16 10 3 6 2 10 -4 10 -5 0
-13 -4 -16 -10z"/>
<path d="M5207 2618 c2 -5 13 -8 24 -8 10 0 19 3 19 8 0 4 -11 7 -24 7 -13 0
-22 -3 -19 -7z"/>
<path d="M2172 2603 c2 -12 14 -18 41 -18 20 -1 37 1 37 5 0 15 -26 30 -53 30
-21 0 -28 -4 -25 -17z"/>
<path d="M3150 2600 c0 -15 -7 -20 -25 -20 -28 0 -31 -16 -10 -44 20 -26 11
-36 -33 -37 -71 -2 -87 -11 -87 -49 0 -41 21 -90 38 -90 6 0 20 20 30 44 24
58 34 65 98 73 30 3 63 10 74 16 11 6 28 11 37 12 10 1 21 5 25 8 9 10 -85
100 -97 92 -5 -3 -19 -1 -30 5 -17 9 -20 8 -20 -10z m50 -44 c0 -2 -9 -6 -20
-9 -11 -3 -18 -1 -14 4 5 9 34 13 34 5z"/>
<path d="M3936 2592 c-3 -6 4 -12 17 -16 33 -9 53 -7 42 3 -16 15 -53 22 -59
13z"/>
<path d="M6249 2558 c-9 -113 -8 -112 -51 -122 -37 -9 -36 8 2 24 37 15 38 23
5 38 -31 14 -58 16 -50 3 7 -12 -22 -41 -41 -41 -23 0 -16 -33 11 -53 22 -16
28 -16 52 -3 40 20 174 56 210 56 18 0 44 5 60 12 27 12 25 13 -37 18 -36 3
-69 2 -74 -2 -17 -14 -26 -9 -26 15 0 43 -58 95 -61 55z"/>
<path d="M6085 2520 c4 -6 11 -8 16 -5 14 9 11 15 -7 15 -8 0 -12 -5 -9 -10z"/>
<path d="M6430 2520 c-13 -9 -13 -10 0 -10 8 0 22 5 30 10 13 9 13 10 0 10 -8
0 -22 -5 -30 -10z"/>
<path d="M2138 2485 c3 -19 8 -23 15 -16 8 8 7 16 -5 27 -14 14 -15 14 -10
-11z"/>
<path d="M2400 2505 c0 -2 9 -9 20 -15 16 -9 20 -8 20 5 0 8 -9 15 -20 15 -11
0 -20 -2 -20 -5z"/>
<path d="M4450 2477 c0 -14 -9 -26 -22 -32 -13 -6 -27 -20 -33 -32 -6 -15 -18
-23 -33 -23 -13 0 -21 -4 -18 -8 3 -5 -9 -22 -27 -38 -38 -34 -44 -56 -21 -75
10 -8 19 -13 21 -11 2 1 26 0 54 -4 39 -5 58 -14 77 -35 14 -16 33 -29 43 -29
10 0 21 -4 24 -10 3 -5 17 -10 30 -10 31 0 71 -72 51 -93 -7 -6 -15 -20 -19
-29 -8 -21 -86 -25 -105 -6 -9 9 -12 6 -12 -16 0 -15 4 -25 10 -21 6 3 10 0
10 -7 0 -7 -12 -21 -27 -30 l-28 -17 40 0 c54 1 191 27 148 28 -32 1 -41 10
-25 25 4 4 7 11 7 14 0 8 41 57 73 88 13 13 19 25 13 28 -12 8 27 56 45 56 6
0 17 6 23 13 8 11 6 18 -9 32 -11 10 -20 23 -20 30 0 7 -11 24 -25 39 -14 15
-25 36 -25 46 0 19 -17 36 -26 27 -3 -3 -1 -14 5 -25 13 -24 -6 -52 -62 -93
-44 -32 -62 -34 -120 -18 -38 10 -65 47 -44 60 5 4 7 18 3 32 -5 22 -2 25 32
31 20 3 60 6 88 6 50 0 52 1 56 30 3 17 0 37 -6 45 -14 19 -76 32 -76 16 0 -7
-5 -9 -10 -6 -6 4 -8 10 -5 15 6 9 -25 30 -44 30 -6 0 -11 -10 -11 -23z"/>
<path d="M3420 2470 c-9 -16 -7 -24 5 -36 8 -8 15 -19 15 -24 0 -4 18 -11 40
-15 22 -4 40 -11 40 -16 0 -6 5 -7 10 -4 6 3 10 17 10 29 0 19 -4 22 -24 19
-20 -4 -27 1 -41 31 -19 40 -39 46 -55 16z"/>
<path d="M2687 2473 c-10 -10 -8 -33 3 -33 5 0 14 9 20 20 8 15 8 20 -3 20 -8
0 -17 -3 -20 -7z"/>
<path d="M2195 2439 c-4 -6 -5 -12 -2 -15 2 -3 7 2 10 11 7 17 1 20 -8 4z"/>
<path d="M2230 2440 c0 -5 5 -10 10 -10 6 0 10 5 10 10 0 6 -4 10 -10 10 -5 0
-10 -4 -10 -10z"/>
<path d="M3842 2428 c19 -28 34 -33 42 -13 9 24 -1 35 -31 35 -24 0 -25 -1
-11 -22z"/>
<path d="M5810 2426 c0 -2 7 -7 16 -10 8 -3 12 -2 9 4 -6 10 -25 14 -25 6z"/>
<path d="M1530 2387 c0 -21 -7 -48 -15 -61 -15 -22 -14 -23 63 -54 42 -17 112
-42 154 -56 69 -23 84 -25 128 -15 63 13 77 35 47 71 -24 28 -67 47 -67 29 0
-14 -37 -14 -42 -1 -4 14 -75 39 -109 40 -14 0 -29 3 -33 7 -3 4 -14 8 -24 9
-9 2 -18 8 -20 13 -2 6 -13 11 -24 11 -11 0 -28 10 -39 23 l-18 22 -1 -38z"/>
<path d="M1790 2385 c0 -8 9 -19 21 -25 20 -11 20 -11 4 14 -20 30 -25 32 -25
11z"/>
<path d="M5871 2391 c-11 -7 -10 -11 7 -20 11 -6 26 -17 34 -23 41 -39 44 -40
99 -19 49 19 68 34 69 54 0 5 -37 7 -82 6 -46 -2 -90 0 -98 4 -8 4 -21 3 -29
-2z"/>
<path d="M4142 2325 c4 -49 2 -55 -14 -55 -10 0 -22 -8 -25 -17 -4 -10 -9 -20
-13 -23 -3 -3 2 -13 12 -22 17 -17 18 -16 33 12 13 25 22 30 51 30 36 0 36 0
20 23 -9 12 -19 29 -22 37 -3 8 -10 23 -15 33 -5 10 -7 22 -4 27 4 6 -1 10
-11 10 -14 0 -16 -8 -12 -55z"/>
<path d="M5820 2335 c14 -16 6 -35 -16 -35 -8 0 -14 -9 -14 -19 0 -20 -12 -21
-60 -6 -16 5 -19 1 -17 -25 2 -28 4 -30 32 -24 16 4 43 13 60 20 16 7 51 20
78 30 51 18 62 34 22 34 -14 0 -25 3 -25 8 0 7 -48 32 -63 32 -5 0 -4 -7 3
-15z"/>
<path d="M3876 2331 c-3 -5 1 -14 9 -21 13 -10 15 -9 15 9 0 21 -14 28 -24 12z"/>
<path d="M2940 2307 c0 -13 5 -28 10 -33 13 -13 20 -85 10 -99 -4 -5 -11 -21
-15 -35 -13 -46 12 -8 34 50 23 60 26 90 11 90 -6 0 -15 11 -20 25 -12 31 -30
33 -30 2z"/>
<path d="M3565 2320 c4 -6 11 -8 16 -5 14 9 11 15 -7 15 -8 0 -12 -5 -9 -10z"/>
<path d="M3984 2284 c3 -8 6 -32 6 -52 0 -33 1 -35 16 -20 19 19 11 73 -13 82
-11 5 -14 2 -9 -10z"/>
<path d="M3435 2270 c-3 -5 0 -10 7 -10 9 0 9 -3 -2 -10 -13 -8 -12 -10 3 -10
9 0 17 6 17 14 0 19 -17 29 -25 16z"/>
<path d="M3878 2217 c-56 -22 -33 -59 71 -112 36 -19 86 -46 111 -60 25 -14
50 -25 57 -25 7 0 12 -3 12 -7 -4 -23 3 -33 21 -33 13 0 22 -9 26 -27 7 -25 8
-25 20 -8 8 11 14 26 14 36 0 9 7 19 15 23 22 8 21 76 -2 76 -9 0 -25 8 -35
17 -18 16 -21 16 -47 0 -24 -14 -34 -15 -62 -5 -31 10 -78 41 -104 69 -5 5
-18 18 -27 27 -10 9 -18 22 -18 29 0 15 -14 15 -52 0z m286 -142 c3 -8 1 -15
-4 -15 -6 0 -10 7 -10 15 0 8 2 15 4 15 2 0 6 -7 10 -15z"/>
<path d="M2789 2193 c-6 -16 -13 -40 -16 -55 -3 -15 -9 -26 -12 -23 -4 2 -5
-23 -3 -56 3 -45 1 -59 -9 -60 -32 -2 60 -28 101 -28 l45 -1 -3 55 c-2 31 1
62 7 69 6 7 8 21 5 31 -4 9 -7 26 -8 38 -1 14 -13 28 -36 39 -48 24 -59 22
-71 -9z"/>
<path d="M4920 2205 c0 -8 -11 -17 -25 -21 -20 -5 -23 -10 -18 -35 8 -43 -9
-57 -62 -51 -41 4 -45 3 -45 -17 0 -12 -5 -30 -12 -40 -6 -10 -8 -26 -5 -35 6
-15 16 -16 69 -10 101 10 181 29 186 42 2 7 -5 12 -15 12 -11 0 -29 10 -41 23
-20 21 -21 30 -16 85 5 44 3 62 -5 62 -6 0 -11 -7 -11 -15z m-110 -184 c0 -5
-11 -11 -25 -13 -28 -6 -35 8 -7 15 28 8 32 7 32 -2z"/>
<path d="M3760 2195 c0 -8 -4 -15 -10 -15 -5 0 -10 -5 -10 -11 0 -5 4 -8 9 -4
5 3 12 -3 14 -12 3 -10 5 -3 6 15 0 18 5 31 10 27 5 -3 12 -1 16 5 3 5 -3 10
-14 10 -12 0 -21 -7 -21 -15z"/>
<path d="M3700 2196 c0 -2 7 -7 16 -10 8 -3 12 -2 9 4 -6 10 -25 14 -25 6z"/>
<path d="M3215 2150 c-3 -5 -17 -10 -30 -10 -27 0 -44 -35 -26 -53 6 -6 11
-19 11 -29 0 -24 12 -23 28 2 7 11 21 20 32 20 23 0 39 28 31 55 -7 22 -36 32
-46 15z"/>
<path d="M2095 2140 c-9 -15 2 -27 30 -32 16 -4 24 -1 22 6 -2 6 -11 10 -20
10 -9 -1 -15 2 -12 6 3 5 1 11 -4 14 -5 4 -12 2 -16 -4z"/>
<path d="M3752 2106 c-11 -26 -19 -28 -92 -30 -18 -1 -25 -7 -26 -21 -3 -53
-4 -55 -34 -55 -20 0 -30 -5 -30 -15 0 -8 -9 -15 -21 -15 -16 0 -19 -4 -13
-22 3 -13 8 -25 10 -27 3 -3 111 -4 241 -3 182 1 240 5 250 15 11 11 10 15 -9
23 -13 6 -52 24 -88 41 -36 17 -86 39 -112 48 -26 10 -45 21 -42 26 3 5 -1 20
-9 34 l-13 26 -12 -25z m233 -166 c14 -5 7 -8 -27 -8 -27 0 -48 4 -48 9 0 11
47 11 75 -1z"/>
<path d="M2542 2099 c-10 -15 -10 -25 -3 -32 12 -12 25 12 19 38 -2 13 -6 12
-16 -6z"/>
<path d="M5030 2065 c0 -21 21 -28 51 -16 23 9 23 10 2 10 -12 1 -25 6 -28 11
-9 15 -25 12 -25 -5z"/>
<path d="M3000 2062 c0 -7 -6 -12 -14 -12 -7 0 -19 -7 -26 -15 -17 -21 0 -18
30 5 14 10 21 22 17 26 -4 4 -7 2 -7 -4z"/>
<path d="M3267 2019 c-9 -6 -15 -14 -12 -20 4 -5 -8 -9 -24 -9 -17 0 -31 -5
-31 -11 0 -5 -4 -7 -10 -4 -5 3 -10 -3 -10 -14 0 -13 7 -21 18 -22 9 0 36 -2
58 -5 l42 -6 -2 46 c-3 54 -5 58 -29 45z"/>
<path d="M4280 1979 c0 -7 8 -18 18 -25 20 -16 106 -19 97 -4 -3 6 -19 10 -35
10 -15 0 -30 7 -34 15 -6 17 -46 21 -46 4z"/>
<path d="M130 1806 c0 -2 7 -7 16 -10 8 -3 12 -2 9 4 -6 10 -25 14 -25 6z"/>
</g>
</svg>
