<?xml version="1.0" standalone="no"?>
<!DOCTYPE svg PUBLIC "-//W3C//DTD SVG 20010904//EN"
 "http://www.w3.org/TR/2001/REC-SVG-20010904/DTD/svg10.dtd">
<svg version="1.0" xmlns="http://www.w3.org/2000/svg"
 width="1200.000000pt" height="828.000000pt" viewBox="0 0 1200.000000 828.000000"
 preserveAspectRatio="xMidYMid meet">

<g transform="translate(0.000000,828.000000) scale(0.100000,-0.100000)"
fill="#000000" stroke="none">
<path d="M0 8169 l0 -111 53 6 c100 10 151 6 177 -14 56 -45 72 -53 114 -57
40 -5 46 -9 62 -45 10 -21 30 -48 45 -59 46 -32 62 -27 137 44 7 6 26 27 42
45 40 45 87 45 132 -2 35 -35 57 -42 188 -52 36 -3 70 -9 75 -14 6 -4 22 -10
37 -14 31 -7 39 -31 21 -65 -10 -20 -9 -30 8 -63 17 -34 18 -43 7 -74 -6 -18
-16 -34 -20 -34 -4 0 -8 -15 -8 -34 0 -26 5 -35 22 -39 43 -12 55 6 50 72 -3
41 -1 61 7 61 6 0 11 16 11 35 0 25 8 44 30 66 16 17 28 36 27 42 -1 6 9 11
23 11 23 1 25 5 25 46 0 33 -5 50 -20 62 -19 16 -19 18 -3 45 15 25 25 29 88
37 66 8 72 7 95 -14 13 -12 27 -37 31 -54 22 -104 108 -173 129 -105 4 10 11
19 16 19 5 0 14 11 19 25 8 22 16 25 55 25 27 0 63 -9 86 -21 72 -36 199 -46
199 -15 0 6 16 26 35 45 19 19 35 37 35 40 -1 15 -19 30 -67 55 -89 45 -90 71
-3 134 112 82 162 64 159 -57 -1 -34 3 -67 9 -73 11 -11 52 -2 52 13 0 5 14 9
30 9 40 0 40 -26 0 -34 -17 -3 -29 -10 -28 -15 4 -12 -42 -52 -52 -46 -14 9
-20 -26 -9 -48 7 -12 26 -34 42 -48 28 -23 35 -25 76 -17 25 4 50 13 55 18 6
6 23 10 38 10 26 0 28 -3 28 -38 0 -21 -8 -49 -17 -62 -10 -14 -16 -39 -14
-60 3 -38 38 -148 54 -168 5 -7 7 -31 4 -55 -6 -45 4 -74 22 -63 6 4 11 18 11
31 0 66 58 112 116 92 23 -8 34 -33 34 -79 0 -18 5 -28 14 -28 27 0 126 141
126 180 0 13 8 20 28 22 l27 3 -32 18 c-44 24 -64 22 -122 -12 -31 -19 -57
-27 -71 -24 -25 7 -70 90 -70 130 0 31 41 73 72 73 14 0 18 8 18 34 0 28 -5
36 -29 46 -18 7 -46 9 -73 5 -41 -6 -47 -4 -66 20 -25 32 -17 67 19 75 13 4
93 5 177 3 90 -2 171 1 194 8 64 17 117 14 132 -7 10 -13 33 -20 87 -25 40 -3
75 -12 77 -18 2 -6 10 -11 18 -11 8 0 14 -4 14 -9 0 -5 3 -16 6 -25 7 -18 -60
-39 -118 -37 -37 1 -61 -19 -51 -45 2 -6 -8 -34 -22 -61 -14 -28 -25 -57 -25
-65 0 -8 -5 -19 -11 -25 -21 -21 1 -60 44 -77 36 -14 44 -14 70 -1 17 8 36 15
44 15 16 0 17 -32 1 -48 -9 -9 -7 -16 7 -32 37 -41 104 -18 130 44 9 22 23 53
31 67 11 22 11 29 -6 57 -11 17 -26 56 -34 86 -13 53 -13 56 6 62 11 3 46 3
79 -1 47 -6 59 -10 55 -22 -3 -8 -2 -12 3 -9 14 9 21 -21 21 -89 l0 -63 33 -5
c73 -11 92 -20 132 -60 23 -23 47 -46 54 -52 6 -5 23 -23 37 -39 20 -23 31
-27 57 -23 50 7 67 -7 67 -57 0 -30 -6 -48 -20 -61 -11 -10 -20 -24 -20 -31 0
-7 -6 -19 -12 -26 -23 -23 -18 -43 13 -60 17 -10 37 -18 44 -18 20 0 45 -40
44 -70 0 -14 -3 -19 -6 -11 -4 10 -12 3 -24 -20 -10 -19 -18 -29 -19 -22 0 7
-17 2 -46 -13 -25 -13 -52 -24 -60 -24 -11 0 -14 -15 -14 -64 0 -36 -4 -67 -9
-70 -15 -9 3 -58 26 -73 19 -13 25 -11 68 32 47 45 48 46 42 98 -8 80 3 90
105 86 46 -1 91 1 100 5 9 4 24 24 33 44 8 20 29 61 45 90 20 36 25 54 17 57
-7 2 -25 6 -42 10 -44 9 -125 92 -125 128 0 23 7 31 37 43 38 16 46 16 153
-11 36 -8 74 -17 85 -19 102 -16 251 -104 243 -144 -2 -9 -6 -15 -9 -12 -3 3
-13 -3 -23 -12 -10 -10 -26 -18 -36 -18 -19 0 -50 -40 -50 -65 0 -8 4 -15 10
-15 5 0 26 -16 46 -35 45 -44 41 -72 -16 -128 -28 -27 -40 -47 -40 -67 0 -37
13 -45 75 -46 50 0 82 -9 164 -47 l43 -20 -4 -48 c-7 -64 16 -95 62 -85 28 5
66 -7 80 -26 3 -3 23 -8 44 -10 28 -2 44 -10 59 -29 18 -26 19 -28 2 -55 -9
-16 -28 -37 -42 -48 -25 -18 -25 -18 -69 13 -43 30 -74 40 -74 23 0 -4 -18
-18 -40 -32 -63 -39 -58 -42 72 -44 50 -1 61 -5 91 -34 37 -36 55 -39 97 -17
19 10 30 25 35 47 12 60 16 68 35 68 10 0 22 5 25 10 3 6 25 10 48 10 41 1 83
21 70 33 -3 4 8 7 25 7 18 0 32 -4 32 -10 0 -5 6 -10 13 -10 23 0 44 -32 52
-77 8 -49 19 -60 110 -108 89 -47 93 -51 76 -76 -17 -28 -22 -57 -10 -64 11
-8 79 -112 79 -123 0 -5 15 -22 33 -40 42 -41 78 -42 98 -4 8 15 20 33 27 40
10 11 12 10 12 -6 0 -11 -4 -22 -10 -24 -15 -5 0 -78 16 -78 8 0 14 -4 14 -10
0 -5 -9 -10 -19 -10 -11 0 -23 -9 -27 -22 l-7 -22 -18 23 c-11 13 -17 26 -15
30 12 19 -61 9 -99 -14 -45 -26 -92 -34 -79 -14 5 8 -5 10 -32 7 -30 -4 -44
-1 -61 15 -17 15 -36 19 -90 19 -88 0 -153 -11 -153 -27 0 -11 -22 -27 -42
-29 -3 -1 -17 -12 -31 -26 -13 -14 -43 -40 -67 -59 -23 -19 -49 -49 -56 -67
-8 -19 -18 -33 -22 -33 -15 3 -72 -23 -67 -31 3 -4 -7 -10 -20 -13 -14 -2 -27
-1 -30 3 -5 8 59 72 66 66 3 -3 6 17 7 44 2 41 -1 50 -18 55 -11 3 -20 11 -20
16 0 5 -14 9 -31 9 -22 0 -40 -10 -68 -39 -41 -42 -118 -71 -190 -71 -29 0
-41 -4 -41 -15 0 -26 -42 -55 -80 -55 -41 0 -73 -28 -84 -73 -5 -22 -2 -29 15
-35 16 -6 22 -18 25 -55 l3 -47 -51 0 c-57 0 -77 16 -78 63 0 16 -4 36 -9 46
-13 23 20 78 53 90 24 10 36 30 36 62 0 15 -7 19 -33 19 -34 0 -91 -23 -102
-41 -8 -12 -82 -12 -90 1 -8 14 -31 6 -129 -41 -44 -22 -84 -39 -89 -39 -6 0
-42 -15 -81 -34 -39 -18 -92 -36 -118 -40 -41 -6 -52 -13 -85 -56 -39 -49 -73
-70 -73 -44 0 9 -11 14 -27 14 -20 0 -40 -13 -71 -45 -45 -47 -56 -53 -68 -34
-3 6 -27 24 -52 40 -57 36 -130 39 -247 7 -57 -15 -112 -21 -191 -22 l-111 -1
-48 -37 c-27 -21 -56 -38 -66 -38 -10 0 -34 -9 -54 -20 -20 -11 -54 -20 -76
-20 -26 0 -42 -5 -45 -15 -9 -22 -62 -19 -111 7 l-42 22 -50 -24 c-28 -14 -51
-28 -51 -31 0 -4 -11 -10 -25 -13 -26 -7 -32 -20 -15 -31 6 -3 10 -17 10 -31
0 -13 4 -24 10 -24 11 0 24 -65 15 -79 -4 -7 -14 -5 -30 5 -18 11 -36 14 -67
9 -84 -12 -98 -17 -98 -31 0 -12 -10 -15 -42 -12 -32 2 -42 -1 -40 -10 1 -8
-4 -12 -13 -10 -22 4 -21 20 1 33 10 5 27 18 38 28 22 19 46 23 46 7 0 -5 7
-10 15 -10 10 0 15 10 15 34 0 19 7 41 15 50 9 9 11 17 5 21 -16 10 -84 -7
-97 -24 -8 -11 -30 -16 -72 -18 -67 -2 -81 -7 -81 -29 0 -8 -7 -14 -15 -14
-22 0 -48 46 -42 72 6 22 3 23 -66 26 -67 2 -75 0 -97 -23 -13 -14 -32 -25
-43 -25 -16 0 -18 -5 -12 -32 4 -18 12 -38 17 -45 15 -18 -31 -42 -69 -36 -38
6 -42 22 -13 48 19 17 28 65 13 65 -4 0 -21 -5 -38 -11 -28 -11 -35 -9 -54 10
-11 11 -21 26 -21 32 0 8 -4 8 -15 -1 -8 -6 -19 -9 -25 -5 -11 7 -33 -41 -25
-54 2 -5 -7 -19 -20 -31 -18 -16 -25 -34 -25 -59 0 -20 -4 -31 -8 -26 -4 6
-14 10 -22 10 -11 0 -16 13 -18 44 l-3 43 -37 -7 c-20 -4 -47 -7 -59 -7 -13 0
-23 -5 -23 -10 0 -6 -9 -8 -20 -5 -11 3 -18 0 -17 -7 1 -6 -9 -12 -23 -12 -14
-1 -32 -4 -40 -7 -34 -12 -83 -27 -91 -27 -4 0 -9 17 -11 37 -2 27 -8 39 -20
41 -11 2 -18 -3 -18 -13 0 -23 -80 -105 -103 -105 -16 0 -18 7 -16 57 3 52 1
57 -19 58 -15 1 -22 -4 -22 -16 0 -9 -6 -19 -14 -22 -13 -5 -35 -44 -50 -90
-9 -26 -34 -32 -71 -14 -29 14 -40 14 -83 3 -27 -8 -62 -11 -76 -9 -15 3 -26
1 -26 -6 0 -6 -9 -11 -21 -11 -11 0 -18 -4 -14 -9 3 -6 -10 -25 -28 -43 -18
-18 -36 -41 -39 -49 -7 -19 -67 -31 -109 -22 l-29 6 0 -117 c0 -109 1 -116 20
-116 22 0 91 -36 102 -54 4 -6 8 -23 8 -37 0 -20 8 -29 37 -42 21 -9 52 -19
70 -22 25 -5 38 -17 58 -52 14 -25 25 -53 26 -62 0 -9 3 -11 5 -5 4 9 13 8 33
-2 49 -24 54 -37 29 -70 -12 -16 -27 -32 -33 -37 -6 -5 -1 -15 13 -27 34 -28
133 -23 160 8 27 31 47 28 138 -21 66 -35 80 -46 82 -70 4 -30 14 -34 32 -12
17 21 56 19 72 -3 18 -25 51 -42 83 -42 27 0 217 -87 224 -103 2 -5 17 -25 34
-44 29 -33 34 -35 79 -30 55 7 78 -8 71 -46 -3 -17 4 -32 26 -55 17 -17 31
-37 31 -45 0 -8 7 -17 15 -21 10 -3 15 -19 15 -46 0 -30 7 -48 29 -72 27 -31
33 -33 106 -35 45 -1 86 -8 99 -16 20 -13 146 -21 296 -19 100 2 137 -7 167
-39 18 -18 38 -29 55 -29 16 0 41 -12 60 -29 18 -15 47 -36 65 -45 51 -26 120
-75 161 -113 29 -29 160 -113 175 -113 2 0 4 19 5 43 1 23 5 54 8 68 6 31 -31
135 -51 143 -21 8 -51 80 -64 152 -14 78 -14 100 2 116 6 7 13 27 15 43 5 44
22 95 33 95 5 0 9 7 9 15 0 8 6 15 14 15 16 0 46 42 46 64 0 9 -11 23 -25 32
-33 22 -51 7 -60 -49 -13 -74 -44 -111 -103 -123 -51 -10 -74 18 -77 92 -1 33
-8 92 -15 131 -16 87 -4 144 35 169 19 12 25 26 26 53 1 49 87 225 113 230 10
1 28 12 39 22 12 10 26 19 33 19 7 0 14 4 16 9 2 5 41 28 88 51 80 40 128 53
250 67 38 4 65 14 90 33 19 16 46 31 60 35 14 5 43 19 65 33 22 14 66 33 98
43 33 10 67 24 76 32 9 7 45 23 81 35 36 11 99 34 140 51 42 16 89 29 107 29
17 -1 53 10 80 24 26 14 93 40 148 58 125 40 223 78 255 100 14 9 47 22 73 29
42 10 91 33 107 51 3 3 28 11 55 18 28 7 71 24 97 37 32 17 64 25 98 25 27 0
50 5 50 10 0 6 23 10 50 10 50 0 106 21 186 71 28 17 55 23 112 26 46 2 79 8
86 16 15 18 101 71 156 96 27 12 66 21 98 21 45 0 52 -3 52 -19 0 -11 16 -32
35 -47 28 -21 42 -25 72 -21 69 10 98 20 133 47 19 14 56 36 83 48 45 21 57
35 39 46 -4 2 -9 22 -10 43 l-2 38 107 39 c60 21 131 49 158 61 28 13 74 26
103 30 28 4 52 11 52 16 0 15 65 39 107 39 58 0 130 26 223 79 47 27 108 56
136 64 28 8 89 35 135 60 118 62 191 87 254 87 50 0 81 13 53 22 -7 3 10 10
38 17 27 7 57 15 66 18 9 2 39 25 65 50 63 60 96 73 190 74 92 1 164 11 163
22 -3 18 62 64 125 90 80 33 87 33 121 4 l27 -23 64 23 c94 34 129 28 101 -17
-9 -14 -23 -20 -49 -20 -29 0 -38 -5 -48 -26 -16 -35 1 -56 38 -47 14 3 23 3
20 -1 -3 -3 16 -28 43 -55 78 -79 61 -141 -36 -127 -29 4 -50 0 -71 -12 -70
-40 -95 -57 -95 -64 0 -3 35 -10 77 -14 43 -4 83 -13 91 -20 16 -17 94 -18
110 -2 8 8 25 7 67 -6 56 -18 76 -46 32 -46 -34 0 -117 -30 -149 -54 -58 -42
-22 -86 46 -55 22 9 44 15 48 13 4 -3 5 2 2 10 -7 19 6 24 74 29 50 4 52 3 52
-20 0 -18 -4 -24 -15 -20 -8 4 -17 3 -19 -2 -5 -8 84 -51 106 -51 12 0 118
-106 118 -119 0 -4 22 -20 48 -34 27 -14 60 -37 73 -50 25 -22 25 -24 11 -55
-20 -42 -58 -43 -144 -2 -34 16 -73 30 -84 30 -32 0 -35 -33 -8 -77 13 -21 23
-47 23 -58 0 -16 -9 -9 -40 28 -23 26 -47 47 -55 47 -27 0 -64 24 -64 42 0 14
8 18 37 18 l37 0 -57 58 c-31 32 -57 62 -57 68 0 6 -9 19 -20 29 -26 24 -25
33 6 41 37 9 26 37 -19 47 -42 10 -54 4 -60 -28 -7 -44 -23 -58 -76 -63 -66
-6 -111 12 -111 44 0 26 10 30 27 13 8 -8 17 -7 32 3 27 17 28 48 1 48 -11 0
-20 7 -20 16 0 12 -9 14 -42 12 -35 -2 -43 -7 -43 -23 -1 -30 -14 -45 -40 -45
-32 0 -56 -10 -49 -21 3 -5 16 -9 29 -9 15 0 26 -7 30 -21 8 -26 9 -25 -46
-32 -32 -4 -52 -2 -65 8 -35 26 -54 19 -54 -20 0 -29 5 -37 26 -45 21 -8 25
-15 20 -34 -6 -24 -5 -24 26 -15 53 15 87 11 100 -11 8 -12 24 -20 40 -20 19
0 31 -8 40 -27 11 -23 19 -27 43 -25 17 2 70 3 120 3 75 -1 92 -4 109 -21 20
-19 20 -19 -15 -34 -28 -12 -31 -16 -16 -21 10 -4 27 0 41 8 23 15 26 14 62
-18 l39 -34 -30 0 c-16 0 -48 4 -70 9 -22 5 -48 7 -57 4 -22 -7 -13 -31 15
-40 30 -9 78 -50 105 -91 13 -18 27 -31 31 -28 5 3 5 -14 -1 -37 -6 -31 -6
-43 4 -49 7 -4 10 -10 7 -13 -3 -3 -15 3 -27 15 -25 23 -46 17 -37 -12 4 -10
2 -19 -4 -19 -5 0 -12 8 -14 18 -3 12 -5 10 -6 -7 -1 -19 3 -22 20 -18 29 8
49 -2 49 -24 0 -10 5 -19 10 -19 12 0 53 -40 47 -46 -2 -3 -16 1 -31 7 -21 10
-31 10 -51 -1 -14 -7 -25 -19 -25 -27 0 -7 -7 -13 -15 -13 -9 0 -19 -8 -22
-18 -4 -9 -11 -20 -17 -24 -12 -8 11 -38 29 -38 8 0 15 -6 18 -12 7 -23 -5
-48 -23 -48 -21 0 -121 89 -100 90 11 1 9 6 -7 19 -18 15 -23 30 -23 64 0 40
18 75 32 61 6 -5 68 68 68 80 0 11 -119 66 -124 57 -3 -5 -29 -4 -58 1 -29 5
-64 7 -78 4 -24 -4 -26 -2 -28 31 -2 19 2 41 9 49 9 11 6 18 -12 34 -13 10
-33 20 -44 20 -11 0 -29 7 -39 15 -18 14 -19 16 -2 34 19 21 10 32 -28 38 -13
2 -17 -1 -12 -12 3 -9 2 -13 -4 -10 -14 9 -12 59 2 73 9 9 9 12 -3 12 -9 0
-35 -22 -58 -50 -23 -27 -49 -50 -57 -50 -8 0 -14 -4 -14 -10 0 -16 28 -12 38
6 5 9 17 14 27 13 21 -4 33 -29 15 -29 -7 0 -21 -10 -31 -21 -14 -17 -33 -22
-86 -26 -37 -2 -111 -18 -163 -35 -144 -46 -156 -55 -42 -32 17 3 22 0 22 -16
0 -24 31 -27 54 -5 19 19 36 19 36 -1 0 -8 4 -13 9 -9 5 3 12 1 16 -5 3 -5 13
-10 21 -10 10 0 13 7 9 23 -6 23 -4 24 55 24 34 1 59 -1 56 -4 -3 -3 1 -12 9
-20 8 -8 15 -25 15 -39 0 -26 9 -31 28 -12 9 9 18 9 37 0 21 -10 27 -9 32 3 4
11 9 13 18 5 7 -6 23 -9 35 -8 13 2 25 -3 27 -9 3 -7 -2 -13 -10 -13 -21 0
-26 -32 -7 -47 13 -11 13 -12 0 -13 -8 0 -21 -10 -29 -21 -13 -22 -8 -31 23
-42 5 -2 6 -11 3 -21 -7 -17 -9 -16 -27 7 -15 19 -32 26 -67 29 -50 4 -103 -7
-103 -23 0 -15 44 -21 73 -10 23 9 35 7 67 -12 22 -12 40 -24 40 -27 0 -14
-63 -28 -135 -29 -44 -1 -92 -4 -107 -7 -43 -9 -35 20 11 43 51 25 41 46 -20
42 -60 -3 -104 0 -96 7 3 4 -18 27 -48 52 -30 26 -55 54 -55 64 0 10 -4 18 -9
18 -11 0 -21 -47 -26 -118 -3 -47 -8 -57 -42 -87 -56 -50 -85 -60 -123 -44
-16 8 -30 18 -30 24 0 5 -7 -1 -16 -14 -14 -19 -14 -25 -3 -33 11 -8 10 -9 -4
-4 -11 4 -27 -3 -41 -17 -28 -28 -115 -67 -150 -67 -30 0 -136 -45 -136 -58 0
-5 -10 -8 -21 -8 -12 1 -24 -5 -27 -12 -3 -11 10 -12 64 -8 38 3 77 5 87 5 10
1 15 5 12 11 -3 5 7 12 22 16 15 3 41 10 57 15 51 16 73 11 80 -16 5 -18 13
-25 32 -25 14 0 23 4 19 10 -3 6 -1 10 4 10 14 0 14 -29 0 -69 -6 -18 -18 -31
-27 -31 -23 0 -121 -60 -99 -60 9 0 17 -4 17 -10 0 -5 -5 -10 -11 -10 -8 0 -8
-4 1 -15 10 -12 15 -13 32 -1 17 12 79 8 94 -7 10 -9 -19 -56 -35 -56 -59 -2
-122 -20 -150 -44 -33 -27 -75 -35 -86 -17 -4 6 -1 9 7 8 8 -2 13 7 13 22 0
23 4 25 38 23 21 -1 35 1 33 6 -3 5 2 11 13 14 14 3 17 11 13 36 -2 17 -8 31
-13 31 -18 0 -24 -5 -21 -17 4 -18 -29 -16 -56 3 -20 14 -55 10 -36 -5 5 -3
17 -15 26 -26 17 -20 16 -21 -12 -23 -17 -1 -30 2 -30 7 0 5 -13 16 -30 24
-25 13 -31 13 -41 1 -9 -11 -7 -14 15 -14 14 0 26 -4 26 -10 0 -15 -57 -12
-63 3 -3 6 -6 -5 -6 -25 -1 -31 -5 -38 -21 -38 -11 0 -20 5 -20 10 0 6 4 10 9
10 5 0 9 11 9 25 0 14 -4 25 -7 25 -14 0 -31 -24 -31 -43 0 -16 -3 -17 -14 -8
-12 10 -17 8 -25 -7 -6 -11 -7 -22 -4 -26 3 -3 -3 -6 -15 -6 -24 0 -45 -31
-36 -54 3 -9 1 -16 -6 -16 -6 0 -8 5 -5 10 10 17 -8 11 -34 -11 -21 -17 -22
-22 -10 -30 12 -9 12 -10 -1 -8 -27 3 -44 -1 -37 -8 12 -12 70 -13 83 -2 11 9
14 8 14 -4 0 -17 27 -31 35 -18 3 5 20 4 39 -1 30 -9 41 -7 85 16 28 14 57 26
66 26 8 0 15 4 15 9 0 5 12 11 28 14 15 3 41 17 57 31 17 14 35 26 42 26 6 0
19 9 27 21 8 12 19 18 26 14 6 -4 16 -2 23 3 7 5 34 12 61 16 27 3 54 10 60
14 18 15 48 23 41 12 -3 -6 -1 -10 5 -10 6 0 16 -5 23 -10 67 -57 74 -60 83
-35 5 11 10 13 19 5 9 -8 15 -7 19 2 4 9 8 10 11 2 3 -6 12 -20 20 -30 13 -18
14 -17 8 6 l-6 25 23 -20 23 -20 -7 28 c-7 28 -6 28 14 14 12 -8 29 -13 39
-10 9 2 23 -2 30 -10 10 -13 6 -14 -31 -9 -37 4 -41 3 -31 -9 16 -19 6 -59
-13 -52 -8 3 -14 12 -14 20 0 10 -6 13 -16 9 -9 -3 -18 -6 -20 -6 -2 0 -4 -5
-4 -11 0 -5 4 -8 10 -4 5 3 17 -6 26 -20 14 -21 19 -23 33 -13 14 12 15 11 1
-6 -8 -11 -15 -20 -14 -20 0 -1 6 -11 13 -24 7 -12 16 -20 20 -17 5 2 21 -12
37 -32 15 -20 22 -33 14 -28 -9 5 -11 4 -6 -4 5 -7 19 -16 32 -21 15 -6 24
-18 24 -31 0 -15 -3 -19 -12 -12 -18 13 -64 10 -128 -10 -30 -9 -76 -19 -102
-22 l-47 -6 11 -30 c9 -26 7 -34 -12 -53 -12 -13 -42 -29 -68 -36 -26 -7 -63
-18 -82 -25 -19 -7 -47 -11 -62 -9 -24 2 -28 -1 -28 -21 0 -19 7 -26 28 -31
15 -3 38 -9 52 -14 45 -15 92 -7 101 18 5 12 11 22 13 22 3 0 2 -7 -1 -17 -4
-10 -2 -14 4 -10 6 4 13 -2 16 -12 3 -13 16 -20 41 -23 32 -3 37 -1 33 13 -3
12 0 16 10 12 8 -3 19 0 24 8 7 11 12 12 27 2 13 -8 23 -8 30 -1 7 7 17 6 32
-2 18 -10 21 -9 15 0 -6 10 -1 11 19 6 14 -3 46 -9 71 -13 39 -5 48 -11 67
-44 13 -23 26 -35 34 -32 8 3 14 0 14 -6 0 -6 7 -8 15 -5 11 5 13 2 9 -10 -4
-11 0 -16 13 -16 11 0 29 -9 41 -20 12 -11 25 -20 30 -20 4 0 8 -22 8 -50 1
-27 -1 -50 -3 -50 -2 0 -17 7 -33 15 -27 14 -30 14 -30 0 0 -8 -5 -15 -11 -15
-8 0 -8 -5 1 -15 10 -12 9 -15 -6 -16 -82 -4 -78 -2 -80 -38 -1 -20 6 -45 17
-60 28 -39 15 -83 -21 -74 -26 7 -41 -44 -18 -61 18 -13 37 -74 30 -94 -2 -7
2 -11 9 -10 8 2 15 -7 17 -20 3 -18 -2 -23 -27 -28 -34 -7 -42 -24 -11 -24 11
0 18 -6 16 -12 -1 -7 -1 -11 1 -8 2 3 35 5 75 4 58 -1 72 -5 74 -18 1 -9 -2
-18 -7 -22 -5 -3 -9 0 -9 7 0 19 -29 -24 -30 -43 0 -14 -6 -16 -30 -11 -21 4
-36 0 -49 -11 -10 -9 -21 -13 -26 -9 -4 5 -5 0 -2 -10 4 -10 7 -25 7 -32 0 -8
9 -17 21 -20 19 -6 19 -8 5 -24 -17 -19 -12 -80 7 -92 5 -4 9 -18 10 -33 0
-15 5 -26 13 -26 20 0 17 -23 -7 -64 -12 -21 -29 -36 -39 -36 -10 0 -22 -9
-25 -20 -4 -11 -11 -18 -16 -15 -5 3 -6 -1 -3 -9 3 -9 10 -16 14 -16 5 0 14
-16 20 -36 13 -37 42 -74 60 -74 6 0 10 -6 10 -14 0 -7 7 -19 15 -26 8 -7 12
-16 9 -21 -3 -5 0 -9 5 -9 6 0 11 -7 11 -17 0 -9 3 -13 7 -10 9 9 43 -22 43
-40 0 -7 5 -13 11 -13 6 0 8 -9 4 -20 -3 -11 3 -39 14 -65 24 -54 19 -75 -18
-75 -20 0 -32 -10 -56 -48 -30 -48 -55 -108 -49 -115 6 -6 -74 -67 -88 -67 -7
0 -18 -8 -25 -18 -11 -18 -37 -22 -58 -10 -6 3 -23 8 -40 12 -16 4 -35 16 -43
27 -21 30 -59 42 -132 44 -36 0 -72 5 -80 10 -31 20 -87 35 -130 35 -46 0 -95
19 -55 21 11 0 41 2 68 3 29 1 54 9 64 19 16 16 16 17 -9 17 -25 0 -85 39 -60
40 6 0 12 4 12 8 0 5 -13 7 -30 4 -16 -2 -27 -8 -24 -13 5 -9 -2 -11 -51 -13
-29 -2 -30 -3 -27 -44 4 -42 4 -43 -25 -36 -15 4 -39 13 -53 20 -25 13 -25 13
-2 14 23 0 29 14 11 26 -8 5 -7 10 4 16 35 19 -22 57 -75 49 -11 -1 -18 4 -18
13 0 25 -22 66 -36 66 -6 0 -14 -7 -18 -15 -3 -8 -12 -15 -21 -15 -8 0 -15 -9
-15 -20 0 -11 6 -20 14 -20 8 0 16 -7 20 -15 3 -8 12 -15 19 -15 8 0 20 -6 26
-14 9 -10 6 -17 -13 -30 -42 -27 -57 -21 -51 20 4 35 3 36 -14 20 -9 -9 -24
-16 -31 -16 -7 0 -10 -3 -7 -7 12 -12 -28 -31 -58 -28 -61 7 -70 12 -72 36 -1
13 -6 40 -10 59 -9 34 -10 34 -21 13 -8 -15 -20 -22 -35 -20 -16 1 -22 -3 -20
-16 1 -14 -3 -16 -15 -11 -48 21 -207 -3 -246 -38 -6 -4 -17 -8 -25 -8 -9 0 3
12 27 26 36 22 41 28 32 44 -6 11 -23 22 -38 25 -15 4 -53 19 -85 36 -32 16
-67 29 -78 29 -11 0 -30 7 -44 16 -16 11 -29 13 -42 6 -24 -12 -44 -5 -69 25
-24 29 -46 23 -43 -10 2 -38 0 -45 -18 -49 -19 -4 -74 44 -86 74 -4 11 -16 17
-34 16 -15 -1 -32 0 -38 1 -26 8 -55 0 -55 -15 0 -14 7 -16 45 -11 47 7 75 1
75 -15 0 -11 -321 -3 -445 11 -44 5 -127 15 -185 21 -115 13 -252 33 -375 55
-44 8 -109 19 -145 25 -36 5 -119 21 -185 35 -66 15 -141 30 -167 35 -25 5
-60 16 -76 24 -17 9 -37 14 -44 11 -7 -3 -56 6 -108 20 -52 14 -105 27 -117
29 -45 7 -134 49 -125 58 11 11 112 19 112 9 0 -3 59 -7 130 -8 72 -1 130 2
130 6 0 20 -51 38 -122 44 -95 7 -118 18 -118 57 0 35 -8 37 -52 10 -18 -11
-41 -20 -50 -20 -20 0 -59 30 -53 40 2 3 -7 19 -21 35 -35 41 -31 70 16 116
52 52 53 74 3 64 -62 -11 -89 -57 -67 -112 15 -38 15 -42 -10 -101 -14 -34
-26 -67 -26 -73 0 -34 -71 -51 -106 -24 -10 8 -36 15 -56 15 -20 0 -44 7 -52
16 -9 8 -16 11 -16 6 0 -5 3 -12 7 -16 4 -3 8 -17 10 -29 2 -12 13 -30 24 -39
12 -10 18 -18 13 -18 -4 0 -16 8 -27 18 -18 16 -19 16 -16 -8 3 -17 0 -24 -9
-22 -7 1 -22 -4 -33 -12 -28 -19 -11 -23 87 -20 76 2 81 1 77 -17 -4 -15 0
-19 21 -19 15 0 25 -4 22 -9 -3 -5 -26 -6 -51 -4 -55 7 -96 -15 -88 -47 6 -21
25 -29 20 -7 -1 6 5 12 13 12 10 0 14 -9 13 -27 -2 -25 -1 -26 28 -16 17 6 33
7 37 3 11 -11 -29 -29 -78 -36 -25 -4 -85 -18 -133 -32 -48 -14 -96 -23 -105
-20 -34 13 -101 60 -95 67 3 3 -17 6 -45 6 -40 0 -52 3 -52 16 0 8 4 13 8 10
10 -6 32 51 37 94 3 18 -3 38 -15 52 -17 20 -19 21 -20 5 0 -18 -30 -57 -30
-40 0 4 -6 1 -13 -8 -7 -9 -21 -19 -33 -23 -11 -3 -29 -14 -40 -24 -47 -42
-53 -45 -68 -32 -8 6 -12 18 -9 27 13 33 -33 6 -50 -30 -11 -24 -24 -37 -37
-37 -11 0 -20 -7 -20 -15 0 -17 -16 -20 -25 -5 -5 8 -11 8 -20 0 -9 -8 -14 -7
-18 4 -6 15 -47 18 -47 4 0 -4 4 -8 9 -8 5 0 15 -15 21 -32 10 -26 14 -29 17
-15 5 18 6 18 24 1 17 -16 25 -16 67 -6 48 13 130 8 146 -8 10 -10 -18 -86
-31 -83 -4 0 -14 -5 -20 -12 -10 -11 -8 -13 10 -11 13 1 27 5 33 8 5 4 16 3
24 -2 10 -6 18 -2 28 11 25 35 74 15 51 -22 -6 -10 -9 -10 -9 -1 0 6 -10 12
-21 12 -18 0 -19 -3 -9 -15 6 -8 9 -18 6 -23 -3 -5 4 -22 16 -38 13 -15 17
-25 11 -21 -11 7 -19 0 -50 -37 -6 -7 -9 -23 -6 -35 6 -23 -6 -28 -24 -10 -9
9 -10 6 -6 -10 5 -20 3 -21 -22 -15 -21 5 -26 4 -20 -6 6 -9 3 -10 -15 0 -12
6 -30 10 -40 7 -11 -3 -21 1 -24 10 -3 8 -11 11 -17 7 -8 -5 -8 -9 1 -14 9 -6
7 -11 -8 -19 -34 -18 -55 -14 -49 9 3 13 0 20 -8 20 -7 0 -20 3 -29 6 -12 5
-16 0 -16 -16 0 -22 -1 -22 -18 -7 -23 21 -32 21 -32 1 0 -8 4 -13 9 -10 5 3
12 -1 15 -10 3 -8 10 -12 16 -9 5 3 10 2 10 -2 0 -5 9 -9 21 -10 25 -2 49 -21
49 -39 0 -16 57 -42 112 -50 25 -4 38 -3 38 5 0 6 7 11 15 11 8 0 15 9 15 20
0 13 5 17 14 14 8 -3 19 4 26 16 6 12 14 19 17 16 4 -3 11 -2 17 3 6 5 28 14
48 20 20 7 39 20 41 29 3 12 5 11 6 -5 1 -25 21 -32 21 -8 0 9 11 19 23 24 31
12 29 48 -3 64 -26 13 -38 37 -19 37 7 0 21 -8 31 -17 16 -14 21 -15 28 -4 6
11 14 8 36 -13 16 -15 41 -34 55 -41 31 -17 46 -45 23 -45 -10 0 -13 -7 -8
-24 7 -31 -22 -48 -74 -44 -31 2 -39 -1 -50 -22 -9 -16 -10 -26 -3 -28 23 -8
10 -24 -15 -19 -20 3 -28 -1 -36 -19 -12 -25 -20 -29 -32 -17 -12 12 -46 10
-46 -4 0 -7 -5 -13 -12 -13 -6 0 -19 -7 -29 -16 -16 -14 -18 -14 -24 5 -6 21
-25 29 -25 12 0 -5 -17 -3 -37 5 -49 17 -103 17 -125 0 -22 -16 -23 -26 -4
-26 8 0 16 -7 20 -15 8 -22 -41 -8 -77 22 -16 12 -37 23 -48 23 -10 0 -26 11
-34 24 -18 27 -39 35 -108 42 -34 3 -47 1 -42 -6 4 -6 0 -22 -9 -35 -9 -13
-16 -32 -16 -41 0 -12 -6 -15 -24 -10 -15 4 -26 1 -28 -6 -3 -9 -12 -9 -36 1
-29 12 -35 12 -53 -5 -13 -11 -18 -26 -15 -39 5 -20 5 -20 -9 -1 -14 18 -15
18 -15 2 0 -14 -18 -54 -38 -86 -2 -2 -7 2 -12 10 -8 13 -10 13 -10 -2 0 -11
-6 -15 -20 -11 -14 4 -23 -2 -31 -20 -10 -21 -23 -28 -68 -37 -31 -5 -69 -14
-85 -20 -16 -5 -33 -7 -37 -4 -5 3 -9 1 -9 -5 0 -5 5 -13 10 -16 6 -4 7 -12 3
-18 -4 -7 -6 -19 -5 -29 2 -9 -2 -19 -8 -23 -5 -3 -10 1 -10 9 0 9 -4 16 -9
16 -13 0 -32 -26 -24 -33 3 -4 0 -13 -7 -22 -7 -9 -10 -19 -6 -22 4 -4 11 -1
16 7 9 14 11 12 14 -20 1 -16 47 -16 78 1 9 5 28 9 42 9 18 0 26 5 26 18 0 18
38 57 47 48 3 -2 -5 -15 -16 -28 -20 -21 -20 -23 -4 -29 10 -3 21 -1 26 5 5 8
10 6 17 -4 6 -10 10 -11 10 -3 0 7 7 10 15 7 9 -4 13 -13 10 -24 -3 -9 1 -22
8 -29 18 -14 10 -61 -10 -61 -11 0 -14 7 -11 25 3 14 1 25 -3 25 -5 0 -9 -13
-9 -30 0 -23 -4 -30 -20 -30 -11 0 -21 6 -21 13 -1 6 -4 -1 -8 -18 -5 -21 -12
-30 -25 -28 -12 1 -23 -11 -32 -33 -12 -29 -19 -34 -49 -34 -18 0 -37 -4 -40
-10 -3 -5 -16 -10 -28 -9 -21 0 -21 1 -2 10 17 8 17 9 -5 4 -14 -2 -28 -5 -32
-5 -5 0 -8 -7 -8 -16 0 -8 4 -13 8 -10 5 3 22 2 38 -3 l29 -8 -39 -11 c-28 -8
-43 -8 -52 -1 -10 8 -19 5 -35 -10 -21 -20 -22 -21 -3 -21 18 -1 18 -1 1 -14
-9 -7 -17 -19 -17 -27 0 -8 -14 -22 -30 -31 -25 -14 -30 -15 -30 -3 0 9 9 15
21 15 17 0 18 2 7 14 -22 21 -53 27 -82 17 -17 -7 -26 -7 -26 -1 0 6 -10 0
-21 -11 -12 -12 -17 -24 -12 -28 6 -3 13 -16 17 -28 4 -14 15 -23 27 -23 10 0
19 -3 19 -7 0 -5 21 -8 47 -8 25 0 48 -5 50 -11 2 -7 -5 -10 -19 -7 -14 3 -37
-5 -59 -20 -31 -21 -89 -41 -89 -30 0 2 11 8 25 13 27 10 30 17 15 40 -7 11
-12 12 -21 3 -8 -8 -19 -8 -44 3 -29 12 -34 12 -39 -3 -5 -12 -9 -14 -18 -5
-7 7 -19 12 -27 12 -8 0 -12 -2 -9 -5 2 -3 -15 -25 -39 -50 -24 -25 -43 -54
-43 -65 0 -13 -7 -20 -20 -20 -13 0 -20 7 -20 20 0 13 -7 20 -18 20 -11 0 -27
9 -37 20 -10 11 -26 20 -37 20 -15 0 -17 5 -12 25 7 30 -10 33 -39 7 -19 -16
-20 -16 -14 1 4 9 3 17 -1 17 -4 0 -21 13 -38 30 -37 34 -88 52 -78 27 3 -8 1
-18 -5 -22 -6 -3 -11 1 -11 9 0 9 -3 16 -7 16 -14 -1 -38 -24 -39 -37 -3 -32
-4 -34 -25 -23 -12 7 -18 17 -15 27 5 12 0 13 -27 7 -17 -4 -81 -8 -141 -9
l-108 -2 -33 34 c-29 30 -65 47 -50 23 3 -5 1 -10 -4 -10 -6 0 -11 5 -11 12 0
9 -3 9 -12 0 -9 -9 -9 -15 0 -24 15 -15 16 -38 1 -38 -6 0 -16 13 -22 29 -8
23 -21 33 -54 43 -33 10 -43 17 -43 34 0 12 7 27 15 34 8 7 12 16 9 21 -3 5 0
9 5 9 6 0 11 4 11 9 0 11 -83 -29 -93 -46 -4 -7 -15 -13 -23 -13 -8 0 -17 -7
-20 -15 -4 -8 -11 -15 -18 -15 -15 0 -19 -47 -5 -55 5 -4 7 -15 4 -25 -4 -12
2 -23 15 -33 12 -8 21 -23 20 -34 -1 -10 -2 -25 -1 -33 1 -13 2 -13 11 0 8 12
13 11 33 -8 23 -21 25 -22 29 -5 4 15 14 18 61 17 71 -2 115 -31 98 -63 -6
-11 -10 -24 -9 -28 1 -4 -2 -18 -6 -31 -6 -18 -11 -21 -21 -12 -17 14 -55 4
-55 -16 0 -18 -38 -13 -52 7 -8 11 -9 11 -5 -3 3 -9 -1 -22 -9 -28 -11 -10
-14 -10 -14 -1 0 17 -57 -18 -76 -47 -22 -33 -44 -11 -22 23 9 15 -68 6 -100
-11 -25 -13 -28 -12 -44 19 -9 17 -17 26 -18 19 0 -14 -40 -32 -54 -24 -5 3 0
13 12 23 26 20 28 35 7 56 -17 16 -34 17 -101 7 -31 -4 -45 -2 -57 11 -10 9
-27 15 -40 14 -12 -2 -28 0 -34 4 -10 7 -13 -105 -13 -547 l0 -556 6000 0
6000 0 0 1471 0 1471 -27 -6 c-16 -3 -52 -9 -80 -12 -55 -7 -69 -19 -30 -27
21 -4 20 -4 -3 -5 -32 -2 -73 33 -90 76 -7 17 -19 32 -27 32 -11 0 -14 9 -11
34 3 25 -1 37 -14 45 -10 6 -18 18 -18 25 0 8 -8 16 -17 19 -12 2 12 18 62 41
177 83 201 98 241 149 9 10 12 124 13 388 2 397 1 409 -45 444 -11 8 -14 15
-8 15 6 0 17 -7 24 -15 7 -8 16 -15 21 -15 14 0 11 124 -3 139 -10 11 -10 14
0 18 9 4 12 413 12 1999 l0 1994 -1520 0 c-1007 0 -1520 -3 -1520 -10 0 -5
-12 -10 -26 -10 -14 0 -23 -4 -19 -10 4 -6 -11 -10 -39 -10 -38 0 -48 -4 -62
-25 -9 -14 -25 -25 -35 -25 -12 0 -19 -7 -19 -20 0 -11 -7 -20 -15 -20 -21 0
-19 -27 3 -34 9 -3 24 -23 33 -45 15 -36 62 -71 94 -71 6 0 27 -16 46 -36 18
-20 49 -43 67 -50 17 -8 32 -19 32 -24 0 -5 13 -16 30 -25 17 -9 33 -27 36
-41 6 -25 8 -23 31 26 35 75 124 161 196 188 168 63 353 -8 432 -165 27 -53
30 -67 30 -158 0 -81 -4 -109 -21 -146 -60 -129 -212 -219 -345 -205 -33 3
-75 13 -94 21 -117 50 -110 48 -96 31 7 -8 16 -15 19 -14 14 3 42 -15 42 -26
0 -7 18 -23 40 -36 l39 -25 1 -87 c0 -81 2 -88 20 -88 19 0 20 -7 20 -109 0
-102 -2 -112 -24 -135 -13 -15 -28 -26 -35 -26 -6 0 -11 -6 -11 -14 0 -8 -16
-16 -40 -20 -26 -4 -40 -11 -40 -21 0 -9 -10 -15 -25 -15 -18 0 -25 -5 -25
-20 0 -13 -7 -20 -20 -20 -13 0 -20 -7 -20 -20 0 -15 -7 -20 -25 -20 -18 0
-25 -5 -25 -19 0 -16 -14 -23 -76 -37 -48 -12 -69 -20 -58 -24 17 -6 17 -7 0
-13 -10 -4 -26 -7 -37 -7 -10 0 -19 -6 -19 -14 0 -8 -16 -16 -40 -20 -25 -4
-40 -12 -40 -21 0 -8 -17 -19 -42 -26 -24 -6 -45 -15 -48 -19 -3 -4 -36 -17
-74 -29 -94 -29 -284 -31 -309 -3 -10 10 -17 23 -17 29 0 6 -7 13 -15 17 -9 3
-15 18 -15 36 0 16 -4 30 -10 30 -5 0 -10 9 -10 20 0 11 -4 20 -9 20 -5 0 -11
9 -14 20 -4 17 -14 20 -61 20 -31 0 -56 4 -56 8 0 5 -22 15 -50 22 -45 12 -50
16 -50 42 0 21 -5 28 -19 28 -11 0 -42 5 -70 12 -38 9 -51 16 -51 30 0 10 -5
18 -11 18 -6 0 -9 9 -6 20 4 16 0 20 -19 20 -20 0 -24 -5 -24 -30 0 -16 -4
-30 -10 -30 -5 0 -10 5 -10 10 0 6 -8 10 -19 10 -12 0 -20 -9 -24 -29 -7 -34
-53 -91 -74 -91 -13 0 -15 10 -11 51 3 28 10 54 15 58 9 5 19 44 25 89 1 6 5
12 8 12 4 0 13 15 20 33 23 61 40 92 41 77 0 -8 10 19 20 60 24 88 51 302 40
313 -19 20 -65 -44 -137 -191 -43 -86 -80 -159 -84 -162 -3 -3 -32 -44 -64
-92 -32 -49 -62 -88 -67 -88 -5 0 -9 -8 -9 -18 0 -25 -28 -48 -68 -55 -29 -6
-37 -2 -65 30 -40 46 -53 72 -71 152 -9 43 -11 74 -5 95 5 17 9 50 9 72 0 29
5 44 16 48 9 4 14 13 10 21 -3 8 -2 15 3 15 13 0 31 48 25 65 -4 8 -2 15 3 15
13 0 46 78 53 128 9 54 -8 72 -45 48 -14 -10 -76 -69 -137 -132 -79 -81 -127
-122 -163 -140 -63 -29 -61 -29 -69 -1 -3 13 -19 37 -35 54 -33 35 -50 69 -79
165 -29 90 -32 276 -7 343 10 25 22 45 27 45 5 0 7 4 4 9 -3 4 8 20 24 35 17
14 30 31 30 37 0 44 250 209 317 209 12 0 25 5 28 10 3 6 15 10 26 10 10 0 19
5 19 10 0 6 11 10 24 10 14 0 28 5 32 12 5 8 58 9 198 4 219 -7 349 9 389 48
12 11 33 29 47 38 24 16 -26 17 -897 17 -507 1 -928 -2 -937 -5 -20 -8 -21
-34 -1 -34 9 0 15 -9 15 -23 0 -13 22 -45 55 -80 30 -32 57 -67 60 -78 4 -10
11 -19 16 -19 5 0 9 -6 9 -12 0 -7 14 -26 30 -42 17 -16 30 -36 30 -43 0 -12
40 -56 58 -65 12 -5 48 -62 71 -108 35 -72 19 -190 -25 -190 -9 0 -25 -11 -36
-25 -11 -14 -28 -25 -38 -25 -10 0 -25 -7 -34 -15 -11 -11 -37 -15 -108 -14
-51 0 -87 3 -80 6 22 9 13 21 -22 27 -42 8 -137 107 -184 192 -28 51 -42 65
-88 87 -68 34 -124 36 -124 7 0 -11 -7 -23 -15 -26 -8 -4 -15 -11 -15 -18 0
-7 -27 -18 -60 -25 -63 -14 -104 -48 -93 -77 3 -8 0 -14 -7 -14 -7 0 -10 -7
-7 -15 4 -8 2 -17 -3 -20 -6 -4 -10 -16 -10 -28 0 -13 -6 -31 -14 -42 -8 -11
-19 -39 -26 -63 -7 -23 -17 -42 -22 -42 -4 0 -8 -12 -9 -27 0 -24 -2 -25 -8
-8 -7 18 -8 18 -18 1 -17 -31 -123 -16 -298 42 -82 27 -163 52 -180 56 -54 13
-194 89 -200 108 -4 10 -11 18 -16 18 -7 0 -9 29 -5 78 8 119 17 182 26 177 4
-2 12 7 18 20 11 23 10 25 -16 25 -15 0 -33 4 -41 9 -16 10 -41 4 -41 -10 0
-5 8 -9 18 -10 20 -1 -31 -18 -68 -23 -15 -1 -37 -10 -51 -19 -14 -9 -59 -21
-101 -27 -42 -6 -89 -15 -105 -19 -16 -5 -43 -7 -59 -4 -16 2 -76 8 -134 12
-58 5 -121 13 -140 19 -54 15 -129 61 -148 91 -9 14 -19 28 -22 31 -8 7 -60
149 -58 158 1 4 -5 35 -12 70 l-14 62 -1007 0 -1008 0 -3 -22 c-4 -29 -65 -44
-132 -34 -40 6 -46 10 -46 32 0 22 -4 24 -51 24 -46 0 -55 -4 -83 -35 -21 -23
-43 -36 -68 -41 -34 -5 -38 -4 -44 20 -7 27 -38 38 -104 36 -105 -4 -276 3
-285 11 -5 5 -225 9 -527 9 l-518 0 0 -111z m703 92 c21 -5 41 -12 44 -15 6
-6 -16 -43 -45 -77 -25 -30 -84 -25 -123 9 l-31 28 27 32 c29 35 56 39 128 23z
m1447 -171 c0 -5 -2 -10 -4 -10 -3 0 -8 5 -11 10 -3 6 -1 10 4 10 6 0 11 -4
11 -10z m7890 -245 c0 -52 1 -98 3 -102 1 -5 -25 -9 -58 -10 -42 -1 -65 3 -77
14 -22 20 -23 71 -2 102 14 19 22 22 51 16 34 -6 35 -6 33 27 -3 47 -3 48 25
48 25 0 25 0 25 -95z m-6510 24 c0 -6 -4 -7 -10 -4 -5 3 -10 11 -10 16 0 6 5
7 10 4 6 -3 10 -11 10 -16z m84 -4 c11 -8 32 -15 46 -15 14 0 40 -11 58 -23
17 -13 50 -32 73 -43 40 -17 41 -19 18 -25 -24 -6 -143 -2 -166 6 -7 2 -13 13
-13 23 0 12 -15 24 -45 36 -44 19 -58 39 -32 49 22 9 42 7 61 -8z m6567 -13
c28 -24 20 -50 -21 -65 -40 -15 -38 -29 3 -25 23 2 32 -1 32 -12 0 -23 -82
-26 -106 -4 -29 26 -25 78 7 103 33 26 55 26 85 3z m559 -20 c0 -5 16 -16 35
-25 37 -18 78 -73 70 -94 -6 -16 84 -44 106 -32 44 22 99 -23 99 -83 0 -66
-53 -113 -99 -88 -20 10 -21 8 -21 -40 l0 -50 -40 0 -40 0 0 83 c0 45 -6 100
-13 122 l-12 40 -3 -77 c-3 -77 -3 -78 -30 -79 -15 0 -48 -2 -75 -5 -63 -6
-85 7 -93 56 -9 54 -24 51 -24 -6 l0 -45 -42 3 c-43 3 -43 3 -40 40 3 41 -13
82 -29 73 -5 -4 -9 -31 -9 -61 l0 -54 -40 0 -40 0 0 130 0 130 40 0 40 0 0
-45 c0 -25 4 -45 8 -45 11 0 49 29 39 30 -4 0 4 12 18 27 14 15 25 31 25 35 0
4 16 12 35 19 19 7 35 19 35 25 0 7 10 15 23 17 40 8 77 7 77 -1z m610 -128
c0 -19 5 -24 25 -24 20 0 25 -5 25 -25 0 -20 -5 -25 -25 -25 -22 0 -25 -4 -25
-34 0 -28 4 -35 23 -38 14 -2 23 -11 25 -25 2 -16 -3 -23 -26 -27 -29 -7 -75
5 -86 23 -4 5 -25 1 -55 -11 -44 -19 -52 -20 -92 -7 -52 16 -74 53 -65 103 9
48 38 69 91 69 52 0 75 -16 75 -53 0 -33 -13 -45 -60 -55 -33 -7 -34 -8 -13
-18 30 -13 76 7 94 40 11 21 11 27 2 30 -22 8 -14 26 29 70 44 45 58 47 58 7z
m-7199 -51 c46 -23 107 -49 135 -58 28 -10 57 -23 66 -29 18 -13 36 -62 19
-52 -6 4 -11 2 -11 -3 0 -6 -18 -11 -40 -11 -22 0 -40 4 -40 8 0 20 -92 52
-148 52 -58 0 -58 0 -116 60 -31 33 -54 65 -50 71 13 21 101 3 185 -38z m6219
15 c0 -5 0 -14 0 -22 0 -9 -12 -16 -32 -18 -29 -3 -33 -6 -33 -33 0 -27 3 -30
33 -30 34 0 54 -27 34 -47 -17 -17 -100 -13 -122 7 -48 44 -29 137 33 153 34
9 88 2 87 -10z m1169 11 c34 -12 51 -51 34 -77 -5 -9 -27 -21 -49 -27 -36 -10
-37 -12 -16 -19 40 -13 69 2 114 62 41 54 47 57 91 60 45 3 47 2 47 -23 0 -24
-3 -26 -29 -20 -25 5 -34 0 -80 -54 -60 -69 -106 -89 -167 -72 -46 13 -63 36
-64 86 0 50 21 82 58 88 15 2 27 5 28 6 1 0 15 -4 33 -10z m-1534 -13 c41 -17
53 -52 35 -97 -20 -47 6 -61 98 -55 l72 4 0 -28 c0 -32 -18 -40 -93 -40 -57 0
-103 18 -136 54 -33 35 -41 33 -41 -10 0 -34 -1 -35 -32 -32 l-33 3 -3 94 c-1
52 -1 100 2 108 7 18 87 17 131 -1z m180 -6 c22 -25 14 -47 -25 -64 -36 -15
-29 -27 11 -19 22 4 29 2 29 -10 0 -32 -80 -37 -110 -7 -43 43 -11 120 48 120
16 0 37 -9 47 -20z m-5574 -412 c21 -18 54 -46 74 -61 31 -26 35 -34 35 -74 0
-32 -6 -50 -17 -60 -10 -8 -13 -12 -6 -9 6 4 14 2 18 -4 8 -13 -12 -12 -50 3
-46 18 -69 38 -98 84 -14 23 -35 47 -45 55 -24 16 -42 50 -42 77 0 18 6 21 46
21 38 0 54 -6 85 -32z m219 -308 c22 -11 50 -20 64 -20 14 0 28 -4 31 -10 3
-5 15 -10 25 -10 23 0 94 -73 116 -118 22 -46 6 -63 -50 -56 -30 5 -52 1 -77
-11 -61 -32 -189 -13 -189 28 0 7 -18 30 -40 51 -22 21 -40 42 -40 46 0 24 21
59 39 65 12 3 21 13 21 20 0 15 27 34 48 35 7 0 30 -9 52 -20z m1550 -115 c23
-12 30 -22 30 -46 0 -20 -4 -28 -12 -23 -8 5 -9 -2 -5 -24 6 -27 4 -32 -13
-32 -10 0 -22 5 -25 10 -13 22 -85 8 -85 -16 0 -8 -7 -14 -15 -14 -8 0 -15 -4
-15 -10 0 -5 -7 -10 -15 -10 -8 0 -15 -4 -15 -10 0 -5 -3 -9 -7 -9 -5 1 -34 1
-65 0 -51 -1 -58 -3 -58 -21 0 -13 -7 -20 -20 -20 -13 0 -20 7 -20 20 0 11 -4
20 -10 20 -5 0 -10 9 -10 20 0 11 -4 20 -10 20 -5 0 -10 -9 -10 -20 0 -13 -7
-20 -20 -20 -13 0 -20 7 -20 20 0 12 -7 20 -16 20 -14 0 -14 2 -3 16 22 27
101 56 133 50 33 -7 106 10 106 24 0 6 13 10 28 10 20 0 35 9 50 30 26 35 73
40 122 15z m-173 -217 c-3 -8 -6 -5 -6 6 -1 11 2 17 5 13 3 -3 4 -12 1 -19z
m346 15 c-18 -7 -16 -23 2 -23 8 0 24 -9 35 -20 22 -22 56 -26 63 -7 4 9 7 9
14 0 5 -7 27 -15 49 -17 57 -5 104 -17 110 -27 3 -5 16 -9 29 -9 18 0 23 -5
20 -20 -2 -12 2 -20 9 -20 23 0 80 -33 99 -57 10 -13 26 -23 35 -23 19 0 96
-59 88 -67 -2 -3 -17 3 -33 13 -15 10 -25 14 -21 10 15 -18 -22 -36 -75 -36
l-53 0 -10 38 -9 37 -70 3 c-82 4 -115 -3 -115 -23 0 -19 -3 -19 -50 5 -22 11
-47 20 -57 20 -15 0 -16 2 -3 10 11 7 4 10 -27 10 -24 0 -43 3 -43 8 0 10 -74
32 -110 32 -43 0 -150 58 -150 82 0 15 8 18 50 18 39 0 50 4 50 16 0 11 -6 14
-21 9 -15 -5 -19 -4 -15 4 5 7 42 11 97 11 84 0 121 14 62 23 -17 2 -11 4 17
5 25 0 39 -2 33 -5z m-678 -13 c4 -6 -10 -10 -34 -10 -23 0 -41 5 -41 10 0 6
15 10 34 10 19 0 38 -4 41 -10z m345 -40 c0 -5 -4 -10 -10 -10 -5 0 -10 5 -10
10 0 6 5 10 10 10 6 0 10 -4 10 -10z m-682 -113 c26 -39 27 -44 7 -44 -8 0
-11 5 -8 10 4 6 0 8 -9 4 -10 -3 -26 5 -42 22 -33 34 -33 41 2 41 19 0 33 -9
50 -33z m2900 -91 c19 -17 44 -39 55 -48 11 -10 32 -18 46 -18 42 0 58 -25 38
-57 -5 -8 12 -31 49 -65 62 -58 96 -114 88 -145 -7 -25 25 -72 94 -140 50 -50
63 -75 42 -88 -5 -3 -10 -17 -10 -31 0 -38 -36 -31 -61 11 -11 19 -36 44 -55
55 -19 12 -34 26 -34 31 0 5 -6 8 -12 7 -8 -2 -15 16 -20 47 -4 28 -10 69 -14
91 -4 31 -12 44 -30 53 -33 15 -34 14 -34 -8 0 -11 6 -22 13 -24 6 -3 -3 -6
-21 -6 -18 -1 -42 4 -53 9 -21 12 -26 40 -6 40 7 0 18 5 25 12 22 22 -48 58
-112 58 -43 0 -61 5 -82 24 -26 22 -27 25 -14 55 11 27 10 37 -3 69 -17 38
-20 55 -18 83 1 18 83 41 90 25 2 -5 19 -23 39 -40z m-250 -170 c7 -8 -9 -26
-22 -26 -7 0 -21 10 -32 22 l-19 21 34 -7 c19 -3 36 -8 39 -10z m52 -6 c0 -5
-9 -10 -21 -10 -11 0 -17 5 -14 10 3 6 13 10 21 10 8 0 14 -4 14 -10z m2520
-171 c0 -15 7 -19 34 -19 25 0 36 -5 40 -18 4 -10 22 -25 41 -32 27 -11 43
-28 71 -78 19 -35 41 -71 49 -79 8 -8 15 -17 15 -21 0 -4 21 -16 48 -26 67
-28 134 -95 166 -166 15 -33 33 -60 39 -60 7 0 24 -26 37 -57 19 -45 25 -75
25 -130 0 -59 3 -73 15 -73 8 0 21 -9 27 -19 7 -11 47 -43 89 -70 71 -47 75
-51 45 -51 -17 0 -31 -4 -31 -9 0 -23 -67 -33 -225 -35 -145 -1 -165 -3 -165
-17 0 -9 -7 -22 -16 -30 -8 -7 -13 -21 -11 -30 6 -21 -10 -28 -61 -30 -24 -1
-29 -3 -14 -6 17 -3 22 -11 22 -35 0 -29 -1 -30 -40 -23 -33 6 -40 4 -40 -9 0
-10 -9 -16 -22 -16 -19 0 -20 2 -8 10 11 7 7 10 -17 10 -23 0 -33 5 -33 15 0
8 6 15 13 16 10 0 10 2 0 6 -18 7 -16 23 2 23 8 0 15 -6 16 -12 0 -7 5 2 10
20 5 17 15 32 21 32 14 0 37 31 38 50 0 8 17 25 38 38 20 13 29 21 20 18 -12
-3 -18 0 -18 9 0 8 -4 15 -10 15 -5 0 -10 7 -10 15 0 8 -4 15 -10 15 -5 0 -10
7 -10 15 0 8 -4 15 -10 15 -5 0 -10 11 -10 25 0 14 -6 28 -14 31 -8 3 -17 13
-20 22 -3 9 -16 35 -30 57 -14 22 -42 75 -63 117 -26 53 -44 78 -55 78 -10 0
-17 3 -17 8 6 35 -3 72 -17 72 -13 0 -15 7 -9 38 8 45 13 51 26 32 8 -11 12
-12 16 -2 3 7 26 12 63 12 57 0 58 0 64 32 5 24 2 36 -9 44 -9 7 -15 27 -15
48 0 32 -3 36 -26 36 -25 0 -25 2 -19 40 6 36 5 40 -14 40 -14 0 -21 6 -21 20
0 15 -7 20 -25 20 -22 0 -25 4 -25 39 0 29 4 41 18 44 24 5 32 -1 32 -24z
m-2166 -129 c28 -32 27 -50 -3 -50 -17 0 -71 55 -71 72 0 20 49 5 74 -22z
m-4092 -96 c4 -3 2 -17 -4 -32 -6 -15 -10 -39 -9 -54 2 -33 -14 -37 -22 -7 -4
16 -11 20 -26 16 -22 -5 -30 16 -11 28 6 3 10 17 10 29 0 19 5 24 28 24 15 0
30 -2 34 -4z m3633 -79 c1 -21 -49 -65 -73 -65 -32 0 -62 27 -62 54 0 19 6 21
68 21 38 0 67 -4 67 -10z m792 -57 c-2 -13 -4 -3 -4 22 0 25 2 35 4 23 2 -13
2 -33 0 -45z m-188 3 l24 -19 -21 -11 c-31 -17 -65 5 -49 31 14 22 16 22 46
-1z m-5157 -91 c-3 -35 -8 -50 -18 -50 -17 0 -19 52 -4 81 18 32 25 21 22 -31z
m6014 13 c17 -18 40 -19 378 -25 104 -2 140 0 143 10 3 7 21 12 44 12 32 0 39
-3 39 -20 0 -11 5 -20 11 -20 13 0 49 -38 49 -52 0 -4 -4 -8 -10 -8 -15 0 -12
-30 5 -47 9 -8 19 -28 22 -44 4 -21 14 -31 40 -40 47 -15 111 -79 119 -117 4
-18 10 -32 15 -32 5 0 9 -7 9 -15 0 -25 23 -65 38 -65 12 0 12 -3 2 -15 -6 -8
-15 -14 -18 -13 -4 1 -23 -6 -43 -15 -25 -11 -71 -16 -157 -18 -67 -1 -122 -6
-122 -10 0 -12 -70 -18 -272 -24 -125 -4 -188 -2 -188 5 0 5 5 10 10 10 6 0
10 18 10 40 0 27 -4 39 -12 38 -8 -2 -16 16 -22 50 -8 40 -14 52 -28 52 -10 0
-18 5 -18 10 0 6 -13 10 -30 10 -20 0 -30 5 -30 15 0 8 -7 15 -16 15 -9 0 -25
10 -35 22 -23 26 -25 6 -4 -36 8 -15 15 -44 15 -62 0 -19 5 -34 10 -34 16 0
12 -57 -5 -74 -8 -8 -15 -19 -15 -25 0 -6 -16 -11 -35 -11 -24 0 -35 5 -35 15
0 8 -4 15 -10 15 -5 0 -10 9 -10 20 0 11 -4 20 -10 20 -5 0 -10 9 -10 20 0 11
-6 20 -14 20 -7 0 -16 9 -19 20 -3 12 -14 20 -26 20 -14 0 -21 6 -21 20 0 13
-7 20 -18 20 -10 0 -24 9 -32 20 -19 27 -46 25 -55 -2 l-8 -23 -4 23 c-5 27
-23 29 -23 2 0 -20 -13 -21 -67 -5 -6 2 -13 -1 -16 -8 -2 -6 -3 27 -3 75 1 47
4 90 9 94 10 11 9 48 -3 60 -14 14 0 84 16 84 8 0 14 -10 14 -22 0 -19 2 -20
10 -8 6 10 10 11 10 3 0 -7 9 -13 20 -13 11 0 20 -4 20 -10 0 -5 7 -10 15 -10
8 0 15 -4 15 -10 0 -5 23 -10 50 -10 42 0 50 3 50 19 0 39 118 38 151 0 9 -11
19 -19 23 -19 12 0 6 38 -6 43 -7 3 2 6 20 6 30 1 32 3 32 36 0 39 10 44 36
18z m-679 -95 c-3 -7 -5 -2 -5 12 0 14 2 19 5 13 2 -7 2 -19 0 -25z m1643 12
c0 -11 -4 -20 -10 -20 -5 0 -10 9 -10 20 0 11 5 20 10 20 6 0 10 -9 10 -20z
m-2130 -5 c7 -8 8 -15 2 -15 -5 0 -15 7 -22 15 -7 8 -8 15 -2 15 5 0 15 -7 22
-15z m100 -28 c0 -30 27 -67 49 -67 10 0 28 -11 40 -24 13 -13 35 -27 49 -31
17 -4 22 -9 14 -14 -9 -5 -5 -12 13 -21 14 -7 25 -17 25 -22 0 -12 -5 -11 -67
27 -32 19 -66 35 -75 35 -10 0 -18 5 -18 10 0 6 -6 10 -14 10 -15 0 -66 72
-66 94 0 16 30 37 42 30 5 -3 8 -15 8 -27z m-5382 -11 c7 -4 2 -15 -14 -31
-25 -25 -126 -52 -132 -34 -2 5 -40 9 -85 9 l-82 1 39 14 c22 8 42 12 45 10 4
-2 15 3 26 11 10 8 15 14 11 14 -4 0 -4 5 -1 10 7 11 174 8 193 -4z m-348 -72
c0 -17 -6 -24 -20 -24 -11 0 -20 -6 -20 -13 0 -13 -36 -39 -59 -43 -8 -2 -17
-7 -20 -12 -3 -6 -34 -16 -69 -22 -34 -7 -61 -15 -59 -17 7 -6 -83 -93 -97
-93 -27 0 -96 97 -96 134 0 8 9 18 20 21 11 3 20 12 20 20 0 20 24 25 115 25
52 0 85 4 87 11 6 19 100 44 151 41 42 -4 47 -6 47 -28z m600 -49 c0 -2 -9 -3
-19 -2 -11 0 -18 5 -15 9 4 6 34 0 34 -7z m5038 -14 c-3 -25 7 -38 42 -55 22
-11 63 -43 90 -72 49 -51 49 -53 35 -81 -8 -15 -15 -36 -15 -45 0 -9 -5 -29
-11 -45 -7 -20 -12 -24 -19 -14 -4 8 -17 12 -29 8 -17 -4 -21 1 -27 32 -7 39
-29 71 -51 71 -7 0 -13 5 -13 11 0 6 -9 23 -19 37 -22 31 -23 42 -9 60 6 7 6
12 1 12 -34 0 -71 82 -41 92 16 6 67 -3 66 -11z m2247 -27 c6 -7 27 -14 46
-16 32 -3 34 -5 31 -38 -5 -55 23 -80 87 -80 48 0 51 -1 49 -25 -3 -28 -56
-55 -111 -55 -37 0 -84 40 -72 60 4 7 -2 14 -14 17 -12 3 -21 13 -21 24 0 11
-4 19 -10 19 -5 0 -10 9 -10 20 0 11 -4 20 -10 20 -14 0 -12 68 3 84 10 12 13
11 16 -2 2 -8 9 -21 16 -28z m-2740 -123 c-12 -11 -65 -9 -65 3 0 8 13 11 36
8 19 -2 32 -7 29 -11z m-6175 -42 c0 -19 -4 -28 -11 -24 -6 4 -25 4 -42 1 -23
-4 -36 -14 -45 -36 -11 -24 -20 -30 -44 -30 -25 0 -29 3 -23 18 4 9 10 27 12
40 4 17 13 22 39 23 50 2 54 3 62 15 7 10 28 21 45 23 4 1 7 -13 7 -30z m234
-5 c11 -29 6 -46 -31 -98 -20 -28 -37 -52 -37 -53 -1 -1 -13 1 -28 4 -34 7
-36 27 -8 103 11 30 20 56 20 57 0 2 18 3 39 3 26 0 41 -5 45 -16z m6076 -18
c0 -13 -7 -29 -15 -36 -8 -7 -15 -19 -15 -27 0 -8 -9 -22 -19 -31 -11 -10 -22
-35 -26 -58 l-6 -41 55 5 c53 4 56 3 66 -22 5 -14 17 -26 25 -26 9 0 13 -5 10
-10 -4 -6 -14 -9 -23 -6 -10 3 -69 8 -132 11 -121 6 -180 18 -180 39 0 6 -15
19 -34 27 -30 14 -33 14 -28 1 4 -13 -2 -14 -38 -8 -41 6 -42 6 -36 -16 3 -13
6 -33 6 -45 0 -18 6 -23 25 -23 14 0 25 -5 25 -10 0 -19 34 -47 64 -54 20 -5
26 -10 17 -15 -8 -6 -3 -12 18 -21 17 -7 31 -16 31 -21 0 -4 12 -19 26 -32
l26 -25 -46 -3 c-44 -4 -46 -3 -46 23 0 31 -14 38 -53 27 -16 -4 -34 -6 -42
-3 -7 3 -16 1 -20 -5 -3 -6 0 -11 7 -11 8 0 14 -9 15 -21 2 -22 -15 -23 -59
-4 -13 5 -18 2 -18 -10 0 -13 -6 -16 -24 -11 -21 5 -23 3 -19 -15 11 -42 -78
-5 -123 51 -10 12 -16 12 -37 1 -14 -8 -23 -19 -20 -27 5 -13 -1 -15 -67 -27
-14 -3 -34 -1 -45 3 -11 5 -14 9 -6 9 7 1 11 7 7 16 -3 10 3 17 19 21 27 7 34
24 11 24 -7 0 -19 7 -26 15 -10 12 -9 15 7 15 10 0 28 7 39 15 10 8 26 14 34
15 8 0 48 10 88 22 67 21 73 25 70 48 -3 28 -29 38 -49 17 -8 -7 -34 -18 -59
-23 -29 -6 -44 -15 -42 -23 2 -8 -3 -11 -12 -8 -8 3 -31 1 -51 -4 -20 -6 -39
-9 -41 -6 -5 5 64 77 75 77 4 0 17 11 29 25 23 27 42 31 58 15 14 -14 89 -18
89 -5 0 6 -3 9 -7 8 -4 -2 -14 10 -23 27 -14 27 -17 28 -46 18 -26 -9 -33 -7
-53 11 -26 24 -56 28 -56 6 0 -14 -10 -18 -27 -12 -5 1 -7 5 -5 10 1 4 -5 7
-13 7 -8 0 -15 5 -15 10 0 6 -10 10 -22 10 -17 0 -20 -3 -9 -9 8 -5 15 -22 16
-38 2 -29 2 -30 -29 -19 -17 6 -36 15 -43 19 -6 4 -17 5 -25 2 -20 -7 -45 12
-33 24 7 7 22 8 44 1 39 -11 51 -6 51 21 0 16 7 19 50 19 28 0 50 5 50 10 0 6
15 10 33 10 23 0 41 8 57 25 26 28 50 33 50 10 0 -14 -13 -20 -35 -15 -5 1 -7
-2 -2 -6 12 -12 51 -12 59 0 5 8 11 7 19 -1 10 -10 6 -14 -14 -22 -15 -6 -27
-15 -27 -20 0 -6 7 -8 15 -5 9 4 15 0 15 -10 0 -20 5 -20 33 -1 14 9 27 11 37
5 8 -5 42 -6 77 -3 52 5 64 3 69 -11 3 -9 10 -16 15 -16 4 0 6 7 3 15 -4 10 0
15 15 15 12 0 21 6 21 15 0 29 44 39 90 21 36 -14 44 -15 70 -1 32 17 70 65
70 89 0 9 8 16 20 16 14 0 20 -7 20 -24z m-7800 -57 c0 -5 -4 -9 -10 -9 -5 0
-10 7 -10 16 0 8 5 12 10 9 6 -3 10 -10 10 -16z m8360 -15 c0 -2 -9 -4 -20 -4
-11 0 -20 4 -20 9 0 5 9 7 20 4 11 -3 20 -7 20 -9z m-1410 -14 c0 -5 -2 -10
-4 -10 -3 0 -8 5 -11 10 -3 6 -1 10 4 10 6 0 11 -4 11 -10z m2176 -15 c14 -13
13 -15 -5 -15 -12 0 -21 6 -21 15 0 8 3 15 6 15 3 0 12 -7 20 -15z m-7879 -37
c-3 -7 -5 -2 -5 12 0 14 2 19 5 13 2 -7 2 -19 0 -25z m735 5 c23 -20 22 -32
-1 -60 -14 -17 -30 -23 -60 -23 -81 0 -144 54 -109 95 17 21 143 13 170 -12z
m6429 -56 c-8 -8 -11 -5 -11 9 0 27 14 41 18 19 2 -9 -1 -22 -7 -28z m-6151 9
c0 -19 -7 -23 -51 -31 -31 -6 -37 -4 -42 14 -3 15 1 21 17 24 48 10 76 7 76
-7z m5840 4 c0 -5 9 -10 20 -10 14 0 20 -7 20 -24 0 -40 11 -56 36 -56 24 0
30 -19 24 -75 -4 -38 -45 -48 -56 -13 -10 34 -29 49 -43 35 -8 -8 -18 -5 -39
16 -22 23 -27 35 -25 72 1 24 4 49 8 55 8 13 55 13 55 0z m2406 -35 c14 -13
14 -15 1 -15 -9 0 -21 -2 -29 -3 -7 -2 -10 -2 -5 0 4 3 7 11 7 19 0 18 8 18
26 -1z m-109 -66 c-3 -55 -8 -75 -25 -91 -20 -20 -21 -20 -39 -3 -13 13 -14
20 -5 23 19 6 14 22 -8 22 -11 0 -20 7 -20 15 0 8 -4 15 -10 15 -5 0 -10 7
-10 15 0 8 -4 15 -10 15 -5 0 -10 7 -10 15 0 10 10 15 30 15 17 0 30 4 30 9 0
9 24 17 63 20 15 1 17 -7 14 -70z m-195 -14 c4 -17 1 -25 -8 -25 -8 0 -14 11
-14 25 0 14 4 25 9 25 5 0 11 -11 13 -25z m-2573 -15 c6 0 11 -7 11 -15 0 -20
-13 -19 -51 4 -28 17 -29 20 -12 30 13 8 21 7 29 -4 6 -8 16 -15 23 -15z
m-742 -92 c-3 -8 -6 -5 -6 6 -1 11 2 17 5 13 3 -3 4 -12 1 -19z m127 -19 c-3
-5 -17 -9 -31 -9 -25 0 -26 0 -8 20 14 15 21 17 31 9 8 -6 11 -15 8 -20z
m1023 -121 c-3 -7 -5 -2 -5 12 0 14 2 19 5 13 2 -7 2 -19 0 -25z m-1577 12 c0
-5 -4 -10 -10 -10 -5 0 -10 5 -10 10 0 6 5 10 10 10 6 0 10 -4 10 -10z m114 1
c3 -5 -4 -11 -16 -14 -25 -7 -33 -3 -23 12 8 13 32 14 39 2z m1543 -6 c3 -9
-2 -22 -13 -29 -16 -12 -16 -18 -6 -40 10 -22 9 -26 -3 -26 -8 0 -15 -9 -15
-20 0 -15 -7 -20 -25 -20 -23 0 -25 4 -25 41 0 32 3 40 15 35 11 -4 15 1 15
19 0 24 23 55 41 55 5 0 12 -7 16 -15z m-277 -11 c0 -2 -7 -4 -15 -4 -8 0 -15
4 -15 10 0 5 7 7 15 4 8 -4 15 -8 15 -10z m-360 -8 c0 -10 7 -12 23 -8 22 5
22 5 4 -16 -11 -11 -25 -18 -33 -15 -16 6 -19 53 -4 53 6 0 10 -6 10 -14z
m-998 -8 c-9 -9 -15 -9 -24 0 -9 9 -7 12 12 12 19 0 21 -3 12 -12z m-104 -20
c9 -9 15 -9 24 0 7 7 17 12 23 12 27 -1 -33 -30 -62 -30 -33 0 -45 14 -20 23
19 8 22 8 35 -5z m1639 -40 c-3 -7 -5 -2 -5 12 0 14 2 19 5 13 2 -7 2 -19 0
-25z m-498 -35 c9 -14 75 -52 86 -50 6 1 12 -9 13 -23 2 -14 9 -31 14 -38 19
-22 1 -24 -33 -3 -23 14 -51 21 -85 21 -50 0 -139 24 -149 40 -12 20 8 40 41
40 23 0 34 5 34 15 0 10 10 13 36 11 20 -2 39 -8 43 -13z m-264 -13 c-3 -5
-11 -10 -16 -10 -6 0 -7 5 -4 10 3 6 11 10 16 10 6 0 7 -4 4 -10z m4361 0
c-17 -6 -36 -5 -45 0 -11 7 -3 9 29 9 42 -1 43 -1 16 -9z m-4269 -16 c-3 -3
-12 -4 -19 -1 -8 3 -5 6 6 6 11 1 17 -2 13 -5z m84 -134 c11 0 17 -4 14 -10
-3 -5 2 -10 11 -10 22 0 64 -38 64 -58 0 -21 -43 -57 -49 -41 -2 7 3 17 11 23
13 8 12 13 -10 33 -14 12 -32 23 -41 24 -33 1 -66 10 -75 19 -6 6 -21 10 -34
10 -13 0 -21 4 -18 8 2 4 23 7 45 5 22 -1 44 3 48 10 5 8 8 8 11 -1 2 -7 13
-12 23 -12z m79 -6 c0 -8 -4 -12 -10 -9 -5 3 -10 10 -10 16 0 5 5 9 10 9 6 0
10 -7 10 -16z m-290 -24 c0 -5 -4 -10 -10 -10 -5 0 -10 5 -10 10 0 6 5 10 10
10 6 0 10 -4 10 -10z m-46 -35 c3 -8 13 -15 23 -15 26 -1 -57 -50 -83 -50 -17
0 -20 5 -16 25 2 14 10 25 17 25 7 0 18 7 25 15 7 8 16 15 20 15 4 0 10 -7 14
-15z m281 -16 c-4 -5 -16 -9 -28 -9 -21 1 -21 1 -3 15 20 15 41 11 31 -6z
m-385 -13 c0 -3 -4 -8 -10 -11 -5 -3 -10 -1 -10 4 0 6 5 11 10 11 6 0 10 -2
10 -4z m751 -45 l24 -20 -24 -23 c-23 -23 -23 -23 -17 -2 4 14 1 28 -9 37 -31
32 -10 38 26 8z m-631 -1 c0 -5 -7 -10 -16 -10 -8 0 -12 -4 -9 -10 3 -5 1 -10
-4 -10 -6 0 -11 2 -11 4 0 2 -3 11 -6 20 -5 12 0 16 20 16 14 0 26 -4 26 -10z
m107 -22 c-3 -8 -6 -5 -6 6 -1 11 2 17 5 13 3 -3 4 -12 1 -19z m-337 -18 c0
-5 -4 -10 -10 -10 -5 0 -10 5 -10 10 0 6 5 10 10 10 6 0 10 -4 10 -10z m95
-10 c3 -5 1 -10 -4 -10 -6 0 -11 5 -11 10 0 6 2 10 4 10 3 0 8 -4 11 -10z
m322 -16 c-3 -3 -12 -4 -19 -1 -8 3 -5 6 6 6 11 1 17 -2 13 -5z m453 -35 c0
-6 -4 -7 -10 -4 -5 3 -10 11 -10 16 0 6 5 7 10 4 6 -3 10 -11 10 -16z m-20
-38 c7 -13 7 -22 0 -26 -5 -3 -10 1 -10 9 0 9 -7 16 -15 16 -8 0 -15 5 -15 10
0 18 29 11 40 -9z m-396 -927 c3 -8 2 -12 -4 -9 -6 3 -10 10 -10 16 0 14 7 11
14 -7z m3816 -19 c-14 -8 -34 -14 -45 -14 -15 0 -13 3 10 14 40 18 67 18 35 0z
m-1843 -231 c-3 -3 -12 -4 -19 -1 -8 3 -5 6 6 6 11 1 17 -2 13 -5z m-110 -10
c-3 -3 -12 -4 -19 -1 -8 3 -5 6 6 6 11 1 17 -2 13 -5z m753 -10 c-159 -51
-1285 -218 -1605 -238 -137 -9 -92 1 136 29 272 33 290 36 316 46 13 5 30 6
38 3 8 -4 21 -2 28 3 6 5 26 8 42 8 17 -1 35 2 40 6 6 4 13 7 18 7 4 1 31 3
60 6 28 3 86 8 127 11 41 4 111 13 155 20 44 8 85 15 90 16 6 0 -1 5 -15 9
-24 8 -24 8 5 9 17 0 36 -3 44 -8 9 -6 23 -4 38 6 17 11 27 13 35 5 7 -7 22
-6 52 4 23 8 42 11 44 5 3 -10 42 -2 42 9 0 5 9 6 20 3 11 -3 32 2 46 12 15 9
23 11 19 4 -6 -9 -2 -10 16 -6 13 4 48 10 77 13 28 4 52 10 52 14 0 5 8 6 18
4 9 -2 31 0 47 5 17 5 37 9 45 9 8 0 -5 -6 -30 -14z m-721 -8 c-12 -10 -59
-15 -59 -6 0 5 14 10 32 10 17 0 29 -2 27 -4z m-322 -42 c-3 -3 -12 -4 -19 -1
-8 3 -5 6 6 6 11 1 17 -2 13 -5z m-134 -11 c-7 -2 -19 -2 -25 0 -7 3 -2 5 12
5 14 0 19 -2 13 -5z m496 -25 c-18 -7 -69 5 -69 17 0 2 12 0 27 -6 22 -8 28
-7 36 7 8 13 11 14 18 3 6 -10 2 -16 -12 -21z m74 15 c-7 -2 -19 -2 -25 0 -7
3 -2 5 12 5 14 0 19 -2 13 -5z m-6023 -60 c0 -10 -10 -13 -37 -11 -41 3 -51
18 -28 42 15 14 18 14 41 0 13 -9 24 -23 24 -31z m120 -15 c34 -19 40 -26 35
-45 -4 -16 1 -28 16 -40 11 -10 57 -52 100 -94 74 -70 78 -77 57 -83 -36 -9
-75 -7 -103 6 -31 14 -48 -2 -42 -40 3 -17 0 -22 -9 -18 -17 7 -18 -22 -2 -76
9 -29 9 -41 0 -50 -7 -7 -12 -20 -12 -30 0 -26 -37 -23 -46 4 -4 13 -2 24 5
26 6 2 11 13 10 25 l0 22 -11 -22 c-13 -26 -55 -31 -64 -8 -4 8 -14 15 -23 14
-10 0 -11 -2 -3 -6 6 -2 12 -11 12 -18 0 -10 -15 -14 -52 -13 -29 0 -56 2 -60
4 -11 7 3 34 18 34 8 0 14 5 14 10 0 6 9 10 19 10 20 0 31 18 31 51 0 10 7 19
15 19 10 0 15 10 15 28 -1 19 -10 33 -33 47 -18 11 -36 30 -42 42 -9 21 -60
49 -100 55 -21 3 -50 26 -43 33 2 3 27 6 54 7 29 2 54 9 61 18 11 13 12 11 13
-10 0 -14 4 -20 8 -14 4 6 32 15 62 20 50 8 55 12 58 37 2 18 -2 29 -12 33
-19 7 -21 30 -3 37 6 3 13 6 14 6 0 1 20 -9 43 -21z m-567 -137 c4 -1 7 -6 7
-12 0 -6 -9 -9 -20 -6 -11 3 -20 1 -20 -4 0 -5 -11 -9 -25 -9 -22 0 -24 2 -13
19 8 13 20 18 37 16 14 -2 29 -4 34 -4z m-81 -213 c-7 -7 -12 -8 -12 -2 0 14
12 26 19 19 2 -3 -1 -11 -7 -17z m3598 12 c0 -5 -4 -10 -10 -10 -5 0 -10 5
-10 10 0 6 5 10 10 10 6 0 10 -4 10 -10z m-3283 -112 c-3 -8 -6 -5 -6 6 -1 11
2 17 5 13 3 -3 4 -12 1 -19z m-167 -40 c0 -16 -3 -19 -11 -11 -6 6 -8 16 -5
22 11 17 16 13 16 -11z m348 11 c-2 -6 -8 -10 -13 -10 -5 0 -11 4 -13 10 -2 6
4 11 13 11 9 0 15 -5 13 -11z m-407 -35 c-8 -29 -8 -29 -15 -5 -6 16 -4 26 5
32 18 11 20 8 10 -27z m189 -64 c0 -5 -5 -10 -11 -10 -5 0 -7 5 -4 10 3 6 8
10 11 10 2 0 4 -4 4 -10z m-67 -7 c-7 -2 -13 -14 -13 -26 0 -20 0 -20 16 -1
15 19 15 19 6 -1 -5 -11 -7 -27 -5 -35 3 -9 1 -11 -4 -4 -4 6 -16 13 -25 17
-12 4 -15 2 -11 -9 5 -12 1 -13 -21 -3 -19 9 -26 19 -25 38 2 24 2 24 6 4 5
-28 23 -30 23 -4 0 21 13 29 45 29 11 0 14 -2 8 -5z m-708 -13 c3 -5 1 -10 -4
-10 -6 0 -11 5 -11 10 0 6 2 10 4 10 3 0 8 -4 11 -10z m609 -35 c-7 -17 -20
-20 -28 -6 -4 5 0 12 6 14 23 9 28 7 22 -8z m-664 -9 c0 -8 -4 -17 -9 -21 -6
-3 -9 4 -8 15 1 23 17 28 17 6z m638 -48 c2 -17 8 -38 14 -45 8 -10 6 -13 -9
-13 -15 0 -22 11 -30 45 -9 39 -8 45 6 45 12 0 18 -10 19 -32z m-528 2 c0 -5
-2 -10 -4 -10 -3 0 -8 5 -11 10 -3 6 -1 10 4 10 6 0 11 -4 11 -10z m600 -9 c0
-12 -26 -32 -33 -25 -6 7 14 33 26 34 4 0 7 -4 7 -9z m-780 -35 c0 -8 -4 -18
-10 -21 -5 -3 -10 3 -10 14 0 12 5 21 10 21 6 0 10 -6 10 -14z m1277 -38 c-3
-8 -6 -5 -6 6 -1 11 2 17 5 13 3 -3 4 -12 1 -19z m-1459 -140 c-8 -7 -22 -24
-31 -37 -14 -21 -17 -22 -23 -7 -8 21 22 56 49 56 18 0 19 -2 5 -12z m134 -23
c4 -21 1 -25 -19 -25 -24 0 -24 0 -6 25 10 13 19 25 19 25 1 0 4 -11 6 -25z
m-105 -17 c-3 -8 -6 -5 -6 6 -1 11 2 17 5 13 3 -3 4 -12 1 -19z m-437 -312 c0
-3 -4 -8 -10 -11 -5 -3 -10 -1 -10 4 0 6 5 11 10 11 6 0 10 -2 10 -4z m-1220
-116 c0 -5 -2 -10 -4 -10 -3 0 -8 5 -11 10 -3 6 -1 10 4 10 6 0 11 -4 11 -10z
m1197 -32 c-3 -8 -6 -5 -6 6 -1 11 2 17 5 13 3 -3 4 -12 1 -19z m-777 -8 c0
-5 -2 -10 -4 -10 -3 0 -8 5 -11 10 -3 6 -1 10 4 10 6 0 11 -4 11 -10z m-90
-10 c0 -5 -5 -10 -11 -10 -5 0 -7 5 -4 10 3 6 8 10 11 10 2 0 4 -4 4 -10z
m200 0 c0 -5 -5 -10 -11 -10 -5 0 -7 5 -4 10 3 6 8 10 11 10 2 0 4 -4 4 -10z
m500 -60 c0 -5 -7 -10 -15 -10 -8 0 -15 5 -15 10 0 6 7 10 15 10 8 0 15 -4 15
-10z m-420 -30 c0 -5 -2 -10 -4 -10 -3 0 -8 5 -11 10 -3 6 -1 10 4 10 6 0 11
-4 11 -10z m290 -5 c-7 -8 -19 -15 -26 -15 -8 0 -14 7 -14 15 0 10 10 15 26
15 22 0 25 -2 14 -15z m-733 -167 c-3 -8 -6 -5 -6 6 -1 11 2 17 5 13 3 -3 4
-12 1 -19z m243 2 c0 -5 -4 -10 -10 -10 -5 0 -10 5 -10 10 0 6 5 10 10 10 6 0
10 -4 10 -10z"/>
<path d="M9950 7800 c0 -25 4 -31 18 -28 11 2 17 12 17 28 0 16 -6 26 -17 28
-14 3 -18 -3 -18 -28z"/>
<path d="M10137 7834 c-4 -4 -7 -14 -7 -23 0 -11 3 -12 11 -4 6 6 10 16 7 23
-2 6 -7 8 -11 4z"/>
<path d="M10927 7623 c-11 -10 -8 -48 4 -60 20 -20 39 -3 39 33 0 26 -4 34
-18 34 -10 0 -22 -3 -25 -7z"/>
<path d="M11153 7625 c-3 -9 -3 -18 0 -21 9 -9 27 6 27 22 0 19 -19 18 -27 -1z"/>
<path d="M11496 7624 c-8 -22 -8 -24 8 -24 12 0 26 20 26 36 0 12 -29 2 -34
-12z"/>
<path d="M9940 7601 c0 -32 6 -37 28 -22 19 11 11 45 -11 49 -13 3 -17 -3 -17
-27z"/>
<path d="M10130 7624 c0 -8 5 -12 10 -9 6 3 10 10 10 16 0 5 -4 9 -10 9 -5 0
-10 -7 -10 -16z"/>
<path d="M10960 5503 c0 -32 45 -97 82 -122 28 -18 38 -32 43 -62 4 -24 12
-39 21 -39 10 0 14 -12 14 -40 0 -33 3 -40 20 -40 11 0 20 5 20 10 0 6 7 10
15 10 18 0 18 -1 4 39 -6 17 -15 31 -20 31 -5 0 -9 9 -9 21 0 11 -13 47 -30
81 -16 33 -30 64 -30 69 0 4 -11 20 -25 34 -32 31 -105 37 -105 8z"/>
<path d="M8578 5363 c7 -3 16 -2 19 1 4 3 -2 6 -13 5 -11 0 -14 -3 -6 -6z"/>
<path d="M8032 5060 c0 -14 2 -19 5 -12 2 6 2 18 0 25 -3 6 -5 1 -5 -13z"/>
<path d="M7459 4749 c-12 -7 -1 -39 13 -39 5 0 6 5 2 12 -5 7 -3 8 6 3 8 -5
18 -1 27 10 7 11 13 13 13 7 0 -7 7 -12 15 -12 8 0 15 7 15 15 0 12 -10 15
-41 13 -22 -2 -45 -6 -50 -9z"/>
<path d="M8425 4790 c3 -5 8 -10 11 -10 2 0 4 5 4 10 0 6 -5 10 -11 10 -5 0
-7 -4 -4 -10z"/>
<path d="M9561 7751 c-14 -9 -35 -110 -25 -120 10 -11 44 41 44 68 1 25 1 25
15 7 14 -18 15 -18 21 -1 13 34 -24 66 -55 46z"/>
<path d="M9255 7740 c-3 -5 -18 -10 -33 -11 -21 0 -23 -2 -10 -7 10 -4 27 -25
39 -47 12 -22 30 -50 42 -62 74 -81 250 -85 318 -7 26 29 49 81 48 106 0 22
-1 22 -12 4 -29 -48 -92 -106 -125 -117 -80 -26 -163 -8 -225 50 -44 41 -52
59 -31 82 9 10 12 19 6 19 -6 0 -14 -4 -17 -10z"/>
<path d="M1852 7638 c-7 -7 -12 -37 -12 -69 0 -109 -56 -148 -237 -164 -46 -4
-83 -10 -83 -13 0 -4 15 -13 33 -20 17 -7 56 -25 85 -39 55 -26 74 -26 169 -5
52 11 73 28 73 57 0 12 7 42 16 66 8 24 17 52 19 63 3 10 11 26 20 36 22 24
19 47 -10 75 -26 27 -54 32 -73 13z"/>
<path d="M0 7563 c1 -46 1 -47 14 -23 27 51 29 70 7 70 -18 0 -21 -6 -21 -47z"/>
<path d="M576 7563 c-29 -5 -100 -43 -79 -43 6 0 19 -7 28 -17 11 -10 36 -17
71 -19 58 -2 74 10 74 54 0 18 -29 34 -55 30 -5 0 -23 -3 -39 -5z"/>
<path d="M404 7373 c-24 -26 -38 -60 -33 -79 2 -5 -3 -26 -10 -46 -7 -21 -10
-42 -6 -48 12 -20 44 -9 66 23 30 42 49 56 76 57 12 0 25 5 28 10 12 19 25 10
45 -34 12 -24 32 -54 46 -66 l24 -23 0 79 0 80 -33 -4 c-25 -3 -41 4 -71 27
-21 17 -39 31 -40 31 -1 0 -16 4 -34 10 -30 8 -37 6 -58 -17z"/>
<path d="M3220 7320 c-14 -11 -33 -20 -42 -20 -10 0 -18 -4 -18 -9 0 -5 -14
-12 -30 -16 -29 -6 -31 -9 -29 -53 5 -108 41 -144 151 -146 71 -1 73 0 76 24
4 27 68 100 89 100 7 0 13 9 13 20 0 16 -7 20 -31 20 -23 0 -42 12 -80 50 -27
28 -55 50 -62 50 -6 0 -23 -9 -37 -20z"/>
<path d="M2048 7323 c6 -2 18 -2 25 0 6 3 1 5 -13 5 -14 0 -19 -2 -12 -5z"/>
<path d="M159 7150 c-46 -13 -69 -30 -69 -50 0 -29 34 -30 88 -2 22 12 32 23
30 36 -4 23 -14 27 -49 16z"/>
<path d="M4050 7091 c0 -5 -8 -12 -17 -14 -10 -3 -3 -5 16 -6 29 -1 32 1 21
14 -14 17 -20 19 -20 6z"/>
<path d="M759 6744 c-27 -26 -49 -50 -49 -55 0 -13 42 -22 49 -10 4 6 18 14
31 16 32 6 44 21 46 55 2 46 -22 44 -77 -6z"/>
<path d="M3640 6766 c0 -9 39 -13 51 -5 10 6 4 9 -18 9 -18 0 -33 -2 -33 -4z"/>
<path d="M2147 6740 c-3 -11 -1 -20 4 -20 5 0 9 9 9 20 0 11 -2 20 -4 20 -2 0
-6 -9 -9 -20z"/>
<path d="M4097 6738 c-16 -12 -17 -19 -7 -58 6 -25 14 -55 17 -67 3 -13 -3
-29 -16 -42 -12 -12 -21 -28 -21 -36 0 -19 42 -58 50 -45 3 5 27 13 52 16 42
6 47 4 53 -17 6 -17 2 -27 -14 -40 l-21 -17 25 -6 c14 -4 40 -23 58 -43 l34
-36 77 12 c106 15 154 14 202 -8 31 -14 45 -16 60 -8 10 6 38 12 62 14 l42 2
16 -58 c18 -62 46 -88 84 -76 39 13 37 134 -3 160 -23 15 -35 15 -212 9 -199
-7 -227 -5 -253 19 -17 16 -22 29 -18 49 4 22 0 30 -23 44 -15 9 -45 42 -67
74 -21 31 -53 68 -70 81 -18 13 -38 37 -46 54 -15 34 -35 42 -61 23z"/>
<path d="M2200 6574 c-9 -3 -21 -14 -28 -24 -11 -18 -8 -24 24 -53 60 -53 82
-62 105 -41 14 13 16 20 8 25 -7 4 -15 27 -18 51 -6 41 -8 43 -41 45 -19 0
-42 -1 -50 -3z"/>
<path d="M8808 6563 c7 -3 16 -2 19 1 4 3 -2 6 -13 5 -11 0 -14 -3 -6 -6z"/>
<path d="M3655 6490 c-3 -5 0 -13 9 -16 21 -8 61 -1 61 11 0 14 -62 19 -70 5z"/>
<path d="M4058 6421 c-33 -19 -35 -35 -8 -54 22 -16 70 -11 71 7 0 6 2 21 3
33 3 28 -29 35 -66 14z"/>
<path d="M3460 6360 c0 -5 5 -10 11 -10 5 0 7 5 4 10 -3 6 -8 10 -11 10 -2 0
-4 -4 -4 -10z"/>
<path d="M7825 6350 c-3 -5 -1 -10 4 -10 6 0 11 5 11 10 0 6 -2 10 -4 10 -3 0
-8 -4 -11 -10z"/>
<path d="M1550 6330 c0 -5 11 -10 25 -10 14 0 25 5 25 10 0 6 -11 10 -25 10
-14 0 -25 -4 -25 -10z"/>
<path d="M1135 6305 c-41 -22 -85 -59 -85 -71 0 -2 47 -3 104 -3 l104 1 4 29
c9 60 -54 82 -127 44z"/>
<path d="M7740 6319 c-106 -12 -137 -24 -144 -60 -3 -17 -6 -35 -6 -39 0 -12
89 13 135 38 41 22 91 61 84 65 -2 1 -33 0 -69 -4z"/>
<path d="M1378 6304 c-16 -16 -16 -18 4 -36 23 -20 44 -23 53 -8 3 6 2 10 -3
10 -5 0 -8 10 -8 22 1 28 -24 34 -46 12z"/>
<path d="M3374 6150 c-24 -10 -39 -39 -26 -52 10 -10 132 11 132 23 0 13 -44
39 -65 38 -11 0 -29 -4 -41 -9z"/>
<path d="M217 5983 c-26 -7 -15 -27 17 -31 35 -4 58 14 36 28 -16 10 -24 11
-53 3z"/>
<path d="M7473 5759 c-40 -26 -42 -39 -5 -39 15 0 32 -4 38 -9 5 -5 32 -12 59
-15 43 -5 46 -4 22 5 -15 6 -24 15 -21 21 4 6 -1 6 -13 -1 -15 -8 -25 -7 -39
5 -14 11 -15 17 -6 20 13 6 17 34 5 34 -5 0 -23 -10 -40 -21z"/>
<path d="M453 5705 c-10 -8 -31 -15 -47 -15 -24 0 -27 -2 -16 -15 7 -8 18 -15
26 -15 18 0 84 32 84 41 0 15 -29 17 -47 4z"/>
<path d="M1370 5701 c0 -23 44 -40 67 -25 18 11 14 27 -7 30 -8 1 -25 6 -37 9
-19 6 -23 4 -23 -14z"/>
<path d="M7655 5706 c-19 -14 -19 -15 8 -27 24 -11 30 -11 38 2 20 32 -12 50
-46 25z"/>
<path d="M8490 5710 c-13 -9 -12 -12 4 -25 23 -17 42 -5 33 19 -7 18 -16 20
-37 6z"/>
<path d="M814 5675 c-10 -8 -14 -15 -8 -15 6 0 17 7 24 15 16 19 9 19 -16 0z"/>
<path d="M5810 5596 c0 -2 6 -9 14 -15 10 -9 15 -8 20 4 4 10 -1 15 -14 15
-11 0 -20 -2 -20 -4z"/>
<path d="M8030 5557 c0 -2 8 -13 18 -24 11 -13 28 -20 50 -19 36 1 45 16 9 16
-13 0 -32 7 -43 15 -18 14 -34 19 -34 12z"/>
<path d="M1646 5531 c-8 -13 25 -49 49 -53 23 -4 32 26 15 47 -14 16 -56 20
-64 6z"/>
<path d="M7910 5512 c0 -11 39 -12 45 -1 4 5 -5 9 -19 9 -14 0 -26 -4 -26 -8z"/>
<path d="M6921 5451 c-23 -12 -30 -20 -22 -26 16 -9 61 14 61 32 0 16 3 16
-39 -6z"/>
<path d="M568 5418 c-27 -9 -27 -9 -7 -29 21 -21 18 -42 -5 -33 -8 3 -17 1
-21 -5 -3 -6 -19 -11 -36 -11 -16 0 -37 -4 -47 -9 -9 -5 -25 -12 -34 -15 -10
-3 -18 -12 -18 -21 0 -11 11 -15 39 -15 22 0 43 5 46 10 10 16 45 12 93 -12
41 -20 46 -20 57 -5 7 10 22 17 33 17 11 0 23 4 26 9 3 5 18 12 32 15 15 4 47
24 72 44 l45 37 -39 6 c-28 5 -44 3 -56 -8 -34 -30 -107 -21 -138 16 -12 15
-20 17 -42 9z"/>
<path d="M7202 5388 c-6 -8 -8 -19 -4 -25 10 -14 55 3 50 19 -6 18 -33 21 -46
6z"/>
<path d="M1686 5341 c-4 -5 3 -7 14 -4 23 6 26 13 6 13 -8 0 -17 -4 -20 -9z"/>
<path d="M5398 5334 c45 -16 59 -14 47 5 -3 6 -25 11 -48 11 l-42 -1 43 -15z"/>
<path d="M5365 5090 c-3 -5 3 -10 14 -10 12 0 21 5 21 10 0 6 -6 10 -14 10 -8
0 -18 -4 -21 -10z"/>
<path d="M5145 5000 c-10 -11 -13 -20 -8 -20 13 0 38 29 31 35 -3 3 -13 -4
-23 -15z"/>
<path d="M5251 4977 c-33 -17 -32 -31 3 -35 37 -5 56 13 36 33 -12 12 -19 12
-39 2z"/>
<path d="M6510 4840 c-12 -7 -12 -12 -2 -22 6 -6 12 -9 12 -4 0 4 7 1 15 -8
13 -12 20 -13 44 -3 27 12 31 16 31 37 0 13 -80 13 -100 0z"/>
<path d="M6355 4770 c-8 -13 25 -13 45 0 12 8 9 10 -12 10 -15 0 -30 -4 -33
-10z"/>
<path d="M3080 4670 c0 -5 6 -10 14 -10 8 0 18 5 21 10 3 6 -3 10 -14 10 -12
0 -21 -4 -21 -10z"/>
<path d="M6588 4653 c7 -3 16 -2 19 1 4 3 -2 6 -13 5 -11 0 -14 -3 -6 -6z"/>
<path d="M5330 4640 c0 -13 11 -13 30 0 12 8 11 10 -7 10 -13 0 -23 -4 -23
-10z"/>
<path d="M3329 4610 c-37 -6 -80 -33 -112 -67 -16 -19 -16 -21 3 -38 13 -12
20 -14 20 -5 0 18 101 4 117 -16 10 -14 14 -12 28 9 12 19 15 37 10 71 -8 50
-15 55 -66 46z"/>
<path d="M6190 4601 c0 -17 15 -19 35 -5 18 13 18 14 -8 14 -15 0 -27 -4 -27
-9z"/>
<path d="M4433 4593 c-40 -5 -46 -33 -7 -33 14 0 34 -5 45 -11 12 -6 27 -8 36
-5 12 5 11 10 -9 31 -12 14 -25 24 -28 23 -3 -1 -20 -3 -37 -5z"/>
<path d="M7205 4554 c-31 -9 -36 -13 -22 -19 9 -4 17 -17 17 -29 0 -15 7 -22
20 -23 24 -2 26 19 5 37 -12 10 -13 16 -5 24 8 8 13 7 19 -2 6 -9 11 -9 26 1
17 13 17 14 -1 19 -10 2 -37 -1 -59 -8z"/>
<path d="M6107 4513 c-14 -13 -6 -33 13 -33 13 0 20 7 20 20 0 19 -20 27 -33
13z"/>
<path d="M7067 4513 c-4 -7 -23 -9 -46 -7 -22 3 -42 0 -46 -6 -3 -5 -1 -10 4
-10 6 0 10 -10 8 -22 -2 -22 2 -23 61 -23 43 0 66 5 72 14 12 20 1 41 -20 41
-10 0 -20 5 -22 12 -3 9 -6 9 -11 1z"/>
<path d="M6177 4504 c-14 -14 -7 -35 11 -32 9 2 17 10 17 17 0 16 -18 25 -28
15z"/>
<path d="M6898 4496 c-10 -7 -15 -16 -12 -19 4 -3 13 1 21 9 20 19 13 26 -9
10z"/>
<path d="M3905 4450 c-3 -5 3 -10 15 -10 12 0 18 5 15 10 -3 6 -10 10 -15 10
-5 0 -12 -4 -15 -10z"/>
<path d="M6363 4453 c-25 -10 -14 -33 16 -33 16 0 31 -6 34 -14 9 -22 -4 -27
-29 -11 -20 13 -25 12 -47 -5 -14 -11 -30 -20 -36 -20 -17 0 -13 -30 4 -36 8
-4 23 -3 33 2 9 4 20 8 24 8 3 1 10 4 14 8 4 4 18 5 32 1 22 -5 24 -3 19 16
-3 15 1 29 13 41 19 19 19 20 -3 35 -21 15 -50 18 -74 8z"/>
<path d="M6163 4435 c0 -8 9 -15 19 -15 17 0 18 2 4 15 -8 8 -16 15 -19 15 -2
0 -4 -7 -4 -15z"/>
<path d="M6965 4429 c-4 -6 -5 -13 -2 -16 7 -7 27 6 27 18 0 12 -17 12 -25 -2z"/>
<path d="M6115 4416 c-39 -13 -38 -11 -30 -36 4 -12 12 -19 20 -16 7 2 16 -2
19 -10 4 -10 -3 -14 -30 -14 -42 0 -118 -45 -110 -65 3 -8 0 -17 -5 -21 -6 -4
-1 -11 13 -19 20 -10 25 -9 39 8 11 13 23 18 34 13 9 -3 34 -2 55 4 51 14 85
73 68 118 -15 40 -36 51 -73 38z"/>
<path d="M6290 4426 c0 -2 9 -6 20 -9 11 -3 20 -1 20 4 0 5 -9 9 -20 9 -11 0
-20 -2 -20 -4z"/>
<path d="M6614 4393 c-13 -5 -6 -43 7 -43 14 0 23 30 13 39 -5 5 -14 7 -20 4z"/>
<path d="M6932 4382 l-23 -18 26 -2 c14 -1 25 3 25 10 0 6 3 8 8 4 4 -4 7 -13
7 -18 0 -16 17 -19 35 -8 13 9 12 13 -9 30 -28 24 -39 25 -69 2z"/>
<path d="M5610 4340 c0 -5 5 -10 10 -10 6 0 10 5 10 10 0 6 -4 10 -10 10 -5 0
-10 -4 -10 -10z"/>
<path d="M5640 4341 c0 -5 7 -12 16 -15 14 -5 15 -4 4 9 -14 17 -20 19 -20 6z"/>
<path d="M6221 4326 l-23 -13 23 -6 c28 -7 17 -23 -21 -30 -22 -4 -22 -4 6 -6
36 -1 54 14 54 46 0 26 -6 28 -39 9z"/>
<path d="M6560 4321 c0 -5 -8 -7 -19 -4 -23 6 -39 -16 -20 -28 10 -6 11 -9 2
-9 -7 0 -13 -4 -13 -9 0 -4 11 -6 25 -3 15 2 25 11 25 21 0 9 5 22 12 29 9 9
9 12 0 12 -7 0 -12 -4 -12 -9z"/>
<path d="M6943 4303 c-18 -7 -16 -23 2 -23 8 0 15 7 15 15 0 8 -1 15 -2 14 -2
0 -9 -3 -15 -6z"/>
<path d="M5691 4278 c-15 -24 -6 -38 22 -38 37 0 51 14 38 38 -13 25 -44 25
-60 0z"/>
<path d="M6740 4290 c-8 -5 -10 -10 -5 -10 6 0 17 5 25 10 8 5 11 10 5 10 -5
0 -17 -5 -25 -10z"/>
<path d="M6690 4274 c-17 -9 -20 -14 -9 -14 9 0 22 7 29 15 15 18 13 18 -20
-1z"/>
<path d="M6530 4250 c-11 -7 -12 -10 -2 -10 13 0 11 -13 -5 -58 -4 -8 2 -11
18 -8 13 3 35 5 49 6 22 2 21 3 -8 11 -27 8 -31 13 -22 24 8 9 8 15 0 20 -6 3
-8 11 -5 16 8 12 -6 11 -25 -1z"/>
<path d="M6597 4220 c-3 -13 0 -20 9 -20 8 0 14 9 14 20 0 11 -4 20 -9 20 -5
0 -11 -9 -14 -20z"/>
<path d="M5935 4190 c-10 -11 -25 -20 -34 -21 -9 0 -34 -11 -56 -25 -22 -13
-48 -26 -57 -30 -10 -3 -18 -13 -18 -21 0 -12 3 -13 14 -4 7 6 20 9 29 5 8 -3
18 -1 21 4 3 6 15 8 25 5 16 -4 19 -1 15 14 -5 17 -1 19 23 16 24 -4 30 0 45
33 20 45 18 52 -7 24z"/>
<path d="M630 4179 c0 -27 33 -57 73 -64 50 -10 72 -3 75 22 3 17 -3 24 -25
29 -15 3 -49 12 -75 20 -45 12 -48 12 -48 -7z"/>
<path d="M5470 4160 c-8 -5 -11 -12 -8 -16 10 -9 38 3 38 16 0 12 -10 13 -30
0z"/>
<path d="M347 4136 c-21 -8 -47 -22 -58 -32 -20 -18 -20 -18 3 -36 29 -22 53
-22 104 1 54 25 61 37 32 61 -27 23 -32 23 -81 6z"/>
<path d="M6520 4131 c0 -6 5 -13 10 -16 6 -3 10 1 10 9 0 9 -4 16 -10 16 -5 0
-10 -4 -10 -9z"/>
<path d="M160 4055 c-11 -13 -8 -15 18 -15 24 0 30 4 26 15 -4 8 -12 15 -19
15 -7 0 -18 -7 -25 -15z"/>
<path d="M100 4010 c0 -5 5 -10 10 -10 6 0 10 5 10 10 0 6 -4 10 -10 10 -5 0
-10 -4 -10 -10z"/>
<path d="M7302 3888 c-15 -15 -16 -45 -2 -53 6 -3 10 -15 10 -26 0 -10 5 -19
10 -19 6 0 10 5 10 11 0 6 6 9 14 6 23 -9 76 15 76 35 0 39 -90 74 -118 46z"/>
<path d="M7312 3750 c0 -14 2 -19 5 -12 2 6 2 18 0 25 -3 6 -5 1 -5 -13z"/>
<path d="M6430 3610 c0 -5 5 -10 11 -10 5 0 7 5 4 10 -3 6 -8 10 -11 10 -2 0
-4 -4 -4 -10z"/>
<path d="M6580 3586 c0 -8 5 -18 10 -21 6 -3 10 1 10 9 0 8 -4 18 -10 21 -5 3
-10 -1 -10 -9z"/>
<path d="M6610 3576 c0 -8 8 -14 19 -13 11 0 17 6 14 14 -7 18 -33 17 -33 -1z"/>
<path d="M6528 3573 c7 -3 16 -2 19 1 4 3 -2 6 -13 5 -11 0 -14 -3 -6 -6z"/>
<path d="M6560 3560 c0 -5 5 -10 11 -10 5 0 7 5 4 10 -3 6 -8 10 -11 10 -2 0
-4 -4 -4 -10z"/>
<path d="M7547 3402 c-22 -5 -18 -21 11 -40 21 -14 22 -13 22 11 0 29 -7 35
-33 29z"/>
<path d="M7214 3265 c-10 -14 -27 -25 -37 -25 -11 0 -20 -10 -23 -29 -4 -16
-16 -40 -28 -53 -11 -12 -21 -25 -21 -28 -1 -13 -23 -42 -31 -41 -5 1 -9 -4
-9 -10 0 -6 -18 -17 -39 -24 -44 -16 -60 -33 -44 -52 15 -18 51 -16 79 5 51
38 77 45 142 40 36 -3 75 -13 90 -23 43 -28 31 -1 -17 38 -53 44 -63 80 -29
103 14 9 22 21 19 30 -3 8 -1 14 5 14 6 0 6 7 -1 19 -5 11 -10 29 -10 40 0 29
-23 26 -46 -4z"/>
<path d="M3003 3257 c-11 -18 -94 -57 -121 -57 -11 0 -23 -4 -27 -10 -8 -12
-32 -2 -59 25 -27 27 -121 44 -139 26 -25 -25 7 -46 86 -56 85 -11 125 -38
151 -99 8 -18 30 -46 50 -62 23 -19 34 -35 31 -45 -3 -9 1 -22 10 -29 21 -17
19 -37 -5 -45 -11 -3 -20 -15 -20 -26 0 -27 18 -24 32 6 12 28 19 30 35 14 16
-16 88 -22 230 -16 40 1 63 -2 63 -9 0 -6 10 -20 23 -32 20 -19 27 -20 55 -10
25 10 32 18 32 40 0 27 -13 37 -24 19 -3 -5 -15 -11 -26 -14 -15 -4 -20 0 -20
14 0 12 7 19 19 19 10 0 25 7 32 16 11 14 10 19 -13 35 -15 11 -43 44 -63 74
-20 31 -47 62 -60 71 -32 21 -128 55 -141 50 -16 -6 -26 4 -63 62 -33 52 -53
64 -68 39z"/>
<path d="M1194 3079 c-9 -16 12 -33 31 -25 14 5 15 9 5 21 -15 18 -26 19 -36
4z"/>
<path d="M1073 3058 c-21 -7 -33 -17 -33 -28 0 -19 -43 -36 -48 -20 -5 13 -32
13 -32 0 0 -5 5 -10 11 -10 6 0 9 -9 6 -20 -5 -20 23 -46 36 -33 4 3 22 7 41
10 30 3 34 1 29 -13 -8 -22 16 -35 40 -22 14 7 22 7 27 -2 4 -7 13 -9 19 -6
11 7 16 -11 12 -50 -2 -27 43 -46 77 -33 30 11 30 58 0 86 -13 11 -30 30 -38
43 -8 12 -21 28 -27 36 -7 7 -13 24 -13 37 0 37 -40 46 -107 25z m100 -82 c6
-16 -2 -28 -14 -20 -12 7 -11 34 0 34 5 0 11 -6 14 -14z"/>
<path d="M7625 3059 c-4 -6 -5 -12 -2 -15 2 -3 7 2 10 11 7 17 1 20 -8 4z"/>
<path d="M2367 2994 c-14 -14 6 -24 49 -24 32 0 44 4 42 13 -5 13 -79 22 -91
11z"/>
<path d="M5108 2993 c-16 -2 -28 -8 -28 -13 0 -4 -11 -11 -25 -14 -24 -6 -35
-26 -14 -26 5 0 8 -4 5 -9 -6 -9 15 -21 35 -21 11 0 89 72 89 83 0 7 -14 7
-62 0z"/>
<path d="M7357 2976 c21 -28 24 -28 16 2 -3 12 -12 22 -20 22 -11 0 -10 -5 4
-24z"/>
<path d="M2020 2910 c0 -11 4 -20 9 -20 13 0 32 26 24 33 -13 14 -33 6 -33
-13z"/>
<path d="M1955 2909 c-4 -6 -13 -8 -20 -5 -18 6 -35 -14 -35 -42 0 -20 4 -22
23 -17 29 9 33 14 41 48 7 28 2 35 -9 16z"/>
<path d="M2730 2901 c0 -6 4 -11 9 -11 5 0 11 -8 14 -19 6 -25 64 -33 95 -13
24 16 24 16 -25 29 -85 25 -93 26 -93 14z"/>
<path d="M870 2880 c0 -5 5 -10 10 -10 6 0 10 5 10 10 0 6 -4 10 -10 10 -5 0
-10 -4 -10 -10z"/>
<path d="M2900 2880 c0 -5 5 -10 10 -10 6 0 10 5 10 10 0 6 -4 10 -10 10 -5 0
-10 -4 -10 -10z"/>
<path d="M6858 2883 c6 -2 18 -2 25 0 6 3 1 5 -13 5 -14 0 -19 -2 -12 -5z"/>
<path d="M920 2860 c-9 -16 -8 -22 5 -26 25 -10 44 3 38 25 -7 27 -29 27 -43
1z"/>
<path d="M4534 2856 c-26 -19 -29 -25 -23 -50 5 -17 4 -37 -2 -48 -13 -24 -2
-41 22 -35 11 3 19 1 19 -4 0 -5 27 -9 60 -9 32 0 80 -7 105 -15 25 -9 50 -13
55 -10 6 4 35 -6 65 -21 49 -23 69 -27 168 -29 62 -1 140 -5 175 -10 65 -8 72
-4 47 29 -8 11 -15 32 -15 47 0 15 -7 29 -16 33 -29 11 -86 6 -114 -10 -26
-16 -28 -16 -49 5 -28 28 -43 23 -55 -17 -12 -42 -42 -43 -51 -2 -4 16 -11 32
-15 35 -5 3 -5 16 0 30 16 43 -8 38 -31 -7 -31 -61 -43 -70 -84 -62 -19 3 -33
10 -30 14 3 5 1 11 -5 15 -5 3 -10 15 -10 26 0 27 -44 69 -72 69 -13 0 -40 11
-60 25 -44 30 -44 30 -84 1z"/>
<path d="M1980 2860 c0 -5 5 -10 10 -10 6 0 10 5 10 10 0 6 -4 10 -10 10 -5 0
-10 -4 -10 -10z"/>
<path d="M2710 2841 c0 -5 -17 -12 -37 -17 -21 -4 -41 -8 -45 -9 -5 -2 -17 -3
-27 -4 -11 0 -26 -7 -34 -15 -10 -11 -44 -14 -143 -13 -154 2 -188 -4 -178
-35 5 -18 3 -20 -17 -14 -13 4 -44 11 -69 16 -25 4 -57 14 -73 21 -32 15 -38
11 -30 -19 6 -24 28 -30 36 -9 3 8 11 4 22 -11 9 -13 25 -22 34 -20 10 2 35
-16 59 -40 22 -23 48 -42 57 -42 13 0 12 4 -5 22 -25 28 -26 48 0 55 12 3 20
14 21 27 0 11 3 16 5 10 3 -7 14 -10 24 -7 14 4 21 -2 26 -21 5 -22 10 -25 28
-20 11 4 23 11 24 15 8 20 51 8 71 -18 12 -16 26 -34 31 -41 8 -9 5 -15 -13
-21 -14 -6 -33 -8 -43 -6 -55 11 -94 13 -89 4 4 -5 -1 -9 -9 -9 -9 0 -16 5
-16 10 0 6 -4 10 -8 10 -5 0 -9 -7 -9 -15 0 -12 14 -15 68 -15 66 0 68 -1 81
-31 7 -17 28 -39 47 -48 30 -16 38 -16 73 -4 49 17 87 44 88 61 0 7 -8 12 -17
11 -40 -4 -43 0 -23 37 11 19 18 39 15 44 -10 17 8 40 31 40 13 0 28 9 34 20
9 16 15 18 31 10 11 -6 24 -8 29 -5 13 8 13 61 0 86 -11 19 -50 27 -50 10z
m-105 -71 c3 -5 -1 -10 -9 -10 -9 0 -16 5 -16 10 0 6 4 10 9 10 6 0 13 -4 16
-10z"/>
<path d="M3140 2819 c0 -24 23 -21 28 4 2 10 -3 17 -12 17 -10 0 -16 -9 -16
-21z"/>
<path d="M82 2808 c-15 -15 -16 -38 -2 -38 18 0 77 27 84 39 10 15 -67 14 -82
-1z"/>
<path d="M4290 2806 c0 -8 -6 -16 -12 -19 -10 -3 -10 -7 -1 -17 6 -7 19 -10
27 -7 21 8 21 57 1 57 -8 0 -15 -6 -15 -14z"/>
<path d="M7450 2809 c0 -5 5 -7 10 -4 6 3 10 8 10 11 0 2 -4 4 -10 4 -5 0 -10
-5 -10 -11z"/>
<path d="M20 2783 c1 -10 26 -43 32 -43 3 0 3 11 0 25 -4 22 -33 37 -32 18z"/>
<path d="M602 2770 c0 -14 2 -19 5 -12 2 6 2 18 0 25 -3 6 -5 1 -5 -13z"/>
<path d="M1996 2771 c-3 -4 6 -6 19 -3 14 2 25 6 25 8 0 8 -39 4 -44 -5z"/>
<path d="M2012 2748 c-7 -7 -12 -9 -12 -5 0 4 -9 3 -20 -3 -14 -8 -32 -8 -61
0 -33 9 -44 9 -50 -2 -14 -21 -11 -28 16 -40 19 -8 29 -8 47 4 13 8 44 14 70
14 43 -1 45 0 36 19 -6 11 -12 21 -13 22 -1 2 -7 -3 -13 -9z"/>
<path d="M550 2741 c0 -5 5 -13 10 -16 6 -3 10 -2 10 4 0 5 -4 13 -10 16 -5 3
-10 2 -10 -4z"/>
<path d="M612 2737 c-18 -8 -22 -16 -17 -31 8 -25 9 -38 4 -51 -2 -5 1 -10 6
-10 6 0 10 10 10 23 -1 17 5 22 27 22 26 0 40 12 44 36 1 6 -8 11 -20 10 -11
-1 -23 1 -26 5 -3 3 -15 2 -28 -4z"/>
<path d="M7561 2714 c-7 -16 -17 -24 -25 -21 -13 5 -31 -31 -21 -42 6 -5 85
71 85 82 0 18 -28 4 -39 -19z"/>
<path d="M7232 2710 c0 -14 2 -19 5 -12 2 6 2 18 0 25 -3 6 -5 1 -5 -13z"/>
<path d="M3115 2680 c-4 -6 7 -10 25 -10 18 0 29 4 25 10 -3 6 -15 10 -25 10
-10 0 -22 -4 -25 -10z"/>
<path d="M1156 2645 c-3 -9 0 -15 9 -15 16 0 20 16 6 24 -5 3 -11 -1 -15 -9z"/>
<path d="M40 2639 c0 -5 5 -7 10 -4 6 3 10 8 10 11 0 2 -4 4 -10 4 -5 0 -10
-5 -10 -11z"/>
<path d="M20 2620 c0 -5 5 -10 10 -10 6 0 10 -5 10 -11 0 -6 -9 -9 -20 -6 -23
6 -24 3 -10 -24 13 -23 30 -25 30 -3 0 9 9 18 20 21 20 5 20 6 -1 24 -24 21
-39 24 -39 9z"/>
<path d="M2096 2572 c-3 -5 -34 -13 -68 -17 -91 -10 -127 -24 -125 -49 1 -27
16 -37 44 -29 14 3 23 1 23 -6 0 -6 -7 -11 -15 -11 -9 0 -14 -8 -12 -20 3 -20
27 -52 27 -36 0 5 7 3 15 -4 9 -8 15 -8 15 -2 0 6 -5 12 -12 14 -6 2 -8 10 -4
17 6 9 11 9 23 0 11 -10 16 -10 22 0 6 10 10 9 15 -4 9 -26 7 -42 -4 -25 -8
13 -10 12 -10 -2 0 -10 5 -18 11 -18 6 0 9 -6 6 -14 -3 -7 1 -24 10 -37 l15
-24 -22 24 c-16 18 -24 21 -32 13 -16 -16 -53 -15 -70 1 -17 17 -49 13 -64 -7
-6 -9 -18 -16 -27 -16 -12 0 -27 -19 -27 -36 0 -12 53 -1 68 14 14 14 25 16
41 10 13 -5 19 -12 15 -19 -4 -8 -3 -9 4 -5 6 4 19 -2 29 -14 10 -11 23 -20
30 -20 6 0 15 -5 18 -11 4 -6 0 -9 -11 -7 -11 2 -18 -2 -17 -9 3 -14 -32 -27
-47 -18 -5 3 -10 -1 -10 -9 0 -9 -7 -16 -15 -16 -8 0 -15 -3 -15 -7 0 -12 -83
-15 -90 -3 -8 13 -67 2 -74 -15 -3 -9 2 -11 16 -7 17 4 20 2 15 -12 -4 -10 -7
-24 -7 -32 0 -21 -19 -17 -41 9 -12 14 -18 16 -17 7 2 -8 8 -18 13 -23 6 -4 3
-11 -8 -18 -17 -10 -17 -12 4 -30 23 -20 41 -24 52 -12 12 11 122 11 129 -1 5
-7 8 -6 8 3 0 10 3 11 13 3 20 -17 57 -3 58 22 1 18 2 19 6 2 4 -17 6 -16 17
5 6 13 20 26 31 28 11 2 27 11 35 20 24 26 67 51 90 51 25 0 27 27 3 33 -12 3
-9 5 8 6 23 1 26 -2 21 -25 -5 -25 -4 -26 19 -13 13 7 30 12 37 11 19 -4 14
23 -8 43 -19 17 -19 19 -4 37 16 17 16 18 -7 19 l-24 0 23 16 23 16 -27 24
c-25 21 -73 30 -123 23 -10 -1 -9 3 4 16 16 17 16 18 0 30 -21 15 -12 52 18
75 13 11 20 27 19 47 -1 29 1 30 24 22 28 -11 30 -8 8 14 -18 19 -64 21 -64 4
0 -10 -3 -9 -9 1 -5 8 -11 9 -15 3z m-104 -70 c-19 -6 -44 6 -37 18 4 7 14 6
28 -2 14 -7 17 -13 9 -16z m-12 -62 c0 -5 -4 -10 -10 -10 -5 0 -10 5 -10 10 0
6 5 10 10 10 6 0 10 -4 10 -10z m165 -110 c3 -5 1 -10 -4 -10 -6 0 -11 5 -11
10 0 6 2 10 4 10 3 0 8 -4 11 -10z m-135 -31 c0 -6 -4 -7 -10 -4 -5 3 -10 11
-10 16 0 6 5 7 10 4 6 -3 10 -11 10 -16z m190 0 c0 -19 -2 -24 -11 -21 -5 1
-9 -2 -9 -8 0 -5 -4 -10 -10 -10 -5 0 -10 13 -10 29 0 24 3 28 20 24 11 -3 20
-9 20 -14z m-87 -45 c-4 -10 -9 -12 -15 -6 -12 12 -1 35 12 27 5 -3 6 -13 3
-21z m-43 -44 c0 -5 -2 -10 -4 -10 -3 0 -8 5 -11 10 -3 6 -1 10 4 10 6 0 11
-4 11 -10z m-206 -135 c11 -8 17 -17 14 -21 -8 -8 -48 14 -48 26 0 14 12 12
34 -5z"/>
<path d="M6472 2535 c12 -26 28 -29 83 -15 28 7 28 8 -12 9 -23 0 -48 8 -57
16 -22 22 -27 18 -14 -10z"/>
<path d="M6905 2520 c-3 -5 -1 -10 4 -10 6 0 11 5 11 10 0 6 -2 10 -4 10 -3 0
-8 -4 -11 -10z"/>
<path d="M2340 2486 c0 -8 -7 -19 -16 -27 -14 -11 -13 -15 8 -31 21 -17 22
-19 5 -29 -13 -8 -15 -14 -7 -30 6 -10 19 -19 28 -19 10 0 23 -5 30 -12 9 -9
12 -9 12 -1 0 7 12 13 28 15 19 2 28 9 30 25 2 12 12 25 23 28 10 4 19 12 19
19 0 15 -32 46 -47 46 -6 0 -13 5 -15 12 -6 17 -98 21 -98 4z m67 -58 c-3 -7
-5 -2 -5 12 0 14 2 19 5 13 2 -7 2 -19 0 -25z m-27 -18 c0 -5 -4 -10 -10 -10
-5 0 -10 5 -10 10 0 6 5 10 10 10 6 0 10 -4 10 -10z"/>
<path d="M6932 2480 c0 -14 2 -19 5 -12 2 6 2 18 0 25 -3 6 -5 1 -5 -13z"/>
<path d="M1230 2339 c0 -5 -4 -7 -10 -4 -5 3 -10 0 -10 -8 0 -8 7 -18 16 -21
9 -3 12 -2 9 5 -4 5 -1 16 5 24 9 11 9 15 1 15 -6 0 -11 -5 -11 -11z"/>
<path d="M240 2280 c0 -5 5 -10 11 -10 5 0 7 5 4 10 -3 6 -8 10 -11 10 -2 0
-4 -4 -4 -10z"/>
<path d="M1575 2270 c-13 -6 -15 -9 -5 -10 13 0 13 -3 -1 -13 -9 -7 -19 -21
-22 -32 -3 -15 -5 -13 -6 8 -1 27 -21 39 -21 12 0 -8 -12 -21 -27 -29 -16 -8
-22 -15 -15 -16 6 0 12 -5 12 -11 0 -5 -4 -8 -8 -5 -4 2 -17 -9 -27 -25 -15
-22 -26 -28 -42 -24 -17 4 -20 1 -16 -15 7 -27 27 -25 47 5 9 14 22 25 29 25
17 1 60 38 54 47 -3 5 15 8 39 7 36 -1 44 1 44 16 0 10 7 20 16 22 13 2 11 7
-8 24 -17 16 -29 19 -43 14z"/>
<path d="M208 2229 c-37 -37 -36 -54 2 -51 3 0 6 -8 6 -18 0 -15 -6 -18 -28
-13 -22 4 -28 2 -28 -11 0 -13 4 -15 17 -7 10 5 26 5 41 0 34 -13 59 4 60 42
0 23 -4 33 -18 36 -10 3 -20 15 -22 28 -3 22 -3 22 -30 -6z"/>
<path d="M1970 2241 c0 -5 5 -13 10 -16 6 -3 10 -2 10 4 0 5 -4 13 -10 16 -5
3 -10 2 -10 -4z"/>
<path d="M1196 2103 c-11 -11 24 -33 51 -32 15 0 22 3 16 6 -7 2 -13 10 -13
16 0 12 -44 20 -54 10z"/>
<path d="M220 2080 c-8 -5 -18 -6 -22 -4 -4 3 -8 -5 -8 -18 0 -19 6 -23 35
-25 28 -1 35 2 35 16 0 25 -22 42 -40 31z"/>
<path d="M322 2060 c15 -24 33 -27 24 -4 -3 9 -6 18 -6 20 0 2 -7 4 -15 4 -13
0 -13 -3 -3 -20z"/>
<path d="M645 1885 c-24 -17 -144 -36 -175 -28 -18 5 -20 1 -18 -26 3 -35 21
-57 38 -46 5 3 10 0 10 -7 1 -9 5 -7 14 5 7 9 23 17 35 17 11 0 21 5 21 10 0
6 5 10 11 10 23 0 80 33 69 40 -7 4 1 10 19 13 17 4 31 11 31 17 0 14 -31 11
-55 -5z"/>
<path d="M1755 1838 c-10 -23 -33 -27 -68 -13 -17 7 -18 3 -16 -32 2 -27 -2
-46 -13 -56 -14 -15 -17 -15 -22 -1 -3 9 -6 32 -6 51 0 29 -3 33 -13 24 -8 -6
-17 -8 -20 -4 -4 3 -7 2 -7 -3 0 -6 5 -15 11 -21 8 -8 7 -17 -5 -34 l-16 -23
0 27 c0 15 -4 27 -10 27 -5 0 -10 -8 -10 -19 0 -10 -7 -24 -15 -31 -12 -10
-16 -9 -21 4 -7 19 -25 22 -21 4 1 -9 -12 -13 -40 -13 -23 1 -40 -1 -37 -4 2
-2 -3 -12 -11 -21 -14 -16 -13 -18 15 -23 19 -4 34 -15 40 -29 l9 -23 0 22 c1
13 -8 27 -19 33 -11 6 -20 17 -20 25 0 24 45 1 48 -25 3 -16 9 -21 23 -17 15
4 19 1 17 -11 -2 -10 -11 -16 -23 -14 -12 2 -16 0 -9 -5 6 -4 13 -16 17 -25 8
-21 44 -13 52 13 4 10 14 20 23 20 9 1 22 2 27 4 6 1 15 3 22 3 6 1 19 10 29
20 17 16 17 16 12 -6 -3 -12 -2 -20 2 -17 5 3 21 3 35 -1 19 -5 23 -9 15 -19
-8 -10 -8 -15 0 -20 7 -4 14 2 17 14 3 11 10 18 16 14 6 -4 7 -1 3 6 -8 13 23
43 36 35 4 -3 5 1 2 9 -3 8 -1 18 5 22 6 3 11 23 11 43 0 28 3 33 12 24 15
-15 28 -15 28 -1 0 5 -4 7 -10 4 -5 -3 -10 1 -10 9 0 8 -11 23 -25 34 -14 11
-25 25 -25 31 0 20 -25 12 -35 -11z m-65 -138 c0 -5 -4 -10 -10 -10 -5 0 -10
5 -10 10 0 6 5 10 10 10 6 0 10 -4 10 -10z m-100 -20 c0 -5 -2 -10 -4 -10 -3
0 -8 5 -11 10 -3 6 -1 10 4 10 6 0 11 -4 11 -10z"/>
<path d="M1640 1794 c0 -8 5 -12 10 -9 6 4 8 11 5 16 -9 14 -15 11 -15 -7z"/>
<path d="M174 1780 c-34 -34 -44 -49 -44 -65 0 -8 -4 -15 -10 -15 -22 0 -8
-20 18 -26 15 -3 35 -8 46 -11 12 -3 16 -1 12 6 -4 6 -3 11 3 11 5 0 11 -5 13
-11 2 -5 10 -8 18 -4 18 7 26 105 8 105 -6 0 -19 7 -28 15 -15 13 -18 13 -36
-5z"/>
<path d="M1260 1743 c-82 -8 -99 -14 -106 -36 -5 -12 -7 -25 -6 -29 1 -5 -7
-8 -18 -8 -27 0 -15 -28 15 -36 36 -9 37 -29 4 -63 -28 -30 -62 -40 -73 -22
-10 15 -55 9 -59 -8 -4 -13 -5 -13 -6 2 -2 35 -21 5 -20 -31 1 -23 3 -29 6
-15 4 21 6 22 28 7 26 -17 85 -11 85 8 0 5 13 8 29 6 18 -1 37 4 49 15 11 10
29 19 41 22 20 4 51 27 51 39 0 3 -6 6 -14 6 -7 0 -19 7 -26 15 -10 13 -9 15
9 15 13 0 25 9 30 23 5 13 16 29 25 36 9 7 16 20 16 28 0 11 5 11 23 3 22 -11
22 -11 -2 9 -13 12 -28 20 -35 19 -6 0 -27 -3 -46 -5z"/>
<path d="M755 1690 c-31 -5 -47 -30 -20 -30 8 0 15 5 15 10 0 7 6 7 19 0 20
-10 71 2 71 17 0 9 -43 11 -85 3z"/>
<path d="M546 1682 c-2 -4 -1 -14 4 -22 8 -13 13 -11 32 8 l22 22 -26 0 c-15
0 -29 -4 -32 -8z"/>
<path d="M655 1681 c-3 -5 -1 -12 4 -15 5 -3 11 1 15 9 6 16 -9 21 -19 6z"/>
<path d="M695 1670 c3 -5 8 -10 11 -10 2 0 4 5 4 10 0 6 -5 10 -11 10 -5 0 -7
-4 -4 -10z"/>
<path d="M23 1648 c-16 -8 -23 -20 -23 -40 0 -32 8 -31 48 5 40 37 24 59 -25
35z"/>
<path d="M1683 1625 c-9 -24 1 -27 15 -5 8 13 8 20 2 20 -6 0 -13 -7 -17 -15z"/>
<path d="M2110 1611 c0 -6 -17 -9 -37 -7 -41 3 -73 -11 -73 -33 0 -9 4 -10 13
-4 37 29 72 19 40 -12 -14 -14 -14 -18 -2 -26 8 -5 19 -9 24 -9 6 0 4 4 -4 9
-12 8 -12 12 2 25 8 9 22 16 30 16 17 0 30 37 16 46 -5 3 -9 1 -9 -5z"/>
<path d="M1320 1559 c0 -5 5 -7 10 -4 6 3 10 8 10 11 0 2 -4 4 -10 4 -5 0 -10
-5 -10 -11z"/>
<path d="M1270 1551 c0 -5 9 -7 20 -4 11 3 20 7 20 9 0 2 -9 4 -20 4 -11 0
-20 -4 -20 -9z"/>
<path d="M1324 1528 c3 -11 0 -18 -8 -18 -7 0 -13 -10 -13 -23 l0 -24 27 26
c14 14 22 28 16 30 -6 2 -15 9 -19 15 -6 7 -7 4 -3 -6z"/>
<path d="M707 1483 c-10 -3 -29 -11 -44 -18 -14 -7 -32 -11 -39 -8 -22 8 -16
-11 7 -26 19 -11 25 -10 48 7 18 13 37 18 59 14 31 -4 39 3 24 23 -8 11 -29
14 -55 8z"/>
<path d="M33 1433 c9 -9 19 -14 23 -11 10 10 -6 28 -24 28 -15 0 -15 -1 1 -17z"/>
<path d="M0 1399 c0 -4 7 -9 15 -13 19 -7 19 -52 0 -60 -18 -7 -21 -67 -3 -63
6 1 14 -7 16 -18 6 -29 49 -65 78 -65 14 0 34 -5 46 -11 33 -17 32 -2 -1 28
-24 22 -32 39 -37 78 -9 79 -13 95 -29 95 -7 0 -20 8 -27 18 -12 17 -58 26
-58 11z m80 -174 c0 -8 -2 -15 -4 -15 -2 0 -6 7 -10 15 -3 8 -1 15 4 15 6 0
10 -7 10 -15z"/>
<path d="M94 1395 c22 -17 46 -20 46 -6 0 10 -25 21 -48 21 -15 -1 -14 -3 2
-15z"/>
<path d="M1475 1403 c-43 -10 -38 -23 9 -23 42 0 47 2 36 15 -7 8 -15 14 -19
14 -3 -1 -15 -3 -26 -6z"/>
<path d="M1720 1400 c0 -5 4 -10 9 -10 6 0 13 5 16 10 3 6 -1 10 -9 10 -9 0
-16 -4 -16 -10z"/>
<path d="M1370 1390 c-8 -5 -12 -12 -9 -15 8 -8 39 5 39 16 0 11 -11 11 -30
-1z"/>
<path d="M1466 1211 c-4 -5 -2 -12 3 -15 5 -4 12 -2 15 3 4 5 2 12 -3 15 -5 4
-12 2 -15 -3z"/>
<path d="M1420 1190 c0 -5 5 -10 10 -10 6 0 10 5 10 10 0 6 -4 10 -10 10 -5 0
-10 -4 -10 -10z"/>
<path d="M400 1131 c0 -6 -9 -11 -21 -11 -11 0 -17 -4 -14 -10 3 -5 15 -10 26
-10 10 0 19 -4 19 -10 0 -5 5 -10 10 -10 15 0 12 29 -5 46 -8 9 -15 11 -15 5z"/>
<path d="M350 1082 c0 -12 19 -26 26 -19 2 2 -2 10 -11 17 -9 8 -15 8 -15 2z"/>
<path d="M390 1059 c0 -5 5 -7 10 -4 6 3 10 8 10 11 0 2 -4 4 -10 4 -5 0 -10
-5 -10 -11z"/>
</g>
</svg>
